SplineFontDB: 3.0
FontName: LinLibertineSlantedOZ
FullName: Linux Libertine Slanted O Semibold
FamilyName: Linux Libertine Slanted O
Weight: Semibold
Copyright: Linux Libertine by Philipp H. Poll,\nOpen Font under Terms of following Free Software Licenses:\nGPL (General Public License) with font-exception and OFL (Open Font License).\nCreated with FontForge (http://fontforge.sf.net)\nSept 2003, 2004, 2005, 2006, 2007, 2008, 2009, 2010
UComments: "2003-08-29: Created.+AAoA-2004-07-25: v(1.0) release candidate+AAoA-2005-12-28: v(1.1.0) stable+AAoA-2006-01-01: v(2.0.0) stable+AAoA-2006-09-05: v(2.2.0) stable+AAoA-2006-12-04: v(2.3.0) stable+AAoA-2007-03-11: v(2.4.0) stable+AAoA-2007-06-11: v(2.6.0) stable+AAoA-2007-12-00: v(2.7.0) stable+AAoA-2008-06-00: v(2.8.14) stable+AAoA" 
Version: 4.2.0
ItalicAngle: 0
UnderlinePosition: -98
UnderlineWidth: 40
Ascent: 754
Descent: 246
LayerCount: 2
Layer: 0 0 "Back"  1
Layer: 1 0 "Fore"  0
NeedsXUIDChange: 1
XUID: [1021 993 1524925707 4740893]
FSType: 0
OS2Version: 0
OS2_WeightWidthSlopeOnly: 0
OS2_UseTypoMetrics: 0
CreationTime: 1156455862
ModificationTime: 1294501349
PfmFamily: 17
TTFWeight: 700
TTFWidth: 5
LineGap: 0
VLineGap: 0
OS2TypoAscent: 894
OS2TypoAOffset: 0
OS2TypoDescent: -246
OS2TypoDOffset: 0
OS2TypoLinegap: 0
OS2WinAscent: 894
OS2WinAOffset: 0
OS2WinDescent: 246
OS2WinDOffset: 0
HheadAscent: 894
HheadAOffset: 0
HheadDescent: -246
HheadDOffset: 0
OS2FamilyClass: 261
OS2Vendor: 'PfEd'
Lookup: 3 0 0 "'aalt' Alle Alternativen zeigen"  {"LinLibertine-'aalt' Alle Alternativen zeigen 1"  } ['aalt' ('DFLT' <'dflt' > 'cyrl' <'dflt' > 'grek' <'dflt' > 'latn' <'AZE ' 'CRT ' 'DEU ' 'MOL ' 'ROM ' 'TRK ' 'dflt' > ) ]
Lookup: 1 0 0 "'locl' Localized Forms Romaenisch"  {"'locl' Localized Forms Romaenisch 1"  } ['locl' ('latn' <'MOL ' 'ROM ' > ) ]

StartChar: exclam
Encoding: 33 33 0
Width: 244
Flags: HW
HStem: -10 111<76.9218 165.078> 638 20G<106.5 140.5>
VStem: 50 144<431.981 638.446> 65 112<1.84669 89.0782> 92 58<188.926 423.897>
LayerCount: 2
Fore
SplineSet
261.862 658 m 0
 298.862 658 328.761 634 317.921 583 c 0
 310.481 548 294.404 510 281.39 477 c 0
 244.28 379.1 210.304 279 198.888 230 c 0
 194.449 211 185.061 188 161.961 188 c 0
 135.86 188 137.212 208 143.438 242 c 0
 152.178 289.7 163.863 409.6 166.027 480 c 0
 166.467 515 165.631 544 173.921 583 c 0
 185.823 639 230.862 658 261.862 658 c 0
74.5654 45 m 0
 81.1543 76 111.468 101 142.468 101 c 0
 173.468 101 193.154 76 186.565 45 c 0
 180.188 15 149.874 -10 118.874 -10 c 0
 87.874 -10 68.1885 15 74.5654 45 c 0
EndSplineSet
EndChar

StartChar: quotedbl
Encoding: 34 34 1
Width: 366
Flags: HW
HStem: 421 224
VStem: 63 110<498.128 631.224> 194 110<498.128 631.224>
LayerCount: 2
Fore
SplineSet
199.486 421 m 1
 185.337 425 l 1
 185.337 425 187.346 585 188.621 591 c 0
 193.51 614 222.099 645 265.099 645 c 0
 307.099 645 306.061 626 302.234 608 c 0
 299.046 593 226.762 427 226.762 427 c 1
 199.486 421 l 1
330.486 421 m 1
 316.337 425 l 1
 316.337 425 318.346 585 319.621 591 c 0
 324.51 614 353.099 645 396.099 645 c 0
 438.099 645 437.061 626 433.234 608 c 0
 430.046 593 357.762 427 357.762 427 c 1
 330.486 421 l 1
EndSplineSet
EndChar

StartChar: numbersign
Encoding: 35 35 2
Width: 463
Flags: HMW
HStem: 181 56<25 105 185 248 324 413> 337 56<50 130 209 272 349 437>
DStem2: 79 13 149 13 0.157407 0.987534<11.0677 170.025 238.005 328.652 396.633 555.108> 221 13 289 13 0.155692 0.987806<10.5669 170.026 237.429 328.654 396.057 555.034>
LayerCount: 2
Fore
SplineSet
306.376 237 m 1
 343.632 337 l 1
 273.632 337 l 1
 260.192 302 248.815 272 235.376 237 c 1
 306.376 237 l 1
411.632 337 m 1
 374.376 237 l 1
 471.376 237 l 1
 451.473 181 l 1
 354.473 181 l 1
 333.569 125 312.241 67 291.764 13 c 1
 223.764 13 l 1
 286.473 181 l 1
 215.473 181 l 1
 193.569 125 173.241 67 151.764 13 c 1
 81.7637 13 l 1
 143.473 181 l 1
 55.4727 181 l 1
 75.376 237 l 1
 164.376 237 l 1
 177.815 272 189.192 302 201.632 337 c 1
 112.632 337 l 1
 133.747 394 l 1
 222.747 394 l 1
 243.226 448 264.767 507 285.244 561 c 1
 356.244 561 l 1
 292.747 394 l 1
 364.747 394 l 1
 385.226 448 405.767 507 426.244 561 c 1
 494.244 561 l 1
 432.747 394 l 1
 528.747 394 l 1
 508.632 337 l 1
 411.632 337 l 1
EndSplineSet
EndChar

StartChar: dollar
Encoding: 36 36 3
Width: 438
VWidth: 999
Flags: HW
HStem: -12 37<149.499 273.822> -1 21G<57 67.5> 537 35<158.733 275.685>
VStem: 41 44<92.0509 146.477> 42 84<389.052 501.84> 194 40<-81 627> 310 92<66.2433 194.593> 318 49<435 492.733>
LayerCount: 2
Fore
SplineSet
93.126 10 m 0
 77.126 10 77.7871 -1 56.7871 -1 c 1
 64.6523 36 68.1299 90 72.0332 146 c 1
 116.671 149 l 1
 119.332 88.5996 136.918 34.9004 199.569 26.2002 c 1
 249.031 258.9 l 1
 189.547 282.5 111.208 325.6 134.25 434 c 0
 152.359 519.2 247.133 563.3 315.327 570.8 c 1
 327.273 627 l 1
 367.273 627 l 1
 355.477 571.5 l 1
 403.208 569.3 441.438 560.5 466.882 564 c 1
 460.316 519 458.901 470 456.486 421 c 1
 412.636 417 l 1
 410.462 435 l 1
 405.387 499.1 396.434 529.9 347.909 535.9 c 1
 304.803 333.1 l 1
 360.807 314.3 456.436 256.1 435.159 156 c 0
 418.601 78.0996 362.456 -3.5 231.577 -11.4004 c 1
 216.783 -81 l 1
 176.783 -81 l 1
 191.577 -11.4004 l 1
 139.142 -7.7998 112.025 10 93.126 10 c 0
285.438 242 m 1
 239.696 26.7998 l 1
 276.114 33 322.073 56.7998 336.995 127 c 0
 347.856 178.1 326.825 217 285.438 242 c 1
268.14 348.8 m 1
 307.781 535.3 l 1
 263.888 527.8 231.301 495.4 219.1 438 c 0
 211.512 402.3 238.857 367.7 268.14 348.8 c 1
EndSplineSet
EndChar

StartChar: percent
Encoding: 37 37 4
Width: 637
VWidth: 999
Flags: HW
HStem: -19 33<453.88 513.386> 214 36<488.444 553.315> 297 33<132.255 189.354> 474 45<280.914 457.718> 529 36<164.255 232.725>
VStem: 53 69<333.529 483.072> 240 43<388.136 494.674> 375 68<18.5507 160.828> 562 42<70.2274 208.803>
DStem2: 96 -4 150 -16 0.588938 0.808178<22.1045 620.449 651.051 709.262>
LayerCount: 2
Fore
SplineSet
459.367 77 m 0
 451.077 38 460.976 14 479.976 14 c 0
 531.976 14 583.681 102 595.371 157 c 0
 606.424 209 582.487 214 568.487 214 c 0
 525.487 214 471.482 134 459.367 77 c 0
394.343 91 m 0
 411.348 171 476.139 250 565.139 250 c 0
 613.139 250 653.101 231 637.797 159 c 0
 616.754 60 545.961 -19 466.961 -19 c 0
 404.961 -19 380.526 26 394.343 91 c 0
474.316 519 m 0
 516.316 519 584.592 525 634.944 569 c 1
 677.481 548 l 1
 146.599 -16 l 1
 95.1494 -4 l 1
 567.641 497 l 1
 525.239 481 484.752 474 454.752 474 c 0
 431.752 474 401.877 484 385.216 495 c 1
 385.515 487 385.452 482 383.752 474 c 0
 365.897 390 294.129 297 207.129 297 c 0
 145.129 297 125.057 339 139.298 406 c 0
 157.365 491 228.095 565 310.095 565 c 0
 338.095 565 365.182 556 372.631 544 c 1
 421.316 519 456.316 519 474.316 519 c 0
205.322 392 m 0
 197.032 353 207.144 330 225.144 330 c 0
 271.144 330 328.211 415 340.539 473 c 0
 350.954 522 331.442 529 313.442 529 c 0
 264.442 529 217.65 450 205.322 392 c 0
EndSplineSet
EndChar

StartChar: parenleft
Encoding: 40 40 5
Width: 315
Flags: HW
HStem: -213 21G<154.5 286.75>
VStem: 36 115<108.014 396.52>
LayerCount: 2
Fore
SplineSet
89.7764 253 m 0
 128.462 435 268.021 607 423.041 720 c 1
 443.813 686 l 1
 406.374 651 260.892 517 204.776 253 c 0
 148.662 -11 235.18 -145 259.527 -181 c 1
 222.726 -213 l 1
 37.3867 -17 80.2119 208 89.7764 253 c 0
EndSplineSet
Substitution2: "LinLibertine-'case' Versalformen 1" parenleft.sc
Substitution2: "LinLibertine-'c2sc' Versale nach Kapitaelchen 1" parenleft.sc
Substitution2: "LinLibertine-'sinf' Wissenschaftliche Indices 1" parenleft.inferior
Substitution2: "LinLibertine-'sups' Hochgestellte 1" parenleft.superior
AlternateSubs2: "LinLibertine-'aalt' Alle Alternativen zeigen 1" parenleft.sc
EndChar

StartChar: parenright
Encoding: 41 41 6
Width: 315
VWidth: 999
Flags: HW
HStem: 696 21<28.25 160.5>
VStem: 164 115<107.48 395.986>
LayerCount: 2
Fore
SplineSet
332.352 251 m 0
 293.666 69 154.106 -103 -0.912109 -216 c 1
 -21.6855 -182 l 1
 15.7539 -147 161.236 -13 217.352 251 c 0
 273.467 515 186.949 649 162.602 685 c 1
 199.403 717 l 1
 384.742 521 341.917 296 332.352 251 c 0
EndSplineSet
Substitution2: "LinLibertine-'case' Versalformen 1" parenright.sc
Substitution2: "LinLibertine-'c2sc' Versale nach Kapitaelchen 1" parenright.sc
Substitution2: "LinLibertine-'sinf' Wissenschaftliche Indices 1" parenright.inferior
Substitution2: "LinLibertine-'sups' Hochgestellte 1" parenright.superior
AlternateSubs2: "LinLibertine-'aalt' Alle Alternativen zeigen 1" parenright.sc
EndChar

StartChar: asterisk
Encoding: 42 42 7
Width: 433
VWidth: 999
Flags: HW
HStem: 571 69<77.0607 155.725 271.439 350.068>
VStem: 114 99<486.481 523.5> 173 78<621.002 713.184>
LayerCount: 2
Fore
SplineSet
317.307 566 m 1
 304.732 568 292.795 573 277.37 571 c 0
 230.669 563 194.669 563 204.234 608 c 0
 207.21 622 220.036 640 244.036 640 c 0
 278.036 640 288.021 607 327.983 588 c 1
 332.485 628 311.8 653 317.326 679 c 0
 321.79 700 345.615 718 363.615 718 c 0
 381.615 718 401.277 707 396.176 683 c 0
 390.438 656 359.36 618 350.983 588 c 1
 400.021 607 418.461 642 451.461 642 c 0
 482.461 642 485.36 618 483.234 608 c 0
 476.857 578 440.732 568 405.732 568 c 0
 386.732 568 369.732 568 351.095 565 c 1
 377.442 529 428.867 531 418.027 480 c 0
 414.201 462 393.863 451 379.863 451 c 0
 330.863 451 347.041 513 330.331 552 c 1
 295.767 507 297.863 451 238.863 451 c 0
 221.863 451 212.626 464 215.814 479 c 0
 227.293 533 276.229 528 317.307 566 c 1
EndSplineSet
EndChar

StartChar: plus
Encoding: 43 43 8
Width: 537
Flags: HW
HStem: 195 74<61 232 306 477> 413 20G<232 306>
VStem: 232 74<32 195 269 433>
LayerCount: 2
Fore
SplineSet
363.178 269 m 1
 534.178 269 l 1
 518.448 195 l 1
 347.448 195 l 1
 312.802 32 l 1
 238.802 32 l 1
 273.448 195 l 1
 102.448 195 l 1
 118.178 269 l 1
 289.178 269 l 1
 324.037 433 l 1
 398.037 433 l 1
 363.178 269 l 1
EndSplineSet
Substitution2: "LinLibertine-'sinf' Wissenschaftliche Indices 1" plus.inferior
Substitution2: "LinLibertine-'sups' Hochgestellte 1" plus.superior
AlternateSubs2: "LinLibertine-'aalt' Alle Alternativen zeigen 1" plus.superior plus.inferior uni2098
EndChar

StartChar: slash
Encoding: 47 47 9
Width: 316
Flags: HW
VStem: 2 300
DStem2: 2 -21 65 -21 0.319461 0.947599<20.126 741.875>
LayerCount: 2
Fore
SplineSet
446.964 682 m 1
 60.5361 -21 l 1
 -2.46387 -21 l 1
 383.964 682 l 1
 446.964 682 l 1
EndSplineSet
Ligature2: "LinLibertine-'frac' Brueche 1" uni2215
AlternateSubs2: "LinLibertine-'aalt' Alle Alternativen zeigen 1" uni2215
EndChar

StartChar: one
Encoding: 49 49 10
Width: 490
Flags: HW
HStem: -2 34<102.77 190.845 326.501 400.23> 444 21G<70.0909 103.5>
VStem: 207 110<46.0723 482.998>
LayerCount: 2
Fore
SplineSet
224.217 81 m 2
 298.399 430 l 2
 309.027 480 303.665 483 292.665 483 c 0
 280.665 483 225.264 467 175.375 444 c 1
 164.39 477 l 1
 244.829 512 334.095 565 391.046 593 c 0
 412.384 604 428.659 610 436.659 610 c 0
 443.659 610 448.81 606 446.046 593 c 2
 446.046 593 429.655 530 418.39 477 c 2
 334.217 81 l 2
 324.227 34 355.652 36 403.802 32 c 1
 408.526 26 403.851 4 396.575 -2 c 1
 364.787 -1 302.4 0 263 0 c 0
 217 0 137.787 -1 105.575 -2 c 1
 100.851 4 105.526 26 112.802 32 c 1
 156.439 35 214.439 35 224.217 81 c 2
EndSplineSet
Substitution2: "LinLibertine-'onum' Minuskelziffern 1" one.taboldstyle
Substitution2: "LinLibertine-'pnum' Proportionalziffern 1" one.fitted
Substitution2: "LinLibertine-'sinf' Wissenschaftliche Indices 1" one.inferior
Substitution2: "LinLibertine-'sups' Hochgestellte 1" one.superior
AlternateSubs2: "LinLibertine-'aalt' Alle Alternativen zeigen 1" one.oldstyle one.superior one.fitted
EndChar

StartChar: two
Encoding: 50 50 11
Width: 490
Flags: HW
HStem: 0 79<154 361.39> 570 40<167.661 269.828>
VStem: 51 97<79 87.375 429.277 510.487> 51 90<446.757 529.309> 306 119<379.79 535.222> 386 43<106.6 156.465>
LayerCount: 2
Fore
SplineSet
149.839 465 m 0
 162.805 526 245.659 610 364.659 610 c 0
 453.659 610 547.857 578 521.713 455 c 0
 505.771 380 429.168 316 326.525 233 c 0
 281.661 196 181.207 128 170.792 79 c 1
 332.792 79 l 2
 370.792 79 388.405 96 420.859 164 c 1
 461.946 155 l 1
 438.681 102 419.928 42 407 0 c 1
 50 0 l 1
 62.541 59 92.1055 104 213.637 210 c 1
 301.791 286 l 2
 364.481 341 387.834 385 401.863 451 c 0
 421.418 543 376.157 570 349.157 570 c 0
 296.157 570 254.505 534 249.616 511 c 0
 247.278 500 246.578 492 248.09 485 c 0
 249.39 477 247.689 469 246.626 464 c 0
 240.037 433 210.699 422 189.699 422 c 0
 162.699 422 144.737 441 149.839 465 c 0
EndSplineSet
Substitution2: "LinLibertine-'onum' Minuskelziffern 1" two.taboldstyle
Substitution2: "LinLibertine-'pnum' Proportionalziffern 1" two.fitted
Substitution2: "LinLibertine-'sinf' Wissenschaftliche Indices 1" two.inferior
Substitution2: "LinLibertine-'sups' Hochgestellte 1" two.superior
AlternateSubs2: "LinLibertine-'aalt' Alle Alternativen zeigen 1" two.oldstyle two.superior two.fitted
EndChar

StartChar: three
Encoding: 51 51 12
Width: 490
Flags: HW
HStem: -11 41<160.981 259.712> 305 40<154.95 206.92> 440 21G<76 117.5> 570 40<170.716 273.517>
VStem: 54 90<446.622 534.023> 296 103<436.812 549.429> 315 116<106.537 277.13>
LayerCount: 2
Fore
SplineSet
355.157 570 m 0
 325.058 570 262.182 556 249.216 495 c 0
 244.965 475 231.524 440 190.524 440 c 0
 148.524 440 154.752 474 155.39 477 c 0
 162.616 511 224.659 610 382.659 610 c 0
 496.659 610 514.418 543 505.278 500 c 0
 500.177 476 464.447 402 367.37 364 c 1
 429.883 357 495.404 303 474.361 204 c 0
 444.604 64 320.662 -11 194.662 -11 c 0
 128.662 -11 46.4014 16 55.3281 58 c 0
 58.9414 75 85.1934 95 115.193 95 c 0
 146.193 95 153.854 84 159.666 69 c 0
 166.174 52.0996 183.377 30 216.377 30 c 0
 243.377 30 327.966 61 355.386 190 c 0
 378.555 299 319.955 315 274.955 315 c 0
 267.955 315 249.105 311 220.83 305 c 1
 223.332 345 l 1
 346.071 372 388.887 437 398.877 484 c 0
 410.993 541 384.157 570 355.157 570 c 0
EndSplineSet
Substitution2: "LinLibertine-'onum' Minuskelziffern 1" three.taboldstyle
Substitution2: "LinLibertine-'pnum' Proportionalziffern 1" three.fitted
Substitution2: "LinLibertine-'sinf' Wissenschaftliche Indices 1" three.inferior
Substitution2: "LinLibertine-'sups' Hochgestellte 1" three.superior
AlternateSubs2: "LinLibertine-'aalt' Alle Alternativen zeigen 1" three.oldstyle three.superior three.fitted
EndChar

StartChar: four
Encoding: 52 52 13
Width: 490
VWidth: 487
Flags: HW
HStem: -2 34<186.77 259.892 381.03 447.23> 169 50<90 271 374 478.453>
VStem: 271 103<41.5879 169 219 493.017>
LayerCount: 2
Fore
SplineSet
375.79 493 m 1
 286.768 398.8 205.322 301.2 136.55 219 c 1
 317.55 219 l 1
 375.79 493 l 1
513.55 219 m 2
 524.55 219 527.274 213 525.149 203 c 0
 522.599 191 502.922 169 488.922 169 c 2
 409.922 169 l 1
 391.217 81 l 2
 381.227 34 402.652 36 450.802 32 c 1
 455.526 26 450.851 4 443.575 -2 c 1
 411.787 -1 347.4 0 308 0 c 0
 262 0 221.787 -1 189.575 -2 c 1
 184.851 4 189.526 26 196.802 32 c 1
 240.439 35 278.439 35 288.217 81 c 2
 306.922 169 l 1
 102.922 169 l 2
 72.9219 169 73.2988 199 73.4873 214 c 1
 195.383 357 346.849 521.5 426.321 599 c 0
 430.978 603.5 437.659 610 444.659 610 c 2
 503.659 610 l 1
 505.234 608 l 1
 501.876 600.2 493.244 561 482.616 511 c 2
 420.55 219 l 1
 513.55 219 l 2
EndSplineSet
Substitution2: "LinLibertine-'onum' Minuskelziffern 1" four.taboldstyle
Substitution2: "LinLibertine-'pnum' Proportionalziffern 1" four.fitted
Substitution2: "LinLibertine-'sinf' Wissenschaftliche Indices 1" four.inferior
Substitution2: "LinLibertine-'sups' Hochgestellte 1" four.superior
AlternateSubs2: "LinLibertine-'aalt' Alle Alternativen zeigen 1" four.oldstyle four.superior four.fitted
EndChar

StartChar: five
Encoding: 53 53 14
Width: 490
Flags: HW
HStem: -13 44<163.658 259.663> 344 57<145.439 267.871> 526 75<157.417 397.388>
VStem: 316 115<113.894 288.439>
LayerCount: 2
Fore
SplineSet
355.535 186 m 0
 376.578 285 342.119 344 292.119 344 c 0
 250.119 344 215.419 336 148.893 310 c 1
 247.021 607 l 1
 294.172 603 334.746 601 369.746 601 c 0
 419.746 601 465.384 604 527.872 611 c 1
 544.746 601 l 1
 515.08 532 l 1
 463.229 528 432.805 526 402.805 526 c 0
 366.805 526 299.229 528 272.867 531 c 1
 257.027 480 244.588 445 227.535 393 c 1
 247.385 397 303.235 401 329.235 401 c 0
 450.235 401 496.255 307 475.212 208 c 0
 450.13 90 336.236 -13 208.236 -13 c 0
 142.236 -13 50.6758 22 59.8164 65 c 0
 64.4922 87 86.7432 107 116.743 107 c 0
 147.743 107 159.918 89 165.666 69 c 0
 173.565 45 197.589 31 213.589 31 c 0
 265.589 31 334.918 89 355.535 186 c 0
EndSplineSet
Substitution2: "LinLibertine-'onum' Minuskelziffern 1" five.taboldstyle
Substitution2: "LinLibertine-'pnum' Proportionalziffern 1" five.fitted
Substitution2: "LinLibertine-'sinf' Wissenschaftliche Indices 1" five.inferior
Substitution2: "LinLibertine-'sups' Hochgestellte 1" five.superior
AlternateSubs2: "LinLibertine-'aalt' Alle Alternativen zeigen 1" five.oldstyle five.superior five.fitted
EndChar

StartChar: six
Encoding: 54 54 15
Width: 490
Flags: HW
HStem: -10 38<210.287 295.504> 319 42<174.993 284.066> 579 33<329.938 415.848>
VStem: 40 113<114.614 296.134> 330 113<87.8768 268.712>
LayerCount: 2
Fore
SplineSet
213.516 280 m 1
 210.178 269 206.352 251 204.014 240 c 0
 167.454 68 220.951 28 262.951 28 c 0
 298.951 28 344.241 67 366.984 174 c 0
 376.975 221 379.806 319 300.806 319 c 0
 285.806 319 257.381 317 213.516 280 c 1
542.07 579 m 1
 493.433 576 431.582 572 347.703 502 c 0
 305.052 466 264.148 410 235.27 340 c 1
 266.032 353 300.732 361 328.732 361 c 0
 497.732 361 492.101 231 481.686 182 c 0
 466.169 109 401.874 -10 245.874 -10 c 0
 161.874 -10 46.8018 32 91.6514 243 c 0
 111.844 338 164.612 431 253.979 508 c 0
 334.646 577 419.597 605 545.085 612 c 1
 542.07 579 l 1
EndSplineSet
Substitution2: "LinLibertine-'onum' Minuskelziffern 1" six.taboldstyle
Substitution2: "LinLibertine-'pnum' Proportionalziffern 1" six.fitted
Substitution2: "LinLibertine-'sinf' Wissenschaftliche Indices 1" six.inferior
Substitution2: "LinLibertine-'sups' Hochgestellte 1" six.superior
AlternateSubs2: "LinLibertine-'aalt' Alle Alternativen zeigen 1" six.oldstyle six.superior six.fitted
EndChar

StartChar: seven
Encoding: 55 55 16
Width: 490
Flags: HW
HStem: -13 21G<117 216> 444 21G<55 102> 517 77<112.287 352>
VStem: 55 39<450.564 497.42>
LayerCount: 2
Fore
SplineSet
254.259 594 m 2
 563.259 594 l 1
 565.559 586 l 1
 401.381 317 306.497 167 215.575 -2 c 1
 119.236 -13 l 1
 117 0 l 1
 217.096 151 380.834 385 461.892 517 c 1
 268.892 517 l 2
 236.892 517 219.042 513 188.375 444 c 1
 151.075 452 l 1
 181.742 521 196.969 555 208.534 600 c 1
 216.534 600 l 1
 223.259 594 247.259 594 254.259 594 c 2
EndSplineSet
Substitution2: "LinLibertine-'onum' Minuskelziffern 1" seven.taboldstyle
Substitution2: "LinLibertine-'pnum' Proportionalziffern 1" seven.fitted
Substitution2: "LinLibertine-'sinf' Wissenschaftliche Indices 1" seven.inferior
Substitution2: "LinLibertine-'sups' Hochgestellte 1" seven.superior
AlternateSubs2: "LinLibertine-'aalt' Alle Alternativen zeigen 1" seven.oldstyle seven.superior seven.fitted
EndChar

StartChar: nine
Encoding: 57 57 17
Width: 490
VWidth: 487
Flags: HW
HStem: -12 33<70.6515 156.562> 239 42<202.434 311.507> 572 38<190.996 276.213>
VStem: 43.5 113<331.288 512.123> 333.5 113<303.866 485.386>
LayerCount: 2
Fore
SplineSet
400.519 320 m 1
 403.856 331 407.683 349 410.021 360 c 0
 446.58 532 393.082 572 351.082 572 c 0
 315.082 572 269.793 533 247.049 426 c 0
 237.059 379 234.229 281 313.229 281 c 0
 328.229 281 356.653 283 400.519 320 c 1
71.9639 21 m 1
 120.602 24 182.451 28 266.33 98 c 0
 308.982 134 349.886 190 378.765 260 c 1
 348.002 247 313.301 239 285.301 239 c 0
 116.301 239 121.934 369 132.349 418 c 0
 147.865 491 212.159 610 368.159 610 c 0
 452.159 610 567.232 568 522.383 357 c 0
 502.189 262 449.422 169 360.056 92 c 0
 279.389 23 194.438 -5 68.9492 -12 c 1
 71.9639 21 l 1
EndSplineSet
Substitution2: "LinLibertine-'onum' Minuskelziffern 1" nine.taboldstyle
Substitution2: "LinLibertine-'pnum' Proportionalziffern 1" nine.fitted
Substitution2: "LinLibertine-'sinf' Wissenschaftliche Indices 1" nine.inferior
Substitution2: "LinLibertine-'sups' Hochgestellte 1" nine.superior
AlternateSubs2: "LinLibertine-'aalt' Alle Alternativen zeigen 1" nine.oldstyle nine.superior nine.fitted
EndChar

StartChar: colon
Encoding: 58 58 18
Width: 219
VWidth: 999
Flags: HW
HStem: 39 111<85.9218 174.078> 302 111<85.9218 174.078>
VStem: 74 112<50.8467 138.078 313.847 401.078>
LayerCount: 2
Fore
SplineSet
149.883 357 m 0
 156.472 388 186.786 413 217.786 413 c 0
 248.786 413 268.472 388 261.883 357 c 0
 255.506 327 225.192 302 194.192 302 c 0
 163.192 302 143.506 327 149.883 357 c 0
93.9805 94 m 0
 100.569 125 130.884 150 161.884 150 c 0
 192.884 150 212.569 125 205.98 94 c 0
 199.604 64 169.29 39 138.29 39 c 0
 107.29 39 87.6035 64 93.9805 94 c 0
EndSplineSet
EndChar

StartChar: less
Encoding: 60 60 19
Width: 512
Flags: HW
DStem2: 42 262 153 240 0.939793 0.341743<96.7987 435.295> 153 240 42 218 0.939793 -0.341743<0 338.496>
LayerCount: 2
Fore
SplineSet
204.014 240 m 1
 497.357 124 l 1
 484.179 62 l 1
 88.3369 218 l 1
 97.6895 262 l 1
 559.849 418 l 1
 546.67 356 l 1
 204.014 240 l 1
EndSplineSet
EndChar

StartChar: equal
Encoding: 61 61 20
Width: 551
Flags: HW
HStem: 142 56<59 493> 266 57<59 493>
LayerCount: 2
Fore
SplineSet
535.086 198 m 1
 523.183 142 l 1
 89.1826 142 l 1
 101.086 198 l 1
 535.086 198 l 1
561.656 323 m 1
 549.54 266 l 1
 115.54 266 l 1
 127.656 323 l 1
 561.656 323 l 1
EndSplineSet
Substitution2: "LinLibertine-'sinf' Wissenschaftliche Indices 1" equal.inferior
Substitution2: "LinLibertine-'sups' Hochgestellte 1" equal.superior
AlternateSubs2: "LinLibertine-'aalt' Alle Alternativen zeigen 1" equal.superior
EndChar

StartChar: greater
Encoding: 62 62 21
Width: 512
Flags: HW
DStem2: 42 416 42 354 0.939088 -0.343676<21.3079 358.865> 42 122 42 60 0.940496 0.339806<0 337.555>
LayerCount: 2
Fore
SplineSet
409.589 238 m 1
 117.245 354 l 1
 130.424 416 l 1
 526.052 259 l 1
 516.699 215 l 1
 54.7529 60 l 1
 67.9316 122 l 1
 409.589 238 l 1
EndSplineSet
EndChar

StartChar: question
Encoding: 63 63 22
Width: 430
Flags: HW
HStem: -10 111<147.922 236.078> 623 36<147.137 243.576>
VStem: 25 102<504.183 589.152> 136 112<1.84669 89.0782> 158 69<173.053 308.691> 284 117<435.475 583.004>
LayerCount: 2
Fore
SplineSet
248.37 571 m 0
 243.906 550 251.631 544 245.892 517 c 0
 240.578 492 214.177 476 184.177 476 c 0
 160.177 476 131.428 496 139.505 534 c 0
 146.944 569 170.912 591.9 210.785 620 c 0
 246.178 644.9 295.075 659 356.075 659 c 0
 470.075 659 528.108 598 508.554 506 c 0
 492.824 432 419.834 385 361.97 348 c 0
 329.719 328 290.979 301 275.676 229 c 2
 270.787 206 l 2
 266.11 184 259.56 172 228.56 172 c 0
 197.56 172 197.11 184 201.787 206 c 2
 207.101 231 l 2
 215.815 272 229.931 329 314.747 394 c 0
 356.337 425 384.414 463 395.041 513 c 0
 407.37 571 394.522 623 338.423 623 c 0
 294.423 623 254.321 599 248.37 571 c 0
145.565 45 m 0
 152.154 76 182.468 101 213.468 101 c 0
 244.468 101 264.154 76 257.565 45 c 0
 251.188 15 220.874 -10 189.874 -10 c 0
 158.874 -10 139.188 15 145.565 45 c 0
EndSplineSet
EndChar

StartChar: at
Encoding: 64 64 23
Width: 988
Flags: HW
HStem: -160 39<407.274 632.859> 19 42<603 706.824> 30 42<431.029 515.602> 382 33<504.201 588.744> 584 37<401.936 597.238>
VStem: 92 94<102.389 345.27> 317 97<85.6604 259.227> 805 85<185.117 389.903>
LayerCount: 2
Fore
SplineSet
674.019 320 m 0
 681.458 355 663.196 382 638.196 382 c 0
 624.196 382 592.142 380.8 548.907 343 c 0
 493.861 294.8 462.25 227 448.859 164 c 0
 438.869 117 438.304 72 485.304 72 c 0
 515.304 72 572.743 107 618.023 193 c 0
 635.038 226 668.917 296 674.019 320 c 0
655.941 75 m 0
 653.179 62 659.966 61 670.966 61 c 0
 707.966 61 832.42 129 863.028 273 c 0
 910.003 494 745.133 584 628.133 584 c 0
 473.133 584 283.563 459 234.463 228 c 0
 203.005 80 251.28 -121 495.28 -121 c 0
 572.28 -121 648.382 -97 721.223 -46 c 1
 736.059 -75 l 1
 661.643 -124 590.991 -160 467.991 -160 c 0
 230.991 -160 90.5117 -7 138.975 221 c 0
 182.975 428 391.998 621 644.998 621 c 0
 870.998 621 991.177 476 951.004 287 c 0
 921.246 147 776.039 19 642.039 19 c 0
 572.039 19 561.69 55 566.154 76 c 1
 517.077 38 474.377 30 450.377 30 c 0
 334.377 30 341.869 117 350.584 158 c 0
 381.404 303 527.211 415 642.211 415 c 0
 690.211 415 715.598 398 728.134 377 c 1
 772.148 410 l 1
 796.811 399 l 1
 682.971 141 l 2
 671.544 115 658.28 86 655.941 75 c 0
EndSplineSet
EndChar

StartChar: A
Encoding: 65 65 24
Width: 699
Flags: HW
HStem: -1 34<10 60.0229 142.897 211 414 482.841 622.594 692> 241 47<234.168 403> 638 20G<348.5 364.5>
DStem2: 89 91 148 79 0.384126 0.923281<-23.1403 196.063 246.684 479.281> 399 627 320 514 0.352654 -0.935754<77.8806 318.631 368.607 561.264>
LayerCount: 2
Fore
SplineSet
314.216 288 m 2
 464.216 288 l 1
 429.254 514 l 1
 297.767 300 l 1
 295.854 291 296.216 288 314.216 288 c 2
164.792 79 m 2
 147.628 50 143.015 33 202.015 33 c 0
 218.015 33 222.589 31 220.889 23 c 2
 216.638 3 l 1
 210.787 -1 l 1
 210.787 -1 119.213 1 95.2129 1 c 0
 70.2129 1 9.78711 -1 9.78711 -1 c 1
 2.4248 2 l 1
 6.88867 23 l 2
 9.01465 33 17.0146 33 29.0146 33 c 0
 49.0146 33 82.6279 50 108.343 91 c 2
 445.273 627 l 2
 460.374 651 482.862 658 493.862 658 c 0
 514.862 658 528.736 648 532.273 627 c 2
 620.343 91 l 2
 626.479 54 636.015 33 661.015 33 c 2
 689.015 33 l 2
 704.015 33 703.589 31 701.889 23 c 2
 697.638 3 l 1
 691.787 -1 l 1
 691.787 -1 596.213 1 558.213 1 c 0
 522.213 1 413.787 -1 413.787 -1 c 1
 406.851 4 l 1
 410.889 23 l 2
 412.589 31 421.015 33 439.015 33 c 2
 466.015 33 l 2
 483.015 33 493.353 44 496.541 59 c 0
 497.604 64 498.879 70 497.517 73 c 2
 471.227 241 l 1
 287.227 241 l 2
 267.227 241 262.014 240 253.25 227 c 2
 164.792 79 l 2
EndSplineSet
Substitution2: "LinLibertine-'c2sc' Versale nach Kapitaelchen 1" a.sc
Position2: "'cpsp' Versalabstaende 1" dx=2 dy=0 dh=5 dv=0
EndChar

StartChar: B
Encoding: 66 66 25
Width: 620
Flags: HW
HStem: 0 40<225.077 375.965> 0 33<23 96.4211> 334 42<221 356.422> 605 42<224.143 359.733> 613 34<24 96.3856>
VStem: 99 122<45.449 334 376 599.529> 403 120<424.816 565.405> 450 127<106.58 268.4>
LayerCount: 2
Fore
SplineSet
340.457 562 m 2
 300.921 376 l 1
 356.921 376 l 2
 427.921 376 489.936 409 506.94 489 c 0
 527.771 587 465.597 605 419.597 605 c 0
 354.597 605 346.621 591 340.457 562 c 2
291.994 334 m 1
 238.854 84 l 2
 232.69 55 235.502 40 295.502 40 c 0
 427.502 40 476.995 127 489.748 187 c 0
 508.028 273 465.994 334 362.994 334 c 2
 291.994 334 l 1
26.4639 21 m 2
 27.9512 28 32.0146 33 47.0146 33 c 2
 76.0146 33 l 2
 99.0146 33 107.928 42 114.729 74 c 2
 220.582 572 l 2
 226.959 602 223.297 613 199.297 613 c 2
 166.297 613 l 2
 155.297 613 152.935 616 154.423 623 c 2
 159.099 645 l 1
 161.524 647 l 1
 161.524 647 261.799 645 291.799 645 c 0
 321.799 645 371.524 647 421.524 647 c 0
 623.324 647 642.031 560 627.365 491 c 0
 616.525 440 562.834 385 503.732 361 c 1
 503.308 359 l 1
 603.356 331 633.115 264 614.41 176 c 0
 595.918 89 511 0 306 0 c 2
 23 0 l 1
 22.2129 1 l 1
 26.4639 21 l 2
EndSplineSet
Substitution2: "LinLibertine-'c2sc' Versale nach Kapitaelchen 1" b.sc
Position2: "'cpsp' Versalabstaende 1" dx=2 dy=0 dh=5 dv=0
EndChar

StartChar: C
Encoding: 67 67 26
Width: 666
Flags: HW
HStem: -10 44<290.062 474.801> 437 21G<558.5 612> 617 41<295.135 462.38>
VStem: 34 130<195.747 434.804> 574 38<443.526 484.717>
LayerCount: 2
Fore
SplineSet
368.874 -10 m 0
 140.874 -10 66.7334 154 100.955 315 c 0
 142.829 512 326.862 658 511.862 658 c 0
 644.862 658 669.51 614 720.51 614 c 1
 712.182 556 708.278 500 706.588 445 c 1
 666.887 437 l 1
 656.08 532 631.147 617 503.147 617 c 0
 406.147 617 277.08 532 234.994 334 c 0
 204.811 192 238.227 34 377.227 34 c 0
 458.227 34 538.028 66 633.521 153 c 1
 658.42 129 l 1
 571.29 39 474.874 -10 368.874 -10 c 0
EndSplineSet
Substitution2: "LinLibertine-'c2sc' Versale nach Kapitaelchen 1" c.sc
Position2: "'cpsp' Versalabstaende 1" dx=2 dy=0 dh=5 dv=0
EndChar

StartChar: D
Encoding: 68 68 27
Width: 718
Flags: HW
HStem: 0 40<222.92 424.983> 0 33<24 92.1445> 606 40<223.637 384.847> 613 33<24 92.1445>
VStem: 99 122<44.4801 601.64> 549 132<185.589 421.599>
LayerCount: 2
Fore
SplineSet
236.941 75 m 2
 230.777 46 238.502 40 316.502 40 c 0
 444.502 40 567.705 88 609.366 284 c 0
 641.462 435 608.81 606 411.81 606 c 0
 375.81 606 349.172 603 342.37 571 c 2
 236.941 75 l 2
24 0 m 1
 22.4248 2 l 1
 27.1016 24 l 2
 28.377 30 33.0146 33 37.0146 33 c 2
 51.0146 33 l 2
 91.0146 33 108.565 45 115.367 77 c 2
 219.944 569 l 2
 226.746 601 214.297 613 174.297 613 c 2
 160.297 613 l 2
 156.297 613 152.935 616 153.998 621 c 2
 158.887 644 l 1
 161.312 646 l 1
 457.312 646 l 2
 660.312 646 786.003 494 746.68 309 c 0
 694.391 63 487 0 338 0 c 2
 24 0 l 1
EndSplineSet
Substitution2: "LinLibertine-'c2sc' Versale nach Kapitaelchen 1" d.sc
Position2: "'cpsp' Versalabstaende 1" dx=2 dy=0 dh=5 dv=0
EndChar

StartChar: E
Encoding: 69 69 28
Width: 562
Flags: HW
HStem: 0 46<224.232 442.935> 0 33<27 94.1445> 323 42<224 361.625> 427 20G<383 415> 600 46<224.232 421.482> 613 33<27 94.1445>
VStem: 101 123<46.578 323 365 599.422> 372 36<251.814 315.565 372.621 436.233> 474 40<482.425 531.807> 499 43<118.211 170.628>
LayerCount: 2
Fore
SplineSet
27 0 m 1
 24.4248 2 l 1
 29.1016 24 l 2
 30.377 30 35.0146 33 39.0146 33 c 2
 53.0146 33 l 2
 93.0146 33 110.565 45 117.367 77 c 2
 221.944 569 l 2
 228.746 601 216.297 613 176.297 613 c 2
 162.297 613 l 2
 158.297 613 154.935 616 155.998 621 c 2
 160.887 644 l 1
 164.312 646 l 1
 630.312 646 l 1
 621.983 588 617.718 535 616.877 484 c 1
 574.965 475 l 1
 571.805 526 562.534 600 495.534 600 c 2
 365.534 600 l 2
 356.534 600 349.834 592 345.37 571 c 2
 301.583 365 l 1
 414.583 365 l 2
 439.583 365 450.173 396 464.675 436 c 0
 465.524 440 473.013 447 483.013 447 c 2
 504.013 447 l 1
 507.887 437 l 1
 502.486 421 488.984 381 481.119 344 c 0
 473.468 308 469.965 268 468.352 251 c 1
 460.438 242 l 1
 439.438 242 l 2
 429.438 242 424.714 248 425.564 252 c 0
 428.279 293 430.656 323 405.656 323 c 2
 292.656 323 l 1
 239.941 75 l 2
 235.053 52 238.777 46 247.777 46 c 2
 400.777 46 l 2
 455.777 46 504.318 105 537.048 179 c 1
 577.922 169 l 1
 556.656 116 533.479 54 515 0 c 1
 27 0 l 1
EndSplineSet
Substitution2: "LinLibertine-'c2sc' Versale nach Kapitaelchen 1" e.sc
Position2: "'cpsp' Versalabstaende 1" dx=2 dy=0 dh=5 dv=0
EndChar

StartChar: F
Encoding: 70 70 29
Width: 513
Flags: HW
HStem: -2 34<26 94.7241 230.184 298> 323 42<223 360.625> 427 20G<382 414> 600 46<223.232 420.482> 613 33<27 94.1445>
VStem: 101 122<37.5094 323 365 599.422> 371 36<251.813 315.565 372.621 436.232> 473 40<482.425 531.807>
LayerCount: 2
Fore
SplineSet
239.154 76 m 2
 233.203 48 243.802 32 284.802 32 c 2
 298.802 32 l 2
 303.802 32 306.164 29 304.889 23 c 2
 300 0 l 1
 297.575 -2 l 1
 297.575 -2 198 0 162 0 c 0
 123 0 25.5752 -2 25.5752 -2 c 1
 24 0 l 1
 28.8887 23 l 2
 30.1641 29 34.8018 32 38.8018 32 c 2
 52.8018 32 l 2
 92.8018 32 110.353 44 117.154 76 c 2
 221.944 569 l 2
 228.746 601 216.297 613 176.297 613 c 2
 162.297 613 l 2
 158.297 613 154.935 616 155.998 621 c 2
 160.887 644 l 1
 164.312 646 l 1
 629.312 646 l 1
 620.983 588 616.718 535 615.877 484 c 1
 573.965 475 l 1
 570.805 526 561.534 600 494.534 600 c 2
 364.534 600 l 2
 355.534 600 348.834 592 344.37 571 c 2
 300.583 365 l 1
 413.583 365 l 2
 438.583 365 449.173 396 463.675 436 c 0
 464.524 440 472.013 447 482.013 447 c 2
 503.013 447 l 1
 506.887 437 l 1
 501.486 421 487.856 380.4 480.119 344 c 0
 472.383 307.6 468.965 268 467.352 251 c 1
 459.438 242 l 1
 438.438 242 l 2
 428.438 242 423.714 248 424.564 252 c 0
 427.279 293 429.656 323 404.656 323 c 2
 291.656 323 l 1
 239.154 76 l 2
EndSplineSet
Substitution2: "LinLibertine-'c2sc' Versale nach Kapitaelchen 1" f.sc
Position2: "'cpsp' Versalabstaende 1" dx=2 dy=0 dh=5 dv=0
EndChar

StartChar: G
Encoding: 71 71 30
Width: 727
Flags: HW
HStem: -10 44<306.541 502.262> 272 34<440 520.715 652.798 706> 437 21G<571 624> 617 41<300.747 473.546>
VStem: 29 130<202 430.82> 532 117<85.3282 262.125> 585 39<443.564 488.517>
LayerCount: 2
Fore
SplineSet
697.676 229 m 2
 673.231 114 l 2
 670.043 99 672.555 92 679.067 85 c 1
 596.526 26 509.874 -10 383.874 -10 c 0
 170.874 -10 57.4824 134 94.4678 308 c 0
 141.229 528 344.862 658 522.862 658 c 0
 657.862 658 681.51 614 732.51 614 c 1
 723.182 556 720.278 500 718.588 445 c 1
 677.887 437 l 1
 669.867 531 640.147 617 513.147 617 c 0
 392.147 617 264.854 498 228.506 327 c 0
 196.41 176 250.227 34 411.227 34 c 0
 454.227 34 507.777 46 547.729 74 c 1
 580.676 229 l 2
 587.265 260 557.815 272 517.815 272 c 2
 503.815 272 l 2
 499.815 272 496.453 275 497.729 281 c 2
 502.617 304 l 1
 505.042 306 l 1
 505.042 306 601.617 304 640.617 304 c 0
 676.617 304 771.042 306 771.042 306 c 1
 772.617 304 l 1
 767.729 281 l 2
 766.453 275 762.815 272 757.815 272 c 2
 751.815 272 l 2
 710.815 272 703.414 256 697.676 229 c 2
EndSplineSet
Substitution2: "LinLibertine-'c2sc' Versale nach Kapitaelchen 1" g.sc
Position2: "'cpsp' Versalabstaende 1" dx=2 dy=0 dh=5 dv=0
EndChar

StartChar: grave
Encoding: 96 96 31
Width: 392
VWidth: 999
Flags: HW
LayerCount: 2
Fore
SplineSet
347.215 702 m 1
 389.857 578 l 2
 392.37 571 395.031 560 393.331 552 c 0
 391.418 543 381.931 536 372.931 536 c 0
 364.931 536 356.114 541.1 342.182 556 c 2
 243.5 661 l 1
 247.838 672 l 1
 257.751 681 291.64 704 327.64 704 c 0
 332.64 704 343.428 703 347.215 702 c 1
EndSplineSet
Substitution2: "LinLibertine-'case' Versalformen 1" uni0358
EndChar

StartChar: ograve
Encoding: 242 242 32
Width: 519
VWidth: 999
Flags: HW
HStem: -10 43<223.814 325.852> 403 41<203.326 303.665>
VStem: 34 122<119.406 317.729> 364 121<118.762 320.282>
LayerCount: 2
Fore
SplineSet
387.263 674 m 1
 429.906 550 l 2
 432.418 543 435.08 532 433.38 524 c 0
 431.467 515 421.979 508 412.979 508 c 0
 404.979 508 396.163 513.1 382.229 528 c 2
 283.548 633 l 1
 287.887 644 l 1
 297.8 653 331.688 676 367.688 676 c 0
 372.688 676 383.476 675 387.263 674 c 1
335.66 403 m 0
 271.66 403 222.743 314 204.676 229 c 0
 188.946 155 200.015 33 282.015 33 c 0
 318.015 33 376.115 57 403.11 184 c 0
 433.506 327 403.66 403 335.66 403 c 0
77.999 207 m 0
 107.119 344 209.375 444 354.375 444 c 0
 517.375 444 553.23 321 530.912 216 c 0
 509.444 115 411.874 -10 256.874 -10 c 0
 109.874 -10 56.1055 104 77.999 207 c 0
EndSplineSet
Substitution2: "LinLibertine-'smcp' Gemeine nach Kapitaelchen 1" ograve.sc
AlternateSubs2: "LinLibertine-'aalt' Alle Alternativen zeigen 1" ograve.sc
EndChar

StartChar: oacute
Encoding: 243 243 33
Width: 519
VWidth: 999
Flags: HW
HStem: -10 43<223.814 325.852> 403 41<203.326 303.665>
VStem: 34 122<119.406 317.729> 364 121<118.762 320.282>
LayerCount: 2
Fore
SplineSet
425.263 674 m 1
 428.476 675 436.688 676 441.688 676 c 0
 471.688 676 487.713 662 493.587 652 c 1
 498.698 629 l 1
 355.742 521 l 2
 339.191 509 324.341 505 314.341 505 c 0
 306.341 505 300.041 513 301.316 519 c 0
 302.592 525 306.505 534 314.418 543 c 2
 425.263 674 l 1
335.66 403 m 0
 271.66 403 222.743 314 204.676 229 c 0
 188.946 155 200.015 33 282.015 33 c 0
 318.015 33 376.115 57 403.11 184 c 0
 433.506 327 403.66 403 335.66 403 c 0
77.999 207 m 0
 107.119 344 209.375 444 354.375 444 c 0
 517.375 444 553.23 321 530.912 216 c 0
 509.444 115 411.874 -10 256.874 -10 c 0
 109.874 -10 56.1055 104 77.999 207 c 0
EndSplineSet
Substitution2: "LinLibertine-'smcp' Gemeine nach Kapitaelchen 1" oacute.sc
AlternateSubs2: "LinLibertine-'aalt' Alle Alternativen zeigen 1" oacute.sc
EndChar

StartChar: ocircumflex
Encoding: 244 244 34
Width: 519
VWidth: 999
Flags: HW
HStem: -10 43<223.814 325.852> 403 41<203.326 303.665>
VStem: 34 122<119.406 317.729> 364 121<118.762 320.282>
LayerCount: 2
Fore
SplineSet
417.949 649 m 1
 437.534 600 466.182 556 494.467 515 c 1
 465.428 496 l 1
 427.954 522 403.206 542 376.07 579 c 1
 329.78 540 297.954 522 252.428 496 c 1
 231.467 515 l 1
 276.182 556 325.746 601 365.949 649 c 1
 417.949 649 l 1
335.66 403 m 0
 271.66 403 222.743 314 204.676 229 c 0
 188.946 155 200.015 33 282.015 33 c 0
 318.015 33 376.115 57 403.11 184 c 0
 433.506 327 403.66 403 335.66 403 c 0
77.999 207 m 0
 107.119 344 209.375 444 354.375 444 c 0
 517.375 444 553.23 321 530.912 216 c 0
 509.444 115 411.874 -10 256.874 -10 c 0
 109.874 -10 56.1055 104 77.999 207 c 0
EndSplineSet
Substitution2: "LinLibertine-'smcp' Gemeine nach Kapitaelchen 1" ocircumflex.sc
AlternateSubs2: "LinLibertine-'aalt' Alle Alternativen zeigen 1" ocircumflex.sc
EndChar

StartChar: otilde
Encoding: 245 245 35
Width: 519
VWidth: 999
Flags: HW
HStem: -10 43<223.814 325.852> 403 41<203.326 303.665> 516 58<267 350.543> 570 59<148.743 235.285>
VStem: 34 122<119.406 317.729> 113 25<524.76 550.045> 364 26<596.869 622.692> 364 121<118.762 320.282>
LayerCount: 2
Fore
SplineSet
441.008 574 m 0
 463.008 574 477.921 583 502.336 632 c 1
 528.21 622 l 1
 500.756 554 462.254 514 414.254 514 c 0
 391.254 514 372.442 529 355.631 544 c 1
 338.394 557 321.157 570 303.157 570 c 0
 276.157 570 261.969 555 242.892 517 c 1
 218.592 525 l 1
 247.046 593 279.123 631 324.123 631 c 0
 355.123 631 374.723 615 391.321 599 c 0
 406.346 585 421.008 574 441.008 574 c 0
335.66 403 m 0
 271.66 403 222.743 314 204.676 229 c 0
 188.946 155 200.015 33 282.015 33 c 0
 318.015 33 376.115 57 403.11 184 c 0
 433.506 327 403.66 403 335.66 403 c 0
77.999 207 m 0
 107.119 344 209.375 444 354.375 444 c 0
 517.375 444 553.23 321 530.912 216 c 0
 509.444 115 411.874 -10 256.874 -10 c 0
 109.874 -10 56.1055 104 77.999 207 c 0
EndSplineSet
Substitution2: "LinLibertine-'smcp' Gemeine nach Kapitaelchen 1" otilde.sc
AlternateSubs2: "LinLibertine-'aalt' Alle Alternativen zeigen 1" otilde.sc
EndChar

StartChar: odieresis
Encoding: 246 246 36
Width: 519
VWidth: 999
Flags: HW
HStem: -10 43<223.814 325.852> 403 41<203.326 303.665> 518 107<120.97 207.324 301.676 388.03>
VStem: 34 122<119.406 317.729> 110 108<529.388 613.537> 291 108<529.388 613.537> 364 121<118.762 320.282>
LayerCount: 2
Fore
SplineSet
412.37 571 m 0
 418.746 601 447.848 625 477.848 625 c 0
 506.848 625 526.746 601 520.37 571 c 0
 514.206 542 484.104 518 455.104 518 c 0
 425.104 518 406.206 542 412.37 571 c 0
231.37 571 m 0
 237.746 601 267.848 625 296.848 625 c 0
 326.848 625 345.746 601 339.37 571 c 0
 333.206 542 304.104 518 274.104 518 c 0
 245.104 518 225.206 542 231.37 571 c 0
335.66 403 m 0
 271.66 403 222.743 314 204.676 229 c 0
 188.946 155 200.015 33 282.015 33 c 0
 318.015 33 376.115 57 403.11 184 c 0
 433.506 327 403.66 403 335.66 403 c 0
77.999 207 m 0
 107.119 344 209.375 444 354.375 444 c 0
 517.375 444 553.23 321 530.912 216 c 0
 509.444 115 411.874 -10 256.874 -10 c 0
 109.874 -10 56.1055 104 77.999 207 c 0
EndSplineSet
Substitution2: "LinLibertine-'smcp' Gemeine nach Kapitaelchen 1" odieresis.sc
AlternateSubs2: "LinLibertine-'aalt' Alle Alternativen zeigen 1" odieresis.sc
EndChar

StartChar: divide
Encoding: 247 247 37
Width: 537
VWidth: 999
Flags: HW
HStem: 53.6 93<231.309 305.197> 195 74<71 466> 321.6 93<231.309 305.197>
VStem: 221.3 93.9<63.5478 136.66> 221.3 93.9<331.548 404.66>
LayerCount: 2
Fore
SplineSet
299.457 367.7 m 0
 304.983 393.7 330.426 414.6 356.426 414.6 c 0
 382.426 414.6 398.884 393.7 393.357 367.7 c 0
 388.021 342.6 362.658 321.6 336.658 321.6 c 0
 310.658 321.6 294.122 342.6 299.457 367.7 c 0
242.492 99.7002 m 0
 248.019 125.7 273.461 146.6 299.461 146.6 c 0
 325.461 146.6 341.918 125.7 336.392 99.7002 c 0
 331.057 74.5996 305.693 53.5996 279.693 53.5996 c 0
 253.693 53.5996 237.156 74.5996 242.492 99.7002 c 0
523.178 269 m 1
 507.448 195 l 1
 112.448 195 l 1
 128.178 269 l 1
 523.178 269 l 1
EndSplineSet
EndChar

StartChar: ugrave
Encoding: 249 249 38
Width: 550
VWidth: 999
Flags: HW
HStem: -10 50<215.254 312.397> 28 31<479.262 526> 402 34<29 58 293 346.026>
VStem: 87 110<56.8091 398.969> 352 110<69.9839 399.25>
LayerCount: 2
Fore
SplineSet
382.263 674 m 1
 424.906 550 l 2
 427.418 543 430.08 532 428.38 524 c 0
 426.467 515 416.979 508 407.979 508 c 0
 399.979 508 391.163 513.1 377.229 528 c 2
 278.548 633 l 1
 282.887 644 l 1
 292.8 653 326.688 676 362.688 676 c 0
 367.688 676 378.476 675 382.263 674 c 1
486.444 115 m 2
 480.067 85 485.179 62 538.541 59 c 1
 532.951 28 l 1
 439.401 16 412.638 3 383.449 -12 c 1
 349.449 -12 l 1
 362.439 35 l 1
 309.062 5 260.874 -10 223.874 -10 c 0
 107.874 -10 99.3281 58 114.207 128 c 2
 161.82 352 l 2
 168.196 382 166.104 398.5 143.022 400 c 2
 112.447 402 l 1
 109.873 404 l 1
 116.25 434 l 1
 121.675 436 l 1
 121.675 436 200.25 434 232.25 434 c 0
 246.25 434 290.675 436 290.675 436 c 1
 290.675 436 280.109 391 272.245 354 c 2
 227.183 142 l 2
 209.328 58 238.502 40 259.502 40 c 0
 281.502 40 324.565 45 368.367 77 c 1
 426.82 352 l 2
 433.622 384 427.022 400 409.022 400 c 1
 378.447 402 l 1
 374.873 404 l 1
 381.25 434 l 1
 385.675 436 l 1
 385.675 436 469.25 434 496.25 434 c 0
 517.25 434 556.675 436 556.675 436 c 1
 556.675 436 545.854 394.5 537.245 354 c 2
 486.444 115 l 2
EndSplineSet
Substitution2: "LinLibertine-'smcp' Gemeine nach Kapitaelchen 1" ugrave.sc
AlternateSubs2: "LinLibertine-'aalt' Alle Alternativen zeigen 1" ugrave.sc
EndChar

StartChar: uacute
Encoding: 250 250 39
Width: 550
VWidth: 999
Flags: HW
HStem: -10 50<215.254 312.397> 28 31<479.262 526> 402 34<29 58 293 346.026>
VStem: 87 110<56.8091 398.969> 352 110<69.9839 399.25>
LayerCount: 2
Fore
SplineSet
452.263 674 m 1
 455.476 675 463.688 676 468.688 676 c 0
 498.688 676 514.713 662 520.587 652 c 1
 525.698 629 l 1
 382.742 521 l 2
 366.191 509 351.341 505 341.341 505 c 0
 333.341 505 327.041 513 328.316 519 c 0
 329.592 525 333.505 534 341.418 543 c 2
 452.263 674 l 1
486.444 115 m 2
 480.067 85 485.179 62 538.541 59 c 1
 532.951 28 l 1
 439.401 16 412.638 3 383.449 -12 c 1
 349.449 -12 l 1
 362.439 35 l 1
 309.062 5 260.874 -10 223.874 -10 c 0
 107.874 -10 99.3281 58 114.207 128 c 2
 161.82 352 l 2
 168.196 382 166.104 398.5 143.022 400 c 2
 112.447 402 l 1
 109.873 404 l 1
 116.25 434 l 1
 121.675 436 l 1
 121.675 436 200.25 434 232.25 434 c 0
 246.25 434 290.675 436 290.675 436 c 1
 290.675 436 280.109 391 272.245 354 c 2
 227.183 142 l 2
 209.328 58 238.502 40 259.502 40 c 0
 281.502 40 324.565 45 368.367 77 c 1
 426.82 352 l 2
 433.622 384 427.022 400 409.022 400 c 1
 378.447 402 l 1
 374.873 404 l 1
 381.25 434 l 1
 385.675 436 l 1
 385.675 436 469.25 434 496.25 434 c 0
 517.25 434 556.675 436 556.675 436 c 1
 556.675 436 545.854 394.5 537.245 354 c 2
 486.444 115 l 2
EndSplineSet
Substitution2: "LinLibertine-'smcp' Gemeine nach Kapitaelchen 1" uacute.sc
AlternateSubs2: "LinLibertine-'aalt' Alle Alternativen zeigen 1" uacute.sc
EndChar

StartChar: ucircumflex
Encoding: 251 251 40
Width: 550
VWidth: 999
Flags: HW
HStem: -10 50<215.254 312.397> 28 31<479.262 526> 402 34<29 58 293 346.026>
VStem: 87 110<56.8091 398.969> 352 110<69.9839 399.25>
LayerCount: 2
Fore
SplineSet
422.949 649 m 1
 442.534 600 471.182 556 499.467 515 c 1
 470.428 496 l 1
 432.954 522 408.206 542 381.07 579 c 1
 334.78 540 302.954 522 257.428 496 c 1
 236.467 515 l 1
 281.182 556 330.746 601 370.949 649 c 1
 422.949 649 l 1
486.444 115 m 2
 480.067 85 485.179 62 538.541 59 c 1
 532.951 28 l 1
 439.401 16 412.638 3 383.449 -12 c 1
 349.449 -12 l 1
 362.439 35 l 1
 309.062 5 260.874 -10 223.874 -10 c 0
 107.874 -10 99.3281 58 114.207 128 c 2
 161.82 352 l 2
 168.196 382 166.104 398.5 143.022 400 c 2
 112.447 402 l 1
 109.873 404 l 1
 116.25 434 l 1
 121.675 436 l 1
 121.675 436 200.25 434 232.25 434 c 0
 246.25 434 290.675 436 290.675 436 c 1
 290.675 436 280.109 391 272.245 354 c 2
 227.183 142 l 2
 209.328 58 238.502 40 259.502 40 c 0
 281.502 40 324.565 45 368.367 77 c 1
 426.82 352 l 2
 433.622 384 427.022 400 409.022 400 c 1
 378.447 402 l 1
 374.873 404 l 1
 381.25 434 l 1
 385.675 436 l 1
 385.675 436 469.25 434 496.25 434 c 0
 517.25 434 556.675 436 556.675 436 c 1
 556.675 436 545.854 394.5 537.245 354 c 2
 486.444 115 l 2
EndSplineSet
Substitution2: "LinLibertine-'smcp' Gemeine nach Kapitaelchen 1" ucircumflex.sc
AlternateSubs2: "LinLibertine-'aalt' Alle Alternativen zeigen 1" ucircumflex.sc
EndChar

StartChar: ebreve
Encoding: 277 277 41
Width: 461
VWidth: 999
Flags: HW
HStem: -10 56<218.732 346.305> 245 40<154 316> 402 42<199.114 288.493> 498 62<172.853 307.87>
VStem: 34 115<124.669 245 285 306.603> 105 32<604.278 639.062> 316 115<259 363.973> 344 31<605.121 639.161>
LayerCount: 2
Fore
SplineSet
271.8 653 m 1
 262.321 599 296.819 559 359.819 559 c 0
 406.819 559 470.195 589 486.8 653 c 1
 515.611 638 l 1
 483.293 533 397.216 495 346.216 495 c 0
 265.216 495 225.394 557 235.611 638 c 1
 271.8 653 l 1
214.578 285 m 1
 374.578 285 l 1
 377.004 287 377.642 290 378.917 296 c 0
 395.921 376 360.447 402 333.447 402 c 0
 312.447 402 250.26 387 214.578 285 c 1
420.169 109 m 1
 440.705 88 l 1
 387.764 13 312.874 -10 243.874 -10 c 0
 91.874 -10 52.7051 88 76.0859 198 c 0
 108.607 351 238.375 444 343.375 444 c 0
 490.375 444 505.607 351 487.54 266 c 0
 484.564 252 468.076 245 444.076 245 c 2
 201.076 245 l 1
 200.014 240 197.038 226 195.55 219 c 0
 174.72 121 216.777 46 294.777 46 c 0
 332.777 46 373.604 64 420.169 109 c 1
EndSplineSet
EndChar

StartChar: Edotaccent
Encoding: 278 278 42
Width: 562
VWidth: 999
Flags: HW
HStem: 0 33<27 94.1445> 0 46<224.232 442.935> 323 42<224 361.625> 427 20<383 415> 600 46<224.232 421.482> 613 33<27 94.1445> 681 120<245.745 338.255>
VStem: 101 123<46.578 323 365 599.422> 232 120<694.745 787.255> 372 36<251.814 315.565 372.621 436.233> 474 40<482.425 531.807> 499 43<118.211 170.628>
LayerCount: 2
Fore
SplineSet
387.504 741 m 0
 394.731 775 428.683 803 462.683 803 c 0
 496.683 803 518.731 775 511.504 741 c 0
 504.277 707 470.326 679 436.326 679 c 0
 402.326 679 380.277 707 387.504 741 c 0
27 0 m 1
 24.4248 2 l 1
 29.1016 24 l 2
 30.377 30 35.0146 33 39.0146 33 c 2
 53.0146 33 l 2
 93.0146 33 110.565 45 117.367 77 c 2
 221.944 569 l 2
 228.746 601 216.297 613 176.297 613 c 2
 162.297 613 l 2
 158.297 613 154.935 616 155.998 621 c 2
 160.887 644 l 1
 164.312 646 l 1
 630.312 646 l 1
 621.983 588 617.718 535 616.877 484 c 1
 574.965 475 l 1
 571.805 526 562.534 600 495.534 600 c 2
 365.534 600 l 2
 356.534 600 349.834 592 345.37 571 c 2
 301.583 365 l 1
 414.583 365 l 2
 439.583 365 450.173 396 464.675 436 c 0
 465.524 440 473.013 447 483.013 447 c 2
 504.013 447 l 1
 507.887 437 l 1
 502.486 421 488.984 381 481.119 344 c 0
 473.468 308 469.965 268 468.352 251 c 1
 460.438 242 l 1
 439.438 242 l 2
 429.438 242 424.714 248 425.564 252 c 0
 428.279 293 430.656 323 405.656 323 c 2
 292.656 323 l 1
 239.941 75 l 2
 235.053 52 238.777 46 247.777 46 c 2
 400.777 46 l 2
 455.777 46 504.318 105 537.048 179 c 1
 577.922 169 l 1
 556.656 116 533.479 54 515 0 c 1
 27 0 l 1
EndSplineSet
Position2: "'cpsp' Versalabstaende 1" dx=2 dy=0 dh=5 dv=0
EndChar

StartChar: edotaccent
Encoding: 279 279 43
Width: 461
VWidth: 999
Flags: HW
HStem: -10 56<218.732 346.305> 245 40<154 316> 402 42<199.114 288.493> 512 120<195.745 288.255>
VStem: 34 115<124.669 245 285 306.603> 182 120<525.745 618.255> 316 115<259 363.973>
LayerCount: 2
Fore
SplineSet
301.582 572 m 0
 308.81 606 342.761 634 376.761 634 c 0
 410.761 634 432.81 606 425.582 572 c 0
 418.355 538 384.404 510 350.404 510 c 0
 316.404 510 294.355 538 301.582 572 c 0
214.578 285 m 1
 374.578 285 l 1
 377.004 287 377.642 290 378.917 296 c 0
 395.921 376 360.447 402 333.447 402 c 0
 312.447 402 250.26 387 214.578 285 c 1
420.169 109 m 1
 440.705 88 l 1
 387.764 13 312.874 -10 243.874 -10 c 0
 91.874 -10 52.7051 88 76.0859 198 c 0
 108.607 351 238.375 444 343.375 444 c 0
 490.375 444 505.607 351 487.54 266 c 0
 484.564 252 468.076 245 444.076 245 c 2
 201.076 245 l 1
 200.014 240 197.038 226 195.55 219 c 0
 174.72 121 216.777 46 294.777 46 c 0
 332.777 46 373.604 64 420.169 109 c 1
EndSplineSet
EndChar

StartChar: Eogonek
Encoding: 280 280 44
Width: 562
VWidth: 999
Flags: HW
HStem: -224 39<385.181 468.941> 0 25<454.256 490.88> 0 33<27 94.1445> 0 46<224.232 442.935> 323 42<224 361.625> 427 20<383 415> 600 46<224.232 421.482> 613 33<27 94.1445>
VStem: 101 123<46.578 323 365 599.422> 311 60<-173.091 -74.5789> 372 36<251.814 315.565 372.621 436.233> 474 40<482.425 531.807> 499 43<118.211 170.628>
LayerCount: 2
Fore
SplineSet
356.388 -224 m 0
 303.388 -224 269.977 -193 281.455 -139 c 0
 291.551 -91.5 343.9 -33.4004 411.2 0 c 1
 27 0 l 1
 24.4248 2 l 1
 29.1016 24 l 2
 30.377 30 35.0146 33 39.0146 33 c 2
 53.0146 33 l 2
 93.0146 33 110.565 45 117.367 77 c 2
 221.944 569 l 2
 228.746 601 216.297 613 176.297 613 c 2
 162.297 613 l 2
 158.297 613 154.935 616 155.998 621 c 2
 160.887 644 l 1
 164.312 646 l 1
 630.312 646 l 1
 621.983 588 617.718 535 616.877 484 c 1
 574.965 475 l 1
 571.805 526 562.534 600 495.534 600 c 2
 365.534 600 l 2
 356.534 600 349.834 592 345.37 571 c 2
 301.583 365 l 1
 414.583 365 l 2
 439.583 365 450.173 396 464.675 436 c 0
 465.524 440 473.013 447 483.013 447 c 2
 504.013 447 l 1
 507.887 437 l 1
 502.486 421 488.984 381 481.119 344 c 0
 473.468 308 469.965 268 468.352 251 c 1
 460.438 242 l 1
 439.438 242 l 2
 429.438 242 424.714 248 425.564 252 c 0
 428.279 293 430.656 323 405.656 323 c 2
 292.656 323 l 1
 239.941 75 l 2
 235.053 52 238.777 46 247.777 46 c 2
 400.777 46 l 2
 455.777 46 504.318 105 537.048 179 c 1
 577.922 169 l 1
 556.656 116 533.479 54 515 0 c 1
 506 0 l 2
 426 0 355.059 -75 344.218 -126 c 0
 337.416 -158 353.677 -185 389.677 -185 c 0
 419.677 -185 442.865 -170 467.329 -149 c 1
 480.629 -157 l 1
 446.639 -204 392.388 -224 356.388 -224 c 0
EndSplineSet
Substitution2: "LinLibertine-'c2sc' Versale nach Kapitaelchen 1" eogonek.sc
Position2: "'cpsp' Versalabstaende 1" dx=2 dy=0 dh=5 dv=0
EndChar

StartChar: eogonek
Encoding: 281 281 45
Width: 461
VWidth: 999
Flags: HW
HStem: -218 40<269.1 348.306> -10 56<218.732 346.305> 245 40<154 316> 402 42<199.114 288.493>
VStem: 34 115<124.669 245 285 306.603> 184 72<-166.748 -67.9608> 316 115<259 363.973>
LayerCount: 2
Fore
SplineSet
214.578 285 m 1
 374.578 285 l 1
 377.004 287 377.642 290 378.917 296 c 0
 395.921 376 360.447 402 333.447 402 c 0
 312.447 402 250.26 387 214.578 285 c 1
420.169 109 m 1
 440.705 88 l 1
 410.223 44.7998 372.396 18.7998 332.678 4.59961 c 1
 285.926 -31.4004 241.1 -70.0996 229.218 -126 c 0
 223.691 -152 242.165 -178 273.165 -178 c 0
 290.165 -178 311.141 -164 337.242 -140 c 1
 355.841 -156 l 1
 319.126 -197 279.663 -218 240.663 -218 c 0
 184.663 -218 144.252 -187 155.942 -132 c 0
 165.273 -88.0996 208.271 -45.2998 256.338 -9.7002 c 1
 252.195 -9.90039 247.975 -10 243.874 -10 c 0
 91.874 -10 52.7051 88 76.0859 198 c 0
 108.607 351 238.375 444 343.375 444 c 0
 490.375 444 505.607 351 487.54 266 c 0
 484.564 252 468.076 245 444.076 245 c 2
 201.076 245 l 1
 200.014 240 197.038 226 195.55 219 c 0
 174.72 121 216.777 46 294.777 46 c 0
 332.777 46 373.604 64 420.169 109 c 1
EndSplineSet
Substitution2: "LinLibertine-'smcp' Gemeine nach Kapitaelchen 1" eogonek.sc
AlternateSubs2: "LinLibertine-'aalt' Alle Alternativen zeigen 1" eogonek.sc
EndChar

StartChar: Ecaron
Encoding: 282 282 46
Width: 562
VWidth: 999
Flags: HW
HStem: 0 33<27 94.1445> 0 46<224.232 442.935> 323 42<224 361.625> 427 20<383 415> 600 46<224.232 421.482> 613 33<27 94.1445>
VStem: 101 123<46.578 323 365 599.422> 372 36<251.814 315.565 372.621 436.233> 474 40<482.425 531.807> 499 43<118.211 170.628>
LayerCount: 2
Fore
SplineSet
416.152 697 m 1
 394.017 734 365.394 764 335.345 792 c 1
 355.596 812 l 1
 390.982 795 420.944 776 448.63 751 c 1
 491.156 777 527.195 796 568.596 812 c 1
 579.345 792 l 1
 535.181 763 496.379 731 459.152 697 c 1
 416.152 697 l 1
27 0 m 1
 24.4248 2 l 1
 29.1016 24 l 2
 30.377 30 35.0146 33 39.0146 33 c 2
 53.0146 33 l 2
 93.0146 33 110.565 45 117.367 77 c 2
 221.944 569 l 2
 228.746 601 216.297 613 176.297 613 c 2
 162.297 613 l 2
 158.297 613 154.935 616 155.998 621 c 2
 160.887 644 l 1
 164.312 646 l 1
 630.312 646 l 1
 621.983 588 617.718 535 616.877 484 c 1
 574.965 475 l 1
 571.805 526 562.534 600 495.534 600 c 2
 365.534 600 l 2
 356.534 600 349.834 592 345.37 571 c 2
 301.583 365 l 1
 414.583 365 l 2
 439.583 365 450.173 396 464.675 436 c 0
 465.524 440 473.013 447 483.013 447 c 2
 504.013 447 l 1
 507.887 437 l 1
 502.486 421 488.984 381 481.119 344 c 0
 473.468 308 469.965 268 468.352 251 c 1
 460.438 242 l 1
 439.438 242 l 2
 429.438 242 424.714 248 425.564 252 c 0
 428.279 293 430.656 323 405.656 323 c 2
 292.656 323 l 1
 239.941 75 l 2
 235.053 52 238.777 46 247.777 46 c 2
 400.777 46 l 2
 455.777 46 504.318 105 537.048 179 c 1
 577.922 169 l 1
 556.656 116 533.479 54 515 0 c 1
 27 0 l 1
EndSplineSet
Substitution2: "LinLibertine-'c2sc' Versale nach Kapitaelchen 1" ecaron.sc
Position2: "'cpsp' Versalabstaende 1" dx=2 dy=0 dh=5 dv=0
EndChar

StartChar: ecaron
Encoding: 283 283 47
Width: 461
VWidth: 999
Flags: HW
HStem: -10 56<218.732 346.305> 245 40<154 316> 402 42<199.114 288.493>
VStem: 34 115<124.669 245 285 306.603> 316 115<259 363.973>
LayerCount: 2
Fore
SplineSet
366.641 497 m 1
 316.641 497 l 1
 297.418 543 268.559 586 242.061 626 c 1
 269.887 644 l 1
 303.147 617 325.108 598 354.031 560 c 1
 395.684 596 430.147 617 474.887 644 c 1
 495.061 626 l 1
 450.559 586 405.631 544 366.641 497 c 1
214.578 285 m 1
 374.578 285 l 1
 377.004 287 377.642 290 378.917 296 c 0
 395.921 376 360.447 402 333.447 402 c 0
 312.447 402 250.26 387 214.578 285 c 1
420.169 109 m 1
 440.705 88 l 1
 387.764 13 312.874 -10 243.874 -10 c 0
 91.874 -10 52.7051 88 76.0859 198 c 0
 108.607 351 238.375 444 343.375 444 c 0
 490.375 444 505.607 351 487.54 266 c 0
 484.564 252 468.076 245 444.076 245 c 2
 201.076 245 l 1
 200.014 240 197.038 226 195.55 219 c 0
 174.72 121 216.777 46 294.777 46 c 0
 332.777 46 373.604 64 420.169 109 c 1
EndSplineSet
Substitution2: "LinLibertine-'smcp' Gemeine nach Kapitaelchen 1" ecaron.sc
AlternateSubs2: "LinLibertine-'aalt' Alle Alternativen zeigen 1" ecaron.sc
EndChar

StartChar: Gcircumflex
Encoding: 284 284 48
Width: 727
VWidth: 999
Flags: HW
HStem: -10 44<306.541 502.262> 272 34<440 520.715 652.798 706> 437 21<571 624> 617 41<300.747 473.546>
VStem: 29 130<202 430.82> 532 117<85.3282 262.125> 585 39<443.564 488.517>
LayerCount: 2
Fore
SplineSet
556.108 805 m 1
 578.456 769 606.867 738 637.128 711 c 1
 616.664 690 l 1
 581.49 708 551.528 727 523.843 752 c 1
 481.104 725 445.277 707 403.664 690 c 1
 394.128 711 l 1
 437.079 739 474.881 771 513.108 805 c 1
 556.108 805 l 1
697.676 229 m 2
 673.231 114 l 2
 670.043 99 672.555 92 679.067 85 c 1
 596.526 26 509.874 -10 383.874 -10 c 0
 170.874 -10 57.4824 134 94.4678 308 c 0
 141.229 528 344.862 658 522.862 658 c 0
 657.862 658 681.51 614 732.51 614 c 1
 723.182 556 720.278 500 718.588 445 c 1
 677.887 437 l 1
 669.867 531 640.147 617 513.147 617 c 0
 392.147 617 264.854 498 228.506 327 c 0
 196.41 176 250.227 34 411.227 34 c 0
 454.227 34 507.777 46 547.729 74 c 1
 580.676 229 l 2
 587.265 260 557.815 272 517.815 272 c 2
 503.815 272 l 2
 499.815 272 496.453 275 497.729 281 c 2
 502.617 304 l 1
 505.042 306 l 1
 505.042 306 601.617 304 640.617 304 c 0
 676.617 304 771.042 306 771.042 306 c 1
 772.617 304 l 1
 767.729 281 l 2
 766.453 275 762.815 272 757.815 272 c 2
 751.815 272 l 2
 710.815 272 703.414 256 697.676 229 c 2
EndSplineSet
Position2: "'cpsp' Versalabstaende 1" dx=2 dy=0 dh=5 dv=0
EndChar

StartChar: gcircumflex
Encoding: 285 285 49
Width: 508
VWidth: 999
Flags: HW
HStem: -238 42<178.622 331.027> -12 68<200.45 373.262> 135 37<205.129 289.171> 409 35<196.474 280.87> 424 43<370.607 460>
VStem: 38 94<-154.282 -55.8943> 62 106<210.3 365.373> 71 84<55.4643 131.752> 316 108<211.187 370.331> 406 91<-121.914 -39.1241>
LayerCount: 2
Fore
SplineSet
405.736 648 m 1
 425.321 599 453.969 555 482.254 514 c 1
 453.216 495 l 1
 415.742 521 390.993 541 363.857 578 c 1
 317.568 539 285.742 521 240.216 495 c 1
 219.254 514 l 1
 263.969 555 313.534 600 353.736 648 c 1
 405.736 648 l 1
372.366 284 m 0
 389.158 363 366.936 409 319.936 409 c 0
 280.936 409 243.709 375 227.979 301 c 0
 217.139 250 220.56 172 282.56 172 c 0
 308.56 172 351.961 188 372.366 284 c 0
179.812 -15 m 0
 167.812 -15 156.812 -15 147.662 -11 c 1
 121.985 -33 114.821 -62 107.595 -96 c 0
 92.5029 -167 161.339 -196 189.339 -196 c 0
 264.339 -196 368.841 -156 384.783 -81 c 0
 398.812 -15 298.449 -12 253.449 -12 c 0
 244.449 -12 235.236 -13 222.024 -14 c 0
 206.812 -15 190.812 -15 179.812 -15 c 0
528.409 383 m 0
 503.409 383 498.811 399 497.573 412 c 1
 495.849 418 494.124 424 485.124 424 c 0
 475.124 424 462.424 416 452.298 406 c 1
 480.347 378 492.907 343 481.004 287 c 0
 460.173 189 363.695 135 269.695 135 c 0
 238.695 135 208.258 140 189.384 150 c 1
 181.833 138 175.869 117 172.468 101 c 0
 163.966 61 188.415 49 206.415 49 c 0
 215.415 49 263.903 56 301.903 56 c 0
 464.903 56 489.387 -17 481.31 -55 c 0
 457.928 -165 291.411 -238 152.411 -238 c 0
 70.4111 -238 -9.57422 -205 9.34375 -116 c 0
 17.6328 -77 55.7734 -34 115.213 1 c 1
 90.8262 18 75.9277 42 82.7295 74 c 0
 89.3184 105 118.439 138.5 154.391 166.5 c 1
 122.811 192 109.651 243 120.066 292 c 0
 139.834 385 240.375 444 336.375 444 c 0
 381.375 444 410.462 435 426.337 425 c 1
 460.863 451 509.264 467 536.264 467 c 0
 574.264 467 584.95 442 580.911 423 c 0
 575.811 399 556.409 383 528.409 383 c 0
EndSplineSet
EndChar

StartChar: Gbreve
Encoding: 286 286 50
Width: 727
VWidth: 999
Flags: HW
HStem: -10 44<306.541 502.262> 272 34<440 520.715 652.798 706> 437 21<571 624> 617 41<300.747 473.546> 693 52<292.738 450.296> 786 20<236 268 476.5 507>
VStem: 29 130<202 430.82> 236 28<781.047 806> 480 27<780.76 806> 532 117<85.3282 262.125> 585 39<443.564 488.517>
LayerCount: 2
Fore
SplineSet
678.32 806 m 1
 657.229 735 585.302 693 519.302 693 c 0
 446.302 693 397.441 736 407.32 806 c 1
 435.32 806 l 1
 435.031 767 477.354 745 530.354 745 c 0
 579.354 745 636.031 767 651.32 806 c 1
 678.32 806 l 1
697.676 229 m 2
 673.231 114 l 2
 670.043 99 672.555 92 679.067 85 c 1
 596.526 26 509.874 -10 383.874 -10 c 0
 170.874 -10 57.4824 134 94.4678 308 c 0
 141.229 528 344.862 658 522.862 658 c 0
 657.862 658 681.51 614 732.51 614 c 1
 723.182 556 720.278 500 718.588 445 c 1
 677.887 437 l 1
 669.867 531 640.147 617 513.147 617 c 0
 392.147 617 264.854 498 228.506 327 c 0
 196.41 176 250.227 34 411.227 34 c 0
 454.227 34 507.777 46 547.729 74 c 1
 580.676 229 l 2
 587.265 260 557.815 272 517.815 272 c 2
 503.815 272 l 2
 499.815 272 496.453 275 497.729 281 c 2
 502.617 304 l 1
 505.042 306 l 1
 505.042 306 601.617 304 640.617 304 c 0
 676.617 304 771.042 306 771.042 306 c 1
 772.617 304 l 1
 767.729 281 l 2
 766.453 275 762.815 272 757.815 272 c 2
 751.815 272 l 2
 710.815 272 703.414 256 697.676 229 c 2
EndSplineSet
Substitution2: "LinLibertine-'c2sc' Versale nach Kapitaelchen 1" gbreve.sc
Position2: "'cpsp' Versalabstaende 1" dx=2 dy=0 dh=5 dv=0
EndChar

StartChar: gbreve
Encoding: 287 287 51
Width: 508
VWidth: 999
Flags: HW
HStem: -238 42<178.622 331.027> -12 68<200.45 373.262> 135 37<205.129 289.171> 409 35<196.474 280.87> 424 43<370.607 460> 494 62<164.853 299.87>
VStem: 38 94<-154.282 -55.8943> 62 106<210.3 365.373> 71 84<55.4643 131.752> 97 32<600.278 635.062> 316 108<211.187 370.331> 336 31<601.121 635.161> 406 91<-121.914 -39.1241>
LayerCount: 2
Fore
SplineSet
262.949 649 m 1
 253.471 595 287.969 555 350.969 555 c 0
 397.969 555 461.346 585 477.949 649 c 1
 506.761 634 l 1
 474.442 529 388.365 491 337.365 491 c 0
 256.365 491 216.544 553 226.761 634 c 1
 262.949 649 l 1
372.366 284 m 0
 389.158 363 366.936 409 319.936 409 c 0
 280.936 409 243.709 375 227.979 301 c 0
 217.139 250 220.56 172 282.56 172 c 0
 308.56 172 351.961 188 372.366 284 c 0
179.812 -15 m 0
 167.812 -15 156.812 -15 147.662 -11 c 1
 121.985 -33 114.821 -62 107.595 -96 c 0
 92.5029 -167 161.339 -196 189.339 -196 c 0
 264.339 -196 368.841 -156 384.783 -81 c 0
 398.812 -15 298.449 -12 253.449 -12 c 0
 244.449 -12 235.236 -13 222.024 -14 c 0
 206.812 -15 190.812 -15 179.812 -15 c 0
528.409 383 m 0
 503.409 383 498.811 399 497.573 412 c 1
 495.849 418 494.124 424 485.124 424 c 0
 475.124 424 462.424 416 452.298 406 c 1
 480.347 378 492.907 343 481.004 287 c 0
 460.173 189 363.695 135 269.695 135 c 0
 238.695 135 208.258 140 189.384 150 c 1
 181.833 138 175.869 117 172.468 101 c 0
 163.966 61 188.415 49 206.415 49 c 0
 215.415 49 263.903 56 301.903 56 c 0
 464.903 56 489.387 -17 481.31 -55 c 0
 457.928 -165 291.411 -238 152.411 -238 c 0
 70.4111 -238 -9.57422 -205 9.34375 -116 c 0
 17.6328 -77 55.7734 -34 115.213 1 c 1
 90.8262 18 75.9277 42 82.7295 74 c 0
 89.3184 105 118.439 138.5 154.391 166.5 c 1
 122.811 192 109.651 243 120.066 292 c 0
 139.834 385 240.375 444 336.375 444 c 0
 381.375 444 410.462 435 426.337 425 c 1
 460.863 451 509.264 467 536.264 467 c 0
 574.264 467 584.95 442 580.911 423 c 0
 575.811 399 556.409 383 528.409 383 c 0
EndSplineSet
Substitution2: "LinLibertine-'smcp' Gemeine nach Kapitaelchen 1" gbreve.sc
AlternateSubs2: "LinLibertine-'aalt' Alle Alternativen zeigen 1" gbreve.sc
EndChar

StartChar: Gdotaccent
Encoding: 288 288 52
Width: 727
VWidth: 999
Flags: HW
HStem: -10 44<306.541 502.262> 272 34<440 520.715 652.798 706> 437 21<571 624> 617 41<300.747 473.546> 694 120<340.745 433.255>
VStem: 29 130<202 430.82> 327 120<707.745 800.255> 532 117<85.3282 262.125> 585 39<443.564 488.517>
LayerCount: 2
Fore
SplineSet
485.268 754 m 0
 492.494 788 526.446 816 560.446 816 c 0
 594.446 816 616.494 788 609.268 754 c 0
 602.041 720 568.089 692 534.089 692 c 0
 500.089 692 478.041 720 485.268 754 c 0
697.676 229 m 2
 673.231 114 l 2
 670.043 99 672.555 92 679.067 85 c 1
 596.526 26 509.874 -10 383.874 -10 c 0
 170.874 -10 57.4824 134 94.4678 308 c 0
 141.229 528 344.862 658 522.862 658 c 0
 657.862 658 681.51 614 732.51 614 c 1
 723.182 556 720.278 500 718.588 445 c 1
 677.887 437 l 1
 669.867 531 640.147 617 513.147 617 c 0
 392.147 617 264.854 498 228.506 327 c 0
 196.41 176 250.227 34 411.227 34 c 0
 454.227 34 507.777 46 547.729 74 c 1
 580.676 229 l 2
 587.265 260 557.815 272 517.815 272 c 2
 503.815 272 l 2
 499.815 272 496.453 275 497.729 281 c 2
 502.617 304 l 1
 505.042 306 l 1
 505.042 306 601.617 304 640.617 304 c 0
 676.617 304 771.042 306 771.042 306 c 1
 772.617 304 l 1
 767.729 281 l 2
 766.453 275 762.815 272 757.815 272 c 2
 751.815 272 l 2
 710.815 272 703.414 256 697.676 229 c 2
EndSplineSet
Position2: "'cpsp' Versalabstaende 1" dx=2 dy=0 dh=5 dv=0
EndChar

StartChar: gdotaccent
Encoding: 289 289 53
Width: 508
VWidth: 999
Flags: HW
HStem: -238 42<178.622 331.027> -12 68<200.45 373.262> 135 37<205.129 289.171> 409 35<196.474 280.87> 424 43<370.607 460> 511 120<183.745 276.255>
VStem: 38 94<-154.282 -55.8943> 62 106<210.3 365.373> 71 84<55.4643 131.752> 170 120<524.745 617.255> 316 108<211.187 370.331> 406 91<-121.914 -39.1241>
LayerCount: 2
Fore
SplineSet
289.37 571 m 0
 296.597 605 330.548 633 364.548 633 c 0
 398.548 633 420.597 605 413.37 571 c 0
 406.143 537 372.191 509 338.191 509 c 0
 304.191 509 282.143 537 289.37 571 c 0
372.366 284 m 0
 389.158 363 366.936 409 319.936 409 c 0
 280.936 409 243.709 375 227.979 301 c 0
 217.139 250 220.56 172 282.56 172 c 0
 308.56 172 351.961 188 372.366 284 c 0
179.812 -15 m 0
 167.812 -15 156.812 -15 147.662 -11 c 1
 121.985 -33 114.821 -62 107.595 -96 c 0
 92.5029 -167 161.339 -196 189.339 -196 c 0
 264.339 -196 368.841 -156 384.783 -81 c 0
 398.812 -15 298.449 -12 253.449 -12 c 0
 244.449 -12 235.236 -13 222.024 -14 c 0
 206.812 -15 190.812 -15 179.812 -15 c 0
528.409 383 m 0
 503.409 383 498.811 399 497.573 412 c 1
 495.849 418 494.124 424 485.124 424 c 0
 475.124 424 462.424 416 452.298 406 c 1
 480.347 378 492.907 343 481.004 287 c 0
 460.173 189 363.695 135 269.695 135 c 0
 238.695 135 208.258 140 189.384 150 c 1
 181.833 138 175.869 117 172.468 101 c 0
 163.966 61 188.415 49 206.415 49 c 0
 215.415 49 263.903 56 301.903 56 c 0
 464.903 56 489.387 -17 481.31 -55 c 0
 457.928 -165 291.411 -238 152.411 -238 c 0
 70.4111 -238 -9.57422 -205 9.34375 -116 c 0
 17.6328 -77 55.7734 -34 115.213 1 c 1
 90.8262 18 75.9277 42 82.7295 74 c 0
 89.3184 105 118.439 138.5 154.391 166.5 c 1
 122.811 192 109.651 243 120.066 292 c 0
 139.834 385 240.375 444 336.375 444 c 0
 381.375 444 410.462 435 426.337 425 c 1
 460.863 451 509.264 467 536.264 467 c 0
 574.264 467 584.95 442 580.911 423 c 0
 575.811 399 556.409 383 528.409 383 c 0
EndSplineSet
EndChar

StartChar: Gcommaaccent
Encoding: 290 290 54
Width: 727
VWidth: 999
Flags: HW
HStem: -231 17<330 351.215> -134 81<329.998 402.485> -10 44<306.541 502.262> 272 34<440 520.715 652.798 706> 437 21<571 624> 617 41<300.747 473.546>
VStem: 29 130<202 430.82> 405 32<-177.598 -107.5> 532 117<85.3282 262.125> 585 39<443.564 488.517>
LayerCount: 2
Fore
SplineSet
363.734 -53 m 0
 402.734 -53 417.87 -90 410.431 -125 c 0
 404.904 -151 371.75 -227 280.899 -231 c 1
 280.513 -214 l 1
 359.701 -199 375.029 -141 376.305 -135 c 0
 377.155 -131 376.793 -128 376.431 -125 c 1
 364.155 -131 353.518 -134 345.518 -134 c 0
 304.518 -134 300.831 -109 304.232 -93 c 0
 307.633 -77 327.734 -53 363.734 -53 c 0
697.676 229 m 2
 673.231 114 l 2
 670.043 99 672.555 92 679.067 85 c 1
 596.526 26 509.874 -10 383.874 -10 c 0
 170.874 -10 57.4824 134 94.4678 308 c 0
 141.229 528 344.862 658 522.862 658 c 0
 657.862 658 681.51 614 732.51 614 c 1
 723.182 556 720.278 500 718.588 445 c 1
 677.887 437 l 1
 669.867 531 640.147 617 513.147 617 c 0
 392.147 617 264.854 498 228.506 327 c 0
 196.41 176 250.227 34 411.227 34 c 0
 454.227 34 507.777 46 547.729 74 c 1
 580.676 229 l 2
 587.265 260 557.815 272 517.815 272 c 2
 503.815 272 l 2
 499.815 272 496.453 275 497.729 281 c 2
 502.617 304 l 1
 505.042 306 l 1
 505.042 306 601.617 304 640.617 304 c 0
 676.617 304 771.042 306 771.042 306 c 1
 772.617 304 l 1
 767.729 281 l 2
 766.453 275 762.815 272 757.815 272 c 2
 751.815 272 l 2
 710.815 272 703.414 256 697.676 229 c 2
EndSplineSet
Position2: "'cpsp' Versalabstaende 1" dx=2 dy=0 dh=5 dv=0
EndChar

StartChar: gcommaaccent
Encoding: 291 291 55
Width: 508
VWidth: 999
Flags: HW
HStem: -238 42<178.622 331.027> -12 68<200.45 373.262> 135 37<205.129 289.171> 409 35<196.474 280.87> 424 43<370.607 460> 511 82<199.561 272.708> 673 17<251.498 273>
VStem: 38 94<-154.282 -55.8943> 62 106<210.3 365.373> 71 84<55.4643 131.752> 166 32<584 635.93> 316 108<211.187 370.331> 406 91<-121.914 -39.1241>
LayerCount: 2
Fore
SplineSet
336.616 511 m 0
 297.616 511 282.481 548 290.133 584 c 0
 295.659 610 328.813 686 419.664 690 c 1
 420.051 673 l 1
 339.862 658 325.108 598 324.259 594 c 0
 323.408 590 323.771 587 323.133 584 c 1
 336.408 590 347.046 593 355.046 593 c 0
 395.046 593 399.732 568 396.119 551 c 0
 392.718 535 371.616 511 336.616 511 c 0
372.366 284 m 0
 389.158 363 366.936 409 319.936 409 c 0
 280.936 409 243.709 375 227.979 301 c 0
 217.139 250 220.56 172 282.56 172 c 0
 308.56 172 351.961 188 372.366 284 c 0
179.812 -15 m 0
 167.812 -15 156.812 -15 147.662 -11 c 1
 121.985 -33 114.821 -62 107.595 -96 c 0
 92.5029 -167 161.339 -196 189.339 -196 c 0
 264.339 -196 368.841 -156 384.783 -81 c 0
 398.812 -15 298.449 -12 253.449 -12 c 0
 244.449 -12 235.236 -13 222.024 -14 c 0
 206.812 -15 190.812 -15 179.812 -15 c 0
528.409 383 m 0
 503.409 383 498.811 399 497.573 412 c 1
 495.849 418 494.124 424 485.124 424 c 0
 475.124 424 462.424 416 452.298 406 c 1
 480.347 378 492.907 343 481.004 287 c 0
 460.173 189 363.695 135 269.695 135 c 0
 238.695 135 208.258 140 189.384 150 c 1
 181.833 138 175.869 117 172.468 101 c 0
 163.966 61 188.415 49 206.415 49 c 0
 215.415 49 263.903 56 301.903 56 c 0
 464.903 56 489.387 -17 481.31 -55 c 0
 457.928 -165 291.411 -238 152.411 -238 c 0
 70.4111 -238 -9.57422 -205 9.34375 -116 c 0
 17.6328 -77 55.7734 -34 115.213 1 c 1
 90.8262 18 75.9277 42 82.7295 74 c 0
 89.3184 105 118.439 138.5 154.391 166.5 c 1
 122.811 192 109.651 243 120.066 292 c 0
 139.834 385 240.375 444 336.375 444 c 0
 381.375 444 410.462 435 426.337 425 c 1
 460.863 451 509.264 467 536.264 467 c 0
 574.264 467 584.95 442 580.911 423 c 0
 575.811 399 556.409 383 528.409 383 c 0
EndSplineSet
EndChar

StartChar: Hcircumflex
Encoding: 292 292 56
Width: 723
VWidth: 999
Flags: HW
HStem: -2 34<24 92.7241 229.184 297 427 495.724 632.184 700> 321 46<222 502> 613 34<24 92.7241 229.184 297 427 495.724 632.184 700>
VStem: 99 123<37.5094 321 367 607.491> 502 123<37.5094 321 367 607.491>
LayerCount: 2
Fore
SplineSet
622.944 569 m 2
 629.746 601 617.297 613 577.297 613 c 2
 563.297 613 l 2
 559.297 613 555.935 616 556.998 621 c 2
 562.099 645 l 1
 564.524 647 l 1
 564.524 647 661.099 645 700.099 645 c 0
 736.099 645 837.524 647 837.524 647 c 1
 839.099 645 l 1
 833.998 621 l 2
 832.935 616 829.297 613 824.297 613 c 2
 810.297 613 l 2
 769.297 613 751.896 597 745.944 569 c 2
 641.154 76 l 2
 635.203 48 645.802 32 686.802 32 c 2
 700.802 32 l 2
 705.802 32 708.164 29 706.889 23 c 2
 702 0 l 1
 699.575 -2 l 1
 699.575 -2 599 0 563 0 c 0
 524 0 426.575 -2 426.575 -2 c 1
 425 0 l 1
 429.889 23 l 2
 431.164 29 435.802 32 439.802 32 c 2
 453.802 32 l 2
 493.802 32 511.353 44 518.154 76 c 2
 570.23 321 l 1
 290.23 321 l 1
 238.154 76 l 2
 232.203 48 242.802 32 283.802 32 c 2
 297.802 32 l 2
 302.802 32 305.164 29 303.889 23 c 2
 299 0 l 1
 296.575 -2 l 1
 296.575 -2 196 0 160 0 c 0
 121 0 23.5752 -2 23.5752 -2 c 1
 22 0 l 1
 26.8887 23 l 2
 28.1641 29 32.8018 32 36.8018 32 c 2
 50.8018 32 l 2
 90.8018 32 108.353 44 115.154 76 c 2
 219.944 569 l 2
 226.746 601 214.297 613 174.297 613 c 2
 160.297 613 l 2
 156.297 613 152.935 616 153.998 621 c 2
 159.099 645 l 1
 161.524 647 l 1
 161.524 647 258.099 645 297.099 645 c 0
 333.099 645 434.524 647 434.524 647 c 1
 436.099 645 l 1
 430.998 621 l 2
 429.935 616 426.297 613 421.297 613 c 2
 407.297 613 l 2
 366.297 613 348.896 597 342.944 569 c 2
 300.008 367 l 1
 580.008 367 l 1
 622.944 569 l 2
538.683 803 m 1
 561.031 767 589.441 736 619.702 709 c 1
 599.239 688 l 1
 564.064 706 534.104 725 506.417 750 c 1
 463.679 723 427.853 705 386.239 688 c 1
 376.702 709 l 1
 419.654 737 457.456 769 495.683 803 c 1
 538.683 803 l 1
EndSplineSet
Position2: "'cpsp' Versalabstaende 1" dx=2 dy=0 dh=5 dv=0
EndChar

StartChar: hcircumflex
Encoding: 293 293 57
Width: 550
VWidth: 999
Flags: HW
HStem: -2 34<19 37 517 534> 390 55<268.267 393> 638 34<17.016 55> 678 20<169.465 186.5>
VStem: 85 110<43.2797 355.227 381 635.227> 358 110<43.1478 384.199>
LayerCount: 2
Fore
SplineSet
462.847 832 m 1
 485.195 796 513.605 765 543.867 738 c 1
 523.403 717 l 1
 488.229 735 458.268 754 430.582 779 c 1
 387.843 752 352.017 734 310.403 717 c 1
 300.867 738 l 1
 343.818 766 381.62 798 419.847 832 c 1
 462.847 832 l 1
484.367 77 m 2
 478.415 49 492.881 39.9004 524.227 34 c 2
 534.802 32 l 2
 538.553 31.2998 542.164 29 540.889 23 c 2
 536 0 l 1
 533.575 -2 l 1
 533.575 -2 450 0 411 0 c 0
 376 0 296.575 -2 296.575 -2 c 1
 295 0 l 1
 299.889 23 l 2
 301.164 29 304.731 31.2002 309.802 32 c 2
 317.227 34 l 2
 349.897 42.7998 368.415 49 374.367 77 c 2
 420.704 295 l 2
 437.283 373 430.897 390 390.897 390 c 0
 372.897 390 320.496 374 267.481 341 c 1
 211.367 77 l 2
 205.415 49 221.261 43.0996 251.227 34 c 2
 257.802 32 l 2
 261.553 31.2998 265.164 29 263.889 23 c 2
 259 0 l 1
 256.575 -2 l 1
 256.575 -2 177 0 138 0 c 0
 103 0 18.5752 -2 18.5752 -2 c 1
 17 0 l 1
 21.8887 23 l 2
 23.1641 29 26.7314 31.2002 31.8018 32 c 2
 44.2266 34 l 2
 76.9531 39.2998 95.415 49 101.367 77 c 2
 204.669 563 l 2
 218.485 628 210.186 636 190.186 636 c 1
 158.611 638 l 2
 155.453 638.2 153.336 640 153.674 643 c 2
 156.838 672 l 1
 197.976 675 303.139 688 330.364 698 c 1
 339.364 698 345.727 695 344.239 688 c 2
 344.239 688 332.736 648 318.921 583 c 2
 275.984 381 l 1
 339.699 422 407.588 445 444.588 445 c 0
 530.588 445 550.685 389 528.366 284 c 2
 484.367 77 l 2
EndSplineSet
EndChar

StartChar: Hbar
Encoding: 294 294 58
Width: 723
VWidth: 999
Flags: HW
HStem: -2 34<24 92.7241 229.184 297 427 495.724 632.184 700> 321 46<222 502> 510 39<41 656> 613 34<24 92.7241 229.184 297 427 495.724 632.184 700>
VStem: 99 123<37.5094 321 367 607.491> 502 123<37.5094 321 367 607.491>
LayerCount: 2
Fore
SplineSet
622.944 569 m 2
 629.746 601 617.297 613 577.297 613 c 2
 563.297 613 l 2
 559.297 613 555.935 616 556.998 621 c 2
 562.099 645 l 1
 564.524 647 l 1
 564.524 647 661.099 645 700.099 645 c 0
 736.099 645 837.524 647 837.524 647 c 1
 839.099 645 l 1
 833.998 621 l 2
 832.935 616 829.297 613 824.297 613 c 2
 810.297 613 l 2
 769.297 613 751.896 597 745.944 569 c 2
 741.693 549 l 1
 772.693 549 l 1
 764.404 510 l 1
 733.404 510 l 1
 641.154 76 l 2
 635.203 48 645.802 32 686.802 32 c 2
 700.802 32 l 2
 705.802 32 708.164 29 706.889 23 c 2
 702 0 l 1
 699.575 -2 l 1
 699.575 -2 599 0 563 0 c 0
 524 0 426.575 -2 426.575 -2 c 1
 425 0 l 1
 429.889 23 l 2
 431.164 29 435.802 32 439.802 32 c 2
 453.802 32 l 2
 493.802 32 511.353 44 518.154 76 c 2
 570.23 321 l 1
 290.23 321 l 1
 238.154 76 l 2
 232.203 48 242.802 32 283.802 32 c 2
 297.802 32 l 2
 302.802 32 305.164 29 303.889 23 c 2
 299 0 l 1
 296.575 -2 l 1
 296.575 -2 196 0 160 0 c 0
 121 0 23.5752 -2 23.5752 -2 c 1
 22 0 l 1
 26.8887 23 l 2
 28.1641 29 32.8018 32 36.8018 32 c 2
 50.8018 32 l 2
 90.8018 32 108.353 44 115.154 76 c 2
 207.404 510 l 1
 149.404 510 l 1
 157.693 549 l 1
 215.693 549 l 1
 219.944 569 l 2
 226.746 601 214.297 613 174.297 613 c 2
 160.297 613 l 2
 156.297 613 152.935 616 153.998 621 c 2
 159.099 645 l 1
 161.524 647 l 1
 161.524 647 258.099 645 297.099 645 c 0
 333.099 645 434.524 647 434.524 647 c 1
 436.099 645 l 1
 430.998 621 l 2
 429.935 616 426.297 613 421.297 613 c 2
 407.297 613 l 2
 366.297 613 348.896 597 342.944 569 c 2
 338.693 549 l 1
 618.693 549 l 1
 622.944 569 l 2
610.404 510 m 1
 330.404 510 l 1
 300.008 367 l 1
 580.008 367 l 1
 610.404 510 l 1
EndSplineSet
Position2: "'cpsp' Versalabstaende 1" dx=2 dy=0 dh=5 dv=0
EndChar

StartChar: hbar
Encoding: 295 295 59
Width: 550
VWidth: 999
Flags: HW
HStem: -2 34<19 37 517 534> 390 55<268.267 393> 530 39<26 341> 638 34<17.016 55> 678 20<169.465 186.5>
VStem: 85 110<43.2797 355.227 381 635.227> 358 110<43.1478 384.199>
LayerCount: 2
Fore
SplineSet
484.367 77 m 2
 478.415 49 492.881 39.9004 524.227 34 c 2
 534.802 32 l 2
 538.553 31.2998 542.164 29 540.889 23 c 2
 536 0 l 1
 533.575 -2 l 1
 533.575 -2 450 0 411 0 c 0
 376 0 296.575 -2 296.575 -2 c 1
 295 0 l 1
 299.889 23 l 2
 301.164 29 304.731 31.2002 309.802 32 c 2
 317.227 34 l 2
 349.897 42.7998 368.415 49 374.367 77 c 2
 420.704 295 l 2
 437.283 373 430.897 390 390.897 390 c 0
 372.897 390 320.496 374 267.481 341 c 1
 211.367 77 l 2
 205.415 49 221.261 43.0996 251.227 34 c 2
 257.802 32 l 2
 261.553 31.2998 265.164 29 263.889 23 c 2
 259 0 l 1
 256.575 -2 l 1
 256.575 -2 177 0 138 0 c 0
 103 0 18.5752 -2 18.5752 -2 c 1
 17 0 l 1
 21.8887 23 l 2
 23.1641 29 26.7314 31.2002 31.8018 32 c 2
 44.2266 34 l 2
 76.9531 39.2998 95.415 49 101.367 77 c 2
 197.655 530 l 1
 138.655 530 l 1
 146.944 569 l 1
 205.944 569 l 1
 217.992 628.5 209.586 636 190.186 636 c 1
 158.611 638 l 2
 155.453 638.2 153.336 640 153.674 643 c 2
 156.838 672 l 1
 197.976 675 303.139 688 330.364 698 c 1
 339.364 698 345.727 695 344.239 688 c 2
 344.239 688 332.736 648 318.921 583 c 2
 315.944 569 l 1
 461.944 569 l 1
 453.655 530 l 1
 307.655 530 l 1
 275.984 381 l 1
 339.699 422 407.588 445 444.588 445 c 0
 530.588 445 550.685 389 528.366 284 c 2
 484.367 77 l 2
EndSplineSet
EndChar

StartChar: Itilde
Encoding: 296 296 60
Width: 319
VWidth: 999
Flags: HW
HStem: -2 34<24 92.7241 228.184 296> 613 34<24 92.7241 228.184 296> 687 58<176 259.543> 741 59<57.7435 144.285>
VStem: 22 25<695.76 721.045> 99 122<37.5094 607.491> 273 26<767.869 793.692>
LayerCount: 2
Fore
SplineSet
386.354 745 m 0
 408.354 745 423.268 754 447.683 803 c 1
 473.558 793 l 1
 446.104 725 407.602 685 359.602 685 c 0
 336.602 685 317.79 700 300.978 715 c 1
 283.741 728 266.504 741 248.505 741 c 0
 221.505 741 207.316 726 188.239 688 c 1
 163.939 696 l 1
 192.394 764 224.471 802 269.471 802 c 0
 300.471 802 320.069 786 336.669 770 c 0
 351.692 756 366.354 745 386.354 745 c 0
237.154 76 m 2
 231.203 48 241.802 32 282.802 32 c 2
 296.802 32 l 2
 301.802 32 304.164 29 302.889 23 c 2
 298 0 l 1
 295.575 -2 l 1
 295.575 -2 196 0 160 0 c 0
 121 0 23.5752 -2 23.5752 -2 c 1
 22 0 l 1
 26.8887 23 l 2
 28.1641 29 32.8018 32 36.8018 32 c 2
 50.8018 32 l 2
 90.8018 32 108.353 44 115.154 76 c 2
 219.944 569 l 2
 226.746 601 214.297 613 174.297 613 c 2
 160.297 613 l 2
 156.297 613 152.935 616 153.998 621 c 2
 159.099 645 l 1
 161.524 647 l 1
 161.524 647 258.099 645 297.099 645 c 0
 333.099 645 433.524 647 433.524 647 c 1
 435.099 645 l 1
 429.998 621 l 2
 428.935 616 425.297 613 420.297 613 c 2
 406.297 613 l 2
 365.297 613 347.896 597 341.944 569 c 2
 237.154 76 l 2
EndSplineSet
Position2: "'cpsp' Versalabstaende 1" dx=2 dy=0 dh=5 dv=0
EndChar

StartChar: itilde
Encoding: 297 297 61
Width: 286
VWidth: 999
Flags: HW
HStem: -2 34<37 54 258 274> 383 34<38 79> 427 20<191.25 208.219> 516 58<150.8 225.989> 570 59<44.3691 122.257>
VStem: 12.2 22.5<524.76 550.045> 101 110<41.5278 379> 238.1 23.4<596.869 622.692>
LayerCount: 2
Fore
SplineSet
319.607 574 m 0
 339.407 574 353.021 583 376.036 632 c 1
 399.11 622 l 1
 372.956 554 337.454 514 294.254 514 c 0
 273.554 514 256.942 529 242.131 544 c 1
 226.894 557 211.657 570 195.457 570 c 0
 171.157 570 158.069 555 140.092 517 c 1
 118.393 525 l 1
 145.446 593 175.123 631 215.623 631 c 0
 243.523 631 260.822 615 275.422 599 c 0
 288.646 585 301.607 574 319.607 574 c 0
279.295 321.3 m 2
 227.367 77 l 2
 221.415 49 236.881 39.9004 265.227 34 c 2
 274.802 32 l 2
 278.511 31.0996 282.164 29 280.889 23 c 2
 276 0 l 1
 273.575 -2 l 1
 273.575 -2 193 0 154 0 c 0
 118 0 36.5752 -2 36.5752 -2 c 1
 35 0 l 1
 39.8887 23 l 2
 41.1641 29 44.7529 31.2998 48.8018 32 c 2
 61.2266 34 l 2
 93.332 39.2002 111.415 49 117.367 77 c 2
 169.23 321 l 2
 179.858 371 173.661 377.6 159.559 379 c 2
 119.409 383 l 1
 124.636 417 l 1
 196.155 426.5 268.387 437 302.013 447 c 0
 304.413 447 308.885 446.4 308.375 444 c 2
 308.375 444 289.922 371.3 279.295 321.3 c 2
EndSplineSet
EndChar

StartChar: Imacron
Encoding: 298 298 62
Width: 319
VWidth: 999
Flags: HW
HStem: -2 34<24 92.7241 228.184 296> 613 34<24 92.7241 228.184 296> 731 48<10.8231 309.922>
VStem: 9 303<731.402 778.772> 99 122<37.5094 607.491>
LayerCount: 2
Fore
SplineSet
447.166 730 m 2
 173.166 730 l 2
 162.166 730 160.079 739 161.992 748 c 0
 164.543 760 180.794 780 193.794 780 c 2
 469.794 780 l 2
 479.794 780 481.881 771 480.181 763 c 0
 477.417 750 461.166 730 447.166 730 c 2
237.154 76 m 2
 231.203 48 241.802 32 282.802 32 c 2
 296.802 32 l 2
 301.802 32 304.164 29 302.889 23 c 2
 298 0 l 1
 295.575 -2 l 1
 295.575 -2 196 0 160 0 c 0
 121 0 23.5752 -2 23.5752 -2 c 1
 22 0 l 1
 26.8887 23 l 2
 28.1641 29 32.8018 32 36.8018 32 c 2
 50.8018 32 l 2
 90.8018 32 108.353 44 115.154 76 c 2
 219.944 569 l 2
 226.746 601 214.297 613 174.297 613 c 2
 160.297 613 l 2
 156.297 613 152.935 616 153.998 621 c 2
 159.099 645 l 1
 161.524 647 l 1
 161.524 647 258.099 645 297.099 645 c 0
 333.099 645 433.524 647 433.524 647 c 1
 435.099 645 l 1
 429.998 621 l 2
 428.935 616 425.297 613 420.297 613 c 2
 406.297 613 l 2
 365.297 613 347.896 597 341.944 569 c 2
 237.154 76 l 2
EndSplineSet
Position2: "'cpsp' Versalabstaende 1" dx=2 dy=0 dh=5 dv=0
EndChar

StartChar: imacron
Encoding: 299 299 63
Width: 286
VWidth: 999
Flags: HW
HStem: -2 34<37 54 258 274> 383 34<38 79> 427 20<191.25 208.219> 536 48<0.140752 269.33>
VStem: -1.5 272.7<536.402 583.772> 101 110<41.5278 379>
LayerCount: 2
Fore
SplineSet
366.918 535 m 2
 120.317 535 l 2
 110.418 535 108.73 544 110.644 553 c 0
 113.194 565 128.245 585 139.945 585 c 2
 388.346 585 l 2
 397.346 585 399.032 576 397.332 568 c 0
 394.569 555 379.518 535 366.918 535 c 2
279.295 321.3 m 2
 227.367 77 l 2
 221.415 49 236.881 39.9004 265.227 34 c 2
 274.802 32 l 2
 278.511 31.0996 282.164 29 280.889 23 c 2
 276 0 l 1
 273.575 -2 l 1
 273.575 -2 193 0 154 0 c 0
 118 0 36.5752 -2 36.5752 -2 c 1
 35 0 l 1
 39.8887 23 l 2
 41.1641 29 44.7529 31.2998 48.8018 32 c 2
 61.2266 34 l 2
 93.332 39.2002 111.415 49 117.367 77 c 2
 169.23 321 l 2
 179.858 371 173.661 377.6 159.559 379 c 2
 119.409 383 l 1
 124.636 417 l 1
 196.155 426.5 268.387 437 302.013 447 c 0
 304.413 447 308.885 446.4 308.375 444 c 2
 308.375 444 289.922 371.3 279.295 321.3 c 2
EndSplineSet
EndChar

StartChar: Ibreve
Encoding: 300 300 64
Width: 319
VWidth: 999
Flags: HW
HStem: -2 34<24 92.7241 228.184 296> 613 34<24 92.7241 228.184 296> 692 52<69.7383 227.296> 785 20<13 45 253.5 284>
VStem: 13 28<780.047 805> 99 122<37.5094 607.491> 257 27<779.76 805>
LayerCount: 2
Fore
SplineSet
455.108 805 m 1
 434.017 734 362.089 692 296.089 692 c 0
 223.089 692 174.229 735 184.108 805 c 1
 212.108 805 l 1
 211.818 766 254.142 744 307.143 744 c 0
 356.143 744 412.818 766 428.108 805 c 1
 455.108 805 l 1
237.154 76 m 2
 231.203 48 241.802 32 282.802 32 c 2
 296.802 32 l 2
 301.802 32 304.164 29 302.889 23 c 2
 298 0 l 1
 295.575 -2 l 1
 295.575 -2 196 0 160 0 c 0
 121 0 23.5752 -2 23.5752 -2 c 1
 22 0 l 1
 26.8887 23 l 2
 28.1641 29 32.8018 32 36.8018 32 c 2
 50.8018 32 l 2
 90.8018 32 108.353 44 115.154 76 c 2
 219.944 569 l 2
 226.746 601 214.297 613 174.297 613 c 2
 160.297 613 l 2
 156.297 613 152.935 616 153.998 621 c 2
 159.099 645 l 1
 161.524 647 l 1
 161.524 647 258.099 645 297.099 645 c 0
 333.099 645 433.524 647 433.524 647 c 1
 435.099 645 l 1
 429.998 621 l 2
 428.935 616 425.297 613 420.297 613 c 2
 406.297 613 l 2
 365.297 613 347.896 597 341.944 569 c 2
 237.154 76 l 2
EndSplineSet
Position2: "'cpsp' Versalabstaende 1" dx=2 dy=0 dh=5 dv=0
EndChar

StartChar: ibreve
Encoding: 301 301 65
Width: 286
VWidth: 999
Flags: HW
HStem: -2 34<37 54 258 274> 383 34<38 79> 427 20<191.25 208.219> 500 62<75.7674 197.283>
VStem: 14.7 28.8<606.278 641.062> 101 110<41.5278 379> 229.8 27.9<607.121 641.161>
LayerCount: 2
Fore
SplineSet
179.125 655 m 1
 169.446 601 199.645 561 256.344 561 c 0
 298.645 561 356.321 591 372.625 655 c 1
 398.236 640 l 1
 366.918 535 288.641 497 242.74 497 c 0
 169.841 497 135.319 559 146.236 640 c 1
 179.125 655 l 1
279.295 321.3 m 2
 227.367 77 l 2
 221.415 49 236.881 39.9004 265.227 34 c 2
 274.802 32 l 2
 278.511 31.0996 282.164 29 280.889 23 c 2
 276 0 l 1
 273.575 -2 l 1
 273.575 -2 193 0 154 0 c 0
 118 0 36.5752 -2 36.5752 -2 c 1
 35 0 l 1
 39.8887 23 l 2
 41.1641 29 44.7529 31.2998 48.8018 32 c 2
 61.2266 34 l 2
 93.332 39.2002 111.415 49 117.367 77 c 2
 169.23 321 l 2
 179.858 371 173.661 377.6 159.559 379 c 2
 119.409 383 l 1
 124.636 417 l 1
 196.155 426.5 268.387 437 302.013 447 c 0
 304.413 447 308.885 446.4 308.375 444 c 2
 308.375 444 289.922 371.3 279.295 321.3 c 2
EndSplineSet
EndChar

StartChar: Iogonek
Encoding: 302 302 66
Width: 319
VWidth: 999
Flags: HW
HStem: -225 39<153.181 237.134> -2 34<24 92.7241 228.184 296> -1 25<222.256 258.88> 613 34<24 92.7241 228.184 296>
VStem: 79 60<-174.091 -75.5789> 99 122<37.5094 607.491>
LayerCount: 2
Fore
SplineSet
124.175 -225 m 0
 71.1748 -225 37.7637 -194 49.2422 -140 c 0
 59.4238 -92.0996 112.622 -33.2998 180.778 -0.0996094 c 1
 172.7 -0 165.6 0 160 0 c 0
 121 0 23.5752 -2 23.5752 -2 c 1
 22 0 l 1
 26.8887 23 l 2
 28.1641 29 32.8018 32 36.8018 32 c 2
 50.8018 32 l 2
 90.8018 32 108.353 44 115.154 76 c 2
 219.944 569 l 2
 226.746 601 214.297 613 174.297 613 c 2
 160.297 613 l 2
 156.297 613 152.935 616 153.998 621 c 2
 159.099 645 l 1
 161.524 647 l 1
 161.524 647 258.099 645 297.099 645 c 0
 333.099 645 433.524 647 433.524 647 c 1
 435.099 645 l 1
 429.998 621 l 2
 428.935 616 425.297 613 420.297 613 c 2
 406.297 613 l 2
 365.297 613 347.896 597 341.944 569 c 2
 237.154 76 l 2
 231.203 48 241.802 32 282.802 32 c 2
 296.802 32 l 2
 301.802 32 304.164 29 302.889 23 c 2
 298 0 l 1
 295.575 -2 l 1
 263.702 -1.40039 l 1
 187.948 -7.2998 122.378 -78.2002 112.005 -127 c 0
 105.203 -159 121.465 -186 157.465 -186 c 0
 187.465 -186 211.652 -171 235.116 -150 c 1
 248.416 -158 l 1
 214.426 -205 160.175 -225 124.175 -225 c 0
EndSplineSet
Position2: "'cpsp' Versalabstaende 1" dx=2 dy=0 dh=5 dv=0
EndChar

StartChar: iogonek
Encoding: 303 303 67
Width: 286
VWidth: 999
Flags: HW
HStem: -225 39<121.213 203.704> -2 34<37 54 258 274> -1 25<188.395 224.88> 387 30<38 79> 427 20<191.25 208.219> 511 120<108.745 201.255>
VStem: 46 60<-174.091 -75.5789> 101 110<41.5278 383 522.108 619.892>
LayerCount: 2
Fore
SplineSet
91.1748 -225 m 0
 37.1748 -225 4.76367 -194 16.2422 -140 c 0
 26.4443 -92 79.2432 -33.2002 147.2 0 c 1
 108.657 -0.200195 36.5752 -2 36.5752 -2 c 2
 35 0 l 1
 39.8887 23 l 2
 41.1641 29 44.7529 31.2998 48.8018 32 c 2
 61.2266 34 l 2
 93.332 39.2002 111.415 49 117.367 77 c 2
 169.23 321 l 2
 179.858 371 174.196 382 160.409 383 c 2
 120.26 387 l 1
 124.636 417 l 1
 196.155 426.5 268.387 437 302.013 447 c 0
 304.413 447 308.885 446.4 308.375 444 c 2
 308.375 444 289.922 371.3 279.295 321.3 c 2
 227.367 77 l 2
 221.415 49 236.881 39.9004 265.227 34 c 2
 274.802 32 l 2
 278.511 31.0996 282.164 29 280.889 23 c 2
 276 0 l 1
 273.575 -2 l 1
 273.575 -2 256.46 -1.59961 234.267 -1.09961 c 1
 156.564 -4.40039 89.5908 -77.2002 79.0049 -127 c 0
 72.2031 -159 88.4648 -186 124.465 -186 c 0
 154.465 -186 177.652 -171 201.116 -150 c 1
 215.416 -158 l 1
 181.426 -205 126.175 -225 91.1748 -225 c 0
216.37 571 m 0
 223.384 604 256.123 631 289.123 631 c 0
 322.123 631 343.384 604 336.37 571 c 0
 329.355 538 296.616 511 263.616 511 c 0
 230.616 511 209.355 538 216.37 571 c 0
EndSplineSet
EndChar

StartChar: Idotaccent
Encoding: 304 304 68
Width: 319
VWidth: 999
Flags: HW
HStem: -2 34<24 92.7241 228.184 296> 613 34<24 92.7241 228.184 296> 691 120<111.745 204.255>
VStem: 98 120<704.745 797.255> 99 122<37.5094 607.491>
LayerCount: 2
Fore
SplineSet
255.63 751 m 0
 262.856 785 296.809 813 330.809 813 c 0
 364.809 813 386.856 785 379.63 751 c 0
 372.403 717 338.451 689 304.451 689 c 0
 270.451 689 248.403 717 255.63 751 c 0
237.154 76 m 2
 231.203 48 241.802 32 282.802 32 c 2
 296.802 32 l 2
 301.802 32 304.164 29 302.889 23 c 2
 298 0 l 1
 295.575 -2 l 1
 295.575 -2 196 0 160 0 c 0
 121 0 23.5752 -2 23.5752 -2 c 1
 22 0 l 1
 26.8887 23 l 2
 28.1641 29 32.8018 32 36.8018 32 c 2
 50.8018 32 l 2
 90.8018 32 108.353 44 115.154 76 c 2
 219.944 569 l 2
 226.746 601 214.297 613 174.297 613 c 2
 160.297 613 l 2
 156.297 613 152.935 616 153.998 621 c 2
 159.099 645 l 1
 161.524 647 l 1
 161.524 647 258.099 645 297.099 645 c 0
 333.099 645 433.524 647 433.524 647 c 1
 435.099 645 l 1
 429.998 621 l 2
 428.935 616 425.297 613 420.297 613 c 2
 406.297 613 l 2
 365.297 613 347.896 597 341.944 569 c 2
 237.154 76 l 2
EndSplineSet
Substitution2: "LinLibertine-'c2sc' Versale nach Kapitaelchen 1" idotaccent.sc
Position2: "'cpsp' Versalabstaende 1" dx=2 dy=0 dh=5 dv=0
EndChar

StartChar: afii10057
Encoding: 1032 1032 69
Width: 421
VWidth: 999
Flags: HW
HStem: -12 45<128.368 189.227> 618 27<104 186.714 340.114 407>
VStem: 27 97<34.3298 111.783> 208 122<79.5665 604.618>
LayerCount: 2
Fore
SplineSet
159.015 33 m 0
 208.015 33 226.705 88 246.473 181 c 2
 326.819 559 l 2
 333.195 589 317.36 618 277.36 618 c 2
 241.36 618 l 2
 236.36 618 233.998 621 235.061 626 c 2
 239.099 645 l 1
 241.312 646 l 1
 241.312 646 386.099 645 425.099 645 c 0
 460.099 645 544.312 646 544.312 646 c 1
 546.099 645 l 1
 542.061 626 l 2
 540.998 621 537.36 618 532.36 618 c 2
 515.36 618 l 2
 474.36 618 457.959 602 452.008 574 c 2
 373.149 203 l 2
 335.102 24 233.449 -12 170.449 -12 c 0
 105.449 -12 31.8887 23 41.2412 67 c 0
 46.3428 91 64.7197 121 97.7197 121 c 0
 129.72 121 141.83 98 139.729 74 c 0
 138.216 57 137.015 33 159.015 33 c 0
EndSplineSet
EndChar

StartChar: afii10061
Encoding: 1036 1036 70
Width: 602
VWidth: 999
Flags: HW
HStem: -2 34<24 92.7241 228.184 296> 0 33<542.263 589> 320 48<205 297.793> 585 66<442.159 511.033> 613 34<24 92.7241 228.184 296>
VStem: 99 122<37.5094 607.491>
LayerCount: 2
Fore
SplineSet
601.297 820 m 1
 652.243 768 l 1
 495.915 710 l 2
 473.002 701 459.364 698 450.364 698 c 0
 441.364 698 437.428 703 439.553 713 c 0
 441.041 720 444.104 725 459.017 734 c 2
 601.297 820 l 1
237.154 76 m 2
 231.203 48 241.802 32 282.802 32 c 2
 296.802 32 l 2
 301.802 32 304.164 29 302.889 23 c 2
 298 0 l 1
 295.575 -2 l 1
 295.575 -2 196 0 160 0 c 0
 121 0 23.5752 -2 23.5752 -2 c 1
 22 0 l 1
 26.8887 23 l 2
 28.1641 29 32.8018 32 36.8018 32 c 2
 50.8018 32 l 2
 90.8018 32 108.353 44 115.154 76 c 2
 219.944 569 l 2
 226.746 601 214.297 613 174.297 613 c 2
 160.297 613 l 2
 156.297 613 152.935 616 153.998 621 c 2
 159.099 645 l 1
 161.524 647 l 1
 161.524 647 258.099 645 297.099 645 c 0
 333.099 645 433.524 647 433.524 647 c 1
 435.099 645 l 1
 429.998 621 l 2
 428.935 616 425.297 613 420.297 613 c 2
 406.297 613 l 2
 365.297 613 347.896 597 341.944 569 c 2
 299.242 368.1 l 1
 329.748 368.6 365.601 371.2 388.409 383 c 0
 448.424 416 473.728 488 492.631 544 c 0
 512.959 602 581.374 651 644.374 651 c 0
 692.374 651 717.636 624 712.746 601 c 0
 704.882 564 677.756 554 658.756 554 c 0
 646.756 554 633.819 559 627.52 567 c 1
 620.857 578 610.346 585 599.346 585 c 0
 578.346 585 555.457 562 544.293 533 c 0
 520.901 470 483.221 368 405.907 343 c 1
 468.907 343 476.917 296 488.163 236 c 0
 512.979 103.4 548.015 33 581.015 33 c 2
 590.015 33 l 2
 594.015 33 596.377 30 595.102 24 c 2
 590.213 1 l 1
 588.787 -1 l 1
 503 0 l 2
 431.213 1 417.643 70.2998 402.26 180 c 0
 388.715 276.7 380.847 315.9 288.954 319.7 c 1
 237.154 76 l 2
EndSplineSet
LCarets2: 1 0 
EndChar

StartChar: uni040D
Encoding: 1037 1037 71
Width: 783
VWidth: 999
Flags: HW
HStem: -1 34<20 99.155 235.539 315 468 548.095 683.276 765> 613 32<20 99.4609 236.442 315 468 547.537 685.451 764>
VStem: 106 123<38.5094 78 146 607.764> 555 122<38.2361 493 561 607.252>
DStem2: 229 146 229 78 0.617738 0.786384<0 474.258>
LayerCount: 2
Fore
SplineSet
471.871 818 m 1
 575.017 734 l 2
 584.316 726 587.041 720 585.553 713 c 0
 583.428 703 577.364 698 567.364 698 c 0
 559.364 698 547.002 701 526.915 710 c 2
 386.307 773 l 1
 471.871 818 l 1
797.944 569 m 2
 693.154 76 l 2
 686.565 45 699.015 33 739.015 33 c 2
 765.015 33 l 2
 770.015 33 773.377 30 772.102 24 c 2
 767.213 1 l 1
 764.787 -1 l 1
 764.787 -1 660.213 1 621.213 1 c 0
 585.213 1 467.787 -1 467.787 -1 c 1
 466.213 1 l 1
 471.102 24 l 2
 472.377 30 476.015 33 481.015 33 c 2
 507.015 33 l 2
 549.015 33 565.203 48 571.154 76 c 2
 659.79 493 l 1
 245.579 78 l 1
 245.367 77 l 2
 238.777 46 250.015 33 290.015 33 c 2
 317.015 33 l 2
 320.015 33 323.377 30 322.102 24 c 2
 317.213 1 l 1
 314.787 -1 l 1
 314.787 -1 208.213 1 169.213 1 c 0
 134.213 1 19.7871 -1 19.7871 -1 c 1
 18.2129 1 l 1
 23.1016 24 l 2
 24.377 30 28.0146 33 32.0146 33 c 2
 59.0146 33 l 2
 100.015 33 116.415 49 122.367 77 c 2
 227.157 570 l 2
 233.746 601 222.297 613 182.297 613 c 2
 155.297 613 l 2
 151.297 613 148.935 616 149.998 621 c 2
 155.099 645 l 1
 157.312 646 l 1
 157.312 646 263.887 644 303.887 644 c 0
 338.887 644 452.312 646 452.312 646 c 1
 454.099 645 l 1
 448.998 621 l 2
 447.935 616 444.297 613 440.297 613 c 2
 413.297 613 l 2
 372.297 613 356.108 598 350.157 570 c 2
 260.033 146 l 1
 674.244 561 l 1
 675.944 569 l 2
 682.534 600 670.297 613 630.297 613 c 2
 604.297 613 l 2
 600.297 613 596.935 616 597.998 621 c 2
 603.099 645 l 1
 605.312 646 l 1
 605.312 646 714.887 644 753.887 644 c 0
 789.887 644 901.524 647 901.524 647 c 1
 903.099 645 l 1
 898.21 622 l 2
 896.935 616 893.297 613 888.297 613 c 2
 862.297 613 l 2
 821.297 613 803.896 597 797.944 569 c 2
EndSplineSet
LCarets2: 1 0 
EndChar

StartChar: afii10062
Encoding: 1038 1038 72
Width: 621
VWidth: 999
Flags: HW
HStem: -22 64<180.643 263.693> 613 32<1 59.1675 206.362 277 412 484.667 556.138 620> 697 31<283.536 374.309>
VStem: 204 70<735.681 802.162> 383 70<734.774 802.125>
DStem2: 212 575 88 559 0.419188 -0.907899<-30.5778 352.637> 293 115 383 161 0.361446 0.932393<-71.674 0 153.097 525.366>
LayerCount: 2
Fore
SplineSet
617.519 774 m 0
 606.466 722 539.152 697 476.152 697 c 0
 410.152 697 357.253 721 368.307 773 c 0
 372.982 795 386.896 804 413.896 804 c 0
 434.896 804 441.494 788 438.307 773 c 0
 437.881 771 435.818 766 435.605 765 c 0
 431.354 745 450.741 728 483.741 728 c 0
 513.741 728 541.717 742 546.394 764 c 0
 546.605 765 547.094 772 547.307 773 c 0
 550.494 788 562.896 804 585.896 804 c 0
 611.896 804 621.77 794 617.519 774 c 0
224.928 42 m 0
 254.928 42 275.628 50 317.444 115 c 1
 206.819 559 l 2
 201.849 578.9 189.297 613 140.297 613 c 0
 134.297 613 130.935 616 131.998 621 c 2
 137.099 645 l 1
 138.312 646 l 1
 138.312 646 201.099 645 242.099 645 c 0
 292.099 645 414.312 646 414.312 646 c 1
 416.099 645 l 1
 410.998 621 l 2
 409.935 616 406.297 613 402.297 613 c 2
 364.297 613 l 2
 331.297 613 328.959 602 334.22 575 c 1
 411.989 254 l 1
 601.22 575 l 2
 622.659 610 617.297 613 576.297 613 c 2
 546.297 613 l 2
 543.297 613 540.935 616 541.998 621 c 2
 547.099 645 l 1
 549.312 646 l 1
 549.312 646 635.099 645 677.099 645 c 0
 709.099 645 757.312 646 757.312 646 c 1
 759.099 645 l 1
 753.998 621 l 2
 752.723 615 745.297 613 741.297 613 c 0
 695.297 613 683.81 606 660.307 566 c 2
 417.222 161 l 2
 351.053 52 280.324 -22 190.324 -22 c 0
 130.324 -22 85.7002 8 92.502 40 c 0
 98.4541 68 115.705 88 147.705 88 c 0
 172.705 88 186.367 77 192.816 65 c 0
 198.903 56 209.928 42 224.928 42 c 0
EndSplineSet
LCarets2: 1 0 
EndChar

StartChar: afii10020
Encoding: 1043 1043 73
Width: 511
VWidth: 999
Flags: HW
HStem: -1 34<24 93.4759 228.845 296> 599 47<226.022 406.689> 613 33<26 97.6381>
VStem: 100 122<38.5094 596.457> 473 39<471.385 516.618>
LayerCount: 2
Fore
SplineSet
116.367 77 m 2
 221.795 573 l 2
 228.597 605 224.297 613 200.297 613 c 2
 168.297 613 l 2
 156.297 613 153.147 617 154.848 625 c 2
 158.674 643 l 1
 163.312 646 l 1
 625.312 646 l 1
 615.195 589 612.805 526 612.539 473 c 1
 571.626 464 l 1
 568.592 525 548.321 599 469.321 599 c 2
 383.321 599 l 2
 362.321 599 345.921 583 339.544 553 c 2
 238.367 77 l 2
 232.415 49 242.015 33 283.015 33 c 2
 298.015 33 l 2
 302.015 33 304.377 30 303.102 24 c 2
 298.213 1 l 1
 295.787 -1 l 1
 295.787 -1 196.213 1 161.213 1 c 0
 122.213 1 23.7871 -1 23.7871 -1 c 1
 22.2129 1 l 1
 27.1016 24 l 2
 28.377 30 33.0146 33 38.0146 33 c 2
 52.0146 33 l 2
 91.0146 33 109.565 45 116.367 77 c 2
EndSplineSet
EndChar

StartChar: afii10021
Encoding: 1044 1044 74
Width: 696
VWidth: 999
Flags: HW
HStem: 0 44<203.009 462.408> 600 46<287.63 462.754> 611 35<149 219.411 590.322 660>
VStem: 34 43<-141 -76.4499> 464 122<44.8806 598.625> 620 43<-141 -83.4829>
LayerCount: 2
Fore
SplineSet
123.053 52 m 0
 153.005 80 186.82 145 251.979 301 c 1
 298.211 415 330.829 512 344.433 576 c 0
 349.534 600 342.872 611 316.872 611 c 2
 286.872 611 l 2
 281.872 611 279.935 616 280.785 620 c 2
 284.398 637 l 2
 285.249 641 292.312 646 299.312 646 c 2
 792.312 646 l 2
 795.312 646 796.461 642 795.823 639 c 2
 791.785 620 l 2
 790.51 614 785.872 611 781.872 611 c 2
 752.872 611 l 2
 720.872 611 712.471 595 705.031 560 c 2
 603.643 83 l 2
 595.777 46 616.015 33 633.015 33 c 0
 655.015 33 660.251 20 657.7 8 c 2
 633.029 -141 l 1
 606.029 -141 590.029 -141 590.029 -141 c 1
 589.933 -85 567 0 487 0 c 2
 202 0 l 2
 118 0 69.082 -89 47.0293 -141 c 1
 4.0293 -141 l 1
 42.7002 8 l 2
 45.251 20 59.0146 33 69.0146 33 c 0
 89.0146 33 102.015 33 123.053 52 c 0
553.534 600 m 2
 451.534 600 l 2
 424.534 600 410.559 586 403.244 561 c 0
 373.363 459 338.633 361 311.279 293 c 0
 264.21 176 220.43 82 215.966 61 c 0
 213.415 49 224.353 44 239.353 44 c 2
 436.353 44 l 2
 460.353 44 473.99 47 481.643 83 c 2
 583.244 561 l 2
 589.621 591 585.534 600 553.534 600 c 2
EndSplineSet
EndChar

StartChar: afii10024
Encoding: 1046 1046 75
Width: 897
VWidth: 999
Flags: HW
HStem: -2 34<313 381.724 517.184 585> -1 34<9 55.737 842.263 889> 320 48<300.207 393 505 597.069> 585 66<86.2285 155.465 741.912 811.03> 613 34<313 381.724 517.184 585>
VStem: 388 122<37.5094 607.491>
LayerCount: 2
Fore
SplineSet
888.787 -1 m 1
 803 0 l 2
 731.213 1 716.879 70 702.26 180 c 1
 687.201 280.4 679.263 318.8 578.019 320 c 1
 526.154 76 l 2
 520.203 48 530.802 32 571.802 32 c 2
 585.802 32 l 2
 590.802 32 593.164 29 591.889 23 c 2
 587 0 l 1
 584.575 -2 l 1
 584.575 -2 485 0 449 0 c 0
 410 0 312.575 -2 312.575 -2 c 1
 311 0 l 1
 315.889 23 l 2
 317.164 29 321.802 32 325.802 32 c 2
 339.802 32 l 2
 379.802 32 397.353 44 404.154 76 c 2
 456.019 320 l 1
 353.263 318.8 329.18 280.3 272.26 180 c 0
 209.879 70 167.213 1 95 0 c 2
 8.78711 -1 l 1
 7.21289 1 l 1
 12.1016 24 l 2
 13.377 30 18.0146 33 22.0146 33 c 2
 31.0146 33 l 2
 64.0146 33 128.979 103.4 210.163 236 c 0
 246.917 296 275.332 345 337.332 345 c 1
 270.858 371 275.901 470 280.293 533 c 0
 281.457 562 268.346 585 247.346 585 c 0
 235.346 585 222.857 578 210.52 567 c 0
 201.819 559 186.756 554 174.756 554 c 0
 155.756 554 132.882 564 140.746 601 c 0
 145.636 624 182.374 651 229.374 651 c 0
 292.374 651 340.959 602 335.631 544 c 1
 331.728 488 326.424 416 372.409 383 c 0
 392.382 369.7 433.042 368.1 466.221 368 c 1
 508.944 569 l 2
 515.746 601 503.297 613 463.297 613 c 2
 449.297 613 l 2
 445.297 613 441.935 616 442.998 621 c 2
 448.099 645 l 1
 450.524 647 l 1
 450.524 647 547.099 645 586.099 645 c 0
 622.099 645 722.524 647 722.524 647 c 1
 724.099 645 l 1
 718.998 621 l 2
 717.935 616 714.297 613 709.297 613 c 2
 695.297 613 l 2
 654.297 613 636.896 597 630.944 569 c 2
 588.221 368 l 1
 620.643 368.1 662.682 369.7 687.409 383 c 0
 748.424 416 773.728 488 792.631 544 c 0
 812.959 602 881.374 651 944.374 651 c 0
 992.374 651 1017.64 624 1012.75 601 c 0
 1004.88 564 976.756 554 957.756 554 c 0
 946.756 554 933.819 559 927.52 567 c 1
 920.857 578 910.346 585 898.346 585 c 0
 878.346 585 854.457 562 844.293 533 c 0
 820.901 470 783.858 371 706.332 345 c 1
 768.332 345 776.917 296 788.163 236 c 0
 812.979 103.4 848.015 33 881.015 33 c 2
 890.015 33 l 2
 894.015 33 896.377 30 895.102 24 c 2
 890.213 1 l 1
 888.787 -1 l 1
EndSplineSet
EndChar

StartChar: afii10025
Encoding: 1047 1047 76
Width: 573
VWidth: 999
Flags: HW
HStem: -12 42<166.549 331.064> 335 39<160.004 305.936> 624 38<176.762 323.445>
VStem: 30 104<67.2217 151.592> 66 39<463 553.349> 367 119<450.826 581.599> 395 132<103.835 267.959>
LayerCount: 2
Fore
SplineSet
248.377 30 m 0
 318.377 30 406.903 56 432.41 176 c 0
 443.25 227 447.206 335 330.206 335 c 2
 247.206 335 l 2
 236.206 335 232.694 342 235.245 354 c 0
 237.583 365 244.496 374 255.496 374 c 2
 302.496 374 l 2
 421.496 374 462.863 451 474.554 506 c 0
 490.07 579 455.636 624 398.636 624 c 0
 264.636 624 219.355 538 203.414 463 c 1
 164.414 463 l 1
 208.312 646 l 1
 338.312 646 369.713 662 410.713 662 c 0
 529.713 662 617.36 618 596.954 522 c 0
 578.462 435 466.008 367 447.521 360 c 1
 513.27 340 590.555 299 567.811 192 c 0
 537.628 50 394.449 -12 256.449 -12 c 0
 175.449 -12 111.039 19 85.1396 43 c 0
 62.6035 64 49.3428 91 55.082 118 c 0
 60.6084 144 82.0723 165 105.072 165 c 0
 133.072 165 156.309 152 159.507 120 c 0
 168.203 48 172.377 30 248.377 30 c 0
EndSplineSet
EndChar

StartChar: afii10026
Encoding: 1048 1048 77
Width: 783
VWidth: 999
Flags: HW
HStem: -1 34<20 99.155 235.539 315 468 548.095 683.276 765> 613 32<20 99.4609 236.442 315 468 547.537 685.451 764>
VStem: 106 123<38.5094 78 146 607.764> 555 122<38.2361 493 561 607.252>
DStem2: 229 146 229 78 0.617738 0.786384<0 474.258>
LayerCount: 2
Fore
SplineSet
797.944 569 m 2
 693.154 76 l 2
 686.565 45 699.015 33 739.015 33 c 2
 765.015 33 l 2
 770.015 33 773.377 30 772.102 24 c 2
 767.213 1 l 1
 764.787 -1 l 1
 764.787 -1 660.213 1 621.213 1 c 0
 585.213 1 467.787 -1 467.787 -1 c 1
 466.213 1 l 1
 471.102 24 l 2
 472.377 30 476.015 33 481.015 33 c 2
 507.015 33 l 2
 549.015 33 565.203 48 571.154 76 c 2
 659.79 493 l 1
 245.579 78 l 1
 245.367 77 l 2
 238.777 46 250.015 33 290.015 33 c 2
 317.015 33 l 2
 320.015 33 323.377 30 322.102 24 c 2
 317.213 1 l 1
 314.787 -1 l 1
 314.787 -1 208.213 1 169.213 1 c 0
 134.213 1 19.7871 -1 19.7871 -1 c 1
 18.2129 1 l 1
 23.1016 24 l 2
 24.377 30 28.0146 33 32.0146 33 c 2
 59.0146 33 l 2
 100.015 33 116.415 49 122.367 77 c 2
 227.157 570 l 2
 233.746 601 222.297 613 182.297 613 c 2
 155.297 613 l 2
 151.297 613 148.935 616 149.998 621 c 2
 155.099 645 l 1
 157.312 646 l 1
 157.312 646 263.887 644 303.887 644 c 0
 338.887 644 452.312 646 452.312 646 c 1
 454.099 645 l 1
 448.998 621 l 2
 447.935 616 444.297 613 440.297 613 c 2
 413.297 613 l 2
 372.297 613 356.108 598 350.157 570 c 2
 260.033 146 l 1
 674.244 561 l 1
 675.944 569 l 2
 682.534 600 670.297 613 630.297 613 c 2
 604.297 613 l 2
 600.297 613 596.935 616 597.998 621 c 2
 603.099 645 l 1
 605.312 646 l 1
 605.312 646 714.887 644 753.887 644 c 0
 789.887 644 901.524 647 901.524 647 c 1
 903.099 645 l 1
 898.21 622 l 2
 896.935 616 893.297 613 888.297 613 c 2
 862.297 613 l 2
 821.297 613 803.896 597 797.944 569 c 2
EndSplineSet
EndChar

StartChar: afii10027
Encoding: 1049 1049 78
Width: 783
VWidth: 999
Flags: HW
HStem: -1 34<20 99.155 235.539 315 468 548.095 683.276 765> 613 32<20 99.4609 236.442 315 468 547.537 685.451 764> 697 31<349.536 440.309>
VStem: 106 123<38.5094 78 146 607.764> 270 70<735.681 802.162> 449 70<734.774 802.125> 555 122<38.2361 493 561 607.252>
DStem2: 229 146 229 78 0.617738 0.786384<0 474.258>
LayerCount: 2
Fore
SplineSet
683.519 774 m 0
 672.466 722 605.152 697 542.152 697 c 0
 476.152 697 423.253 721 434.307 773 c 0
 438.982 795 452.896 804 479.896 804 c 0
 500.896 804 507.494 788 504.307 773 c 0
 503.881 771 501.818 766 501.605 765 c 0
 497.354 745 516.741 728 549.741 728 c 0
 579.741 728 607.717 742 612.394 764 c 0
 612.605 765 613.094 772 613.307 773 c 0
 616.494 788 628.896 804 651.896 804 c 0
 677.896 804 687.77 794 683.519 774 c 0
797.944 569 m 2
 693.154 76 l 2
 686.565 45 699.015 33 739.015 33 c 2
 765.015 33 l 2
 770.015 33 773.377 30 772.102 24 c 2
 767.213 1 l 1
 764.787 -1 l 1
 764.787 -1 660.213 1 621.213 1 c 0
 585.213 1 467.787 -1 467.787 -1 c 1
 466.213 1 l 1
 471.102 24 l 2
 472.377 30 476.015 33 481.015 33 c 2
 507.015 33 l 2
 549.015 33 565.203 48 571.154 76 c 2
 659.79 493 l 1
 245.579 78 l 1
 245.367 77 l 2
 238.777 46 250.015 33 290.015 33 c 2
 317.015 33 l 2
 320.015 33 323.377 30 322.102 24 c 2
 317.213 1 l 1
 314.787 -1 l 1
 314.787 -1 208.213 1 169.213 1 c 0
 134.213 1 19.7871 -1 19.7871 -1 c 1
 18.2129 1 l 1
 23.1016 24 l 2
 24.377 30 28.0146 33 32.0146 33 c 2
 59.0146 33 l 2
 100.015 33 116.415 49 122.367 77 c 2
 227.157 570 l 2
 233.746 601 222.297 613 182.297 613 c 2
 155.297 613 l 2
 151.297 613 148.935 616 149.998 621 c 2
 155.099 645 l 1
 157.312 646 l 1
 157.312 646 263.887 644 303.887 644 c 0
 338.887 644 452.312 646 452.312 646 c 1
 454.099 645 l 1
 448.998 621 l 2
 447.935 616 444.297 613 440.297 613 c 2
 413.297 613 l 2
 372.297 613 356.108 598 350.157 570 c 2
 260.033 146 l 1
 674.244 561 l 1
 675.944 569 l 2
 682.534 600 670.297 613 630.297 613 c 2
 604.297 613 l 2
 600.297 613 596.935 616 597.998 621 c 2
 603.099 645 l 1
 605.312 646 l 1
 605.312 646 714.887 644 753.887 644 c 0
 789.887 644 901.524 647 901.524 647 c 1
 903.099 645 l 1
 898.21 622 l 2
 896.935 616 893.297 613 888.297 613 c 2
 862.297 613 l 2
 821.297 613 803.896 597 797.944 569 c 2
EndSplineSet
LCarets2: 1 0 
EndChar

StartChar: afii10033
Encoding: 1055 1055 79
Width: 750
VWidth: 999
Flags: HW
HStem: -1 34<19 98.8165 234.855 311 440 514.816 650.855 731> 600 45<229.654 519.608> 613 32<19 99.2757 653.794 731>
VStem: 106 122<38.748 598.335> 522 122<38.748 597.91>
LayerCount: 2
Fore
SplineSet
538.367 77 m 2
 639.969 555 l 2
 645.921 583 644.534 600 612.534 600 c 2
 391.534 600 l 2
 360.534 600 352.983 588 345.969 555 c 2
 244.367 77 l 2
 237.777 46 250.015 33 290.015 33 c 2
 311.015 33 l 2
 316.015 33 318.377 30 317.102 24 c 2
 312.213 1 l 1
 310.787 -1 l 1
 310.787 -1 206.213 1 167.213 1 c 0
 131.213 1 18.7871 -1 18.7871 -1 c 1
 17.2129 1 l 1
 22.1016 24 l 2
 23.377 30 27.0146 33 32.0146 33 c 2
 58.0146 33 l 2
 99.0146 33 116.415 49 122.367 77 c 2
 226.944 569 l 2
 234.81 606 216.297 613 185.297 613 c 2
 155.297 613 l 2
 149.297 613 148.147 617 148.998 621 c 2
 154.099 645 l 1
 156.312 646 l 1
 163.312 646 286.099 645 300.099 645 c 0
 361.887 644 437.674 643 508.674 643 c 0
 570.674 643 641.887 644 714.099 645 c 0
 720.099 645 866.312 646 868.312 646 c 2
 870.099 645 l 1
 864.998 621 l 2
 864.147 617 860.297 613 855.297 613 c 2
 826.297 613 l 1
 798.085 612 771.534 600 764.944 569 c 2
 660.367 77 l 2
 653.777 46 666.015 33 706.015 33 c 2
 732.015 33 l 2
 736.015 33 739.377 30 738.102 24 c 2
 733.213 1 l 1
 730.787 -1 l 1
 730.787 -1 620.213 1 581.213 1 c 0
 545.213 1 439.787 -1 439.787 -1 c 1
 438.213 1 l 1
 443.102 24 l 2
 444.377 30 448.015 33 453.015 33 c 2
 474.015 33 l 2
 515.015 33 532.415 49 538.367 77 c 2
EndSplineSet
EndChar

StartChar: afii10034
Encoding: 1056 1056 80
Width: 550
VWidth: 999
Flags: HW
HStem: -2 34<24 44 281 306> 279 40<221 346.677> 611 36<24 93.1927> 613 41<126.947 352.681>
VStem: 99 122<44.5532 282 319.949 606.701> 406 127<391.868 561.741>
LayerCount: 2
Fore
SplineSet
339.606 558 m 2
 289.443 322 l 1
 303.019 320 323.806 319 338.806 319 c 0
 420.806 319 483.158 363 505.264 467 c 0
 531.195 589 469.297 613 411.297 613 c 0
 358.297 613 347.046 593 339.606 558 c 2
117.918 89 m 2
 218.031 560 l 2
 225.471 595 216.659 610 194.872 611 c 2
 163.297 613 l 2
 155.297 613 153.147 617 153.998 621 c 2
 159.099 645 l 1
 161.524 647 l 1
 220.524 647 347.012 654 428.012 654 c 0
 629.012 654 649.481 548 635.877 484 c 0
 615.472 388 532.304 279 335.304 279 c 0
 311.304 279 294.516 280 280.941 282 c 1
 239.918 89 l 2
 231.841 51 249.319 38.2002 288.227 34 c 2
 306.802 32 l 2
 312.674 31.4004 314.164 29 312.889 23 c 2
 308 0 l 1
 305.575 -2 l 1
 268.787 -1 198 0 160 0 c 0
 122 0 60.7871 -1 23.5752 -2 c 1
 22 0 l 1
 26.8887 23 l 2
 28.1641 29 32.7744 31.4004 36.8018 32 c 2
 51.2266 34 l 2
 93.1602 39.7998 109.841 51 117.918 89 c 2
EndSplineSet
EndChar

StartChar: afii10035
Encoding: 1057 1057 81
Width: 666
VWidth: 999
Flags: HW
HStem: -10 44<290.062 474.801> 437 21<558.5 612> 617 41<295.135 462.38>
VStem: 34 130<195.747 434.804> 574 38<443.526 484.717>
LayerCount: 2
Fore
SplineSet
368.874 -10 m 0
 140.874 -10 66.7334 154 100.955 315 c 0
 142.829 512 326.862 658 511.862 658 c 0
 644.862 658 669.51 614 720.51 614 c 1
 712.182 556 708.278 500 706.588 445 c 1
 666.887 437 l 1
 656.08 532 631.147 617 503.147 617 c 0
 406.147 617 277.08 532 234.994 334 c 0
 204.811 192 238.227 34 377.227 34 c 0
 458.227 34 538.028 66 633.521 153 c 1
 658.42 129 l 1
 571.29 39 474.874 -10 368.874 -10 c 0
EndSplineSet
EndChar

StartChar: afii10036
Encoding: 1058 1058 82
Width: 597
VWidth: 999
Flags: HW
HStem: -2 34<151 230.816 366.855 447> 599 46<70.4923 235.855 362.438 526.846>
VStem: 8 39<518.103 570.778> 30 36<645.204 669> 238 122<37.748 595.906> 532 36<647.479 669> 550 40<518.125 570.778>
LayerCount: 2
Fore
SplineSet
224.099 645 m 2
 647.099 645 l 2
 668.099 645 672.925 663 674.2 669 c 1
 711.051 673 l 1
 704.636 624 700.582 572 700.316 519 c 1
 659.254 514 l 1
 656.259 594 644.321 599 589.321 599 c 2
 535.321 599 l 2
 499.321 599 485.408 590 478.394 557 c 2
 376.154 76 l 2
 369.565 45 381.802 32 421.802 32 c 2
 447.802 32 l 2
 451.802 32 455.164 29 453.889 23 c 2
 449 0 l 1
 446.575 -2 l 1
 446.575 -2 328 0 289 0 c 0
 253 0 150.575 -2 150.575 -2 c 1
 149 0 l 1
 153.889 23 l 2
 155.164 29 158.802 32 163.802 32 c 2
 189.802 32 l 2
 230.802 32 248.203 48 254.154 76 c 2
 357.031 560 l 2
 363.408 590 353.321 599 316.321 599 c 2
 263.321 599 l 2
 208.321 599 193.259 594 156.254 514 c 1
 118.316 519 l 1
 140.582 572 158.636 624 173.051 673 c 1
 208.2 669 l 1
 206.925 663 203.099 645 224.099 645 c 2
EndSplineSet
EndChar

StartChar: afii10037
Encoding: 1059 1059 83
Width: 621
VWidth: 999
Flags: HW
HStem: -22 64<180.643 263.693> 613 32<1 59.1675 206.362 277 412 484.667 556.138 620>
DStem2: 212 575 88 559 0.419188 -0.907899<-30.5778 352.637> 293 115 383 161 0.361446 0.932393<-71.674 0 153.097 525.366>
LayerCount: 2
Fore
SplineSet
224.928 42 m 0
 254.928 42 275.628 50 317.444 115 c 1
 206.819 559 l 2
 201.849 578.9 189.297 613 140.297 613 c 0
 134.297 613 130.935 616 131.998 621 c 2
 137.099 645 l 1
 138.312 646 l 1
 138.312 646 201.099 645 242.099 645 c 0
 292.099 645 414.312 646 414.312 646 c 1
 416.099 645 l 1
 410.998 621 l 2
 409.935 616 406.297 613 402.297 613 c 2
 364.297 613 l 2
 331.297 613 328.959 602 334.22 575 c 1
 411.989 254 l 1
 601.22 575 l 2
 622.659 610 617.297 613 576.297 613 c 2
 546.297 613 l 2
 543.297 613 540.935 616 541.998 621 c 2
 547.099 645 l 1
 549.312 646 l 1
 549.312 646 635.099 645 677.099 645 c 0
 709.099 645 757.312 646 757.312 646 c 1
 759.099 645 l 1
 753.998 621 l 2
 752.723 615 745.297 613 741.297 613 c 0
 695.297 613 683.81 606 660.307 566 c 2
 417.222 161 l 2
 351.053 52 280.324 -22 190.324 -22 c 0
 130.324 -22 85.7002 8 92.502 40 c 0
 98.4541 68 115.705 88 147.705 88 c 0
 172.705 88 186.367 77 192.816 65 c 0
 198.903 56 209.928 42 224.928 42 c 0
EndSplineSet
EndChar

StartChar: afii10039
Encoding: 1061 1061 84
Width: 708
VWidth: 999
Flags: HW
HStem: -2 34<6 77.2637 175.139 221 431 479.696 642.975 703> 613 32<24 81.6763 243.172 295 464 510.913 615.064 682>
DStem2: 253 572 129 549 0.578967 -0.815351<-30.4141 207.826 286.619 564.202> 388 412 565 552 0.640675 0.767812<-16.6551 209.908>
LayerCount: 2
Fore
SplineSet
155.785 620 m 2
 161.099 645 l 1
 166.312 646 l 1
 192.312 646 256.099 645 267.099 645 c 0
 272.099 645 397.312 646 428.312 646 c 1
 428.312 646 431.099 645 432.099 645 c 1
 426.785 620 l 2
 425.723 615 423.297 613 420.297 613 c 0
 369.297 613 361.172 603 374.582 572 c 2
 447.998 414 l 2
 457.173 396 459.385 397 475.573 412 c 0
 525.988 461 590.38 524 627.582 572 c 0
 655.447 609 622.297 613 599.297 613 c 0
 596.297 613 592.723 615 593.785 620 c 2
 599.099 645 l 1
 601.312 646 l 1
 623.312 646 710.099 645 721.099 645 c 0
 726.099 645 801.312 646 819.312 646 c 1
 821.099 645 l 1
 815.785 620 l 2
 815.147 617 814.297 613 805.297 613 c 0
 754.297 613 718.559 586 682.331 552 c 2
 502.409 383 l 2
 480.024 361.9 480.438 358.2 504.317 312 c 2
 612.681 102 l 2
 632.733 63.2002 659.802 32 703.802 32 c 0
 708.802 32 709.951 28 709.102 24 c 2
 704 0 l 1
 702.575 -2 l 1
 674.787 -1 609 0 597 0 c 0
 591 0 430.575 -2 430.575 -2 c 1
 428 0 l 1
 433.313 25 l 2
 434.164 29 437.802 32 440.802 32 c 0
 500.802 32 499.835 37.7998 482.517 73 c 2
 397.289 246 l 2
 382.878 277 379.878 277 361.84 258 c 0
 305.724 201 247.907 136 199.367 77 c 0
 165.439 35 201.802 32 224.802 32 c 0
 228.802 32 229.951 28 229.102 24 c 2
 224 0 l 1
 220.575 -2 l 1
 220.575 -2 104 0 90 0 c 0
 85 0 5.5752 -2 5.5752 -2 c 1
 5 0 l 1
 10.3135 25 l 2
 11.377 30 16.8018 32 22.8018 32 c 0
 81.8018 32 113.816 65 153.105 104 c 2
 338.854 291 l 1
 360.105 311 359.926 315.8 346.119 344 c 2
 245.693 549 l 2
 218.354 604.8 182.297 613 165.297 613 c 0
 158.297 613 154.723 615 155.785 620 c 2
EndSplineSet
EndChar

StartChar: afii10040
Encoding: 1062 1062 85
Width: 722
VWidth: 487
Flags: HW
HStem: -1 34<20 88.5142> 0 42<215.974 501.971> 613 32<19 88.6542 217.213 286 433 501.091 628.883 697>
VStem: 92 122<43.533 611.651> 504 122<44.0875 611.234> 662 41<-136 -78.8302>
LayerCount: 2
Fore
SplineSet
525 0 m 2
 525 0 306 0 166 0 c 2
 19.7871 -1 l 1
 17.2129 1 l 1
 21.6758 22 l 2
 22.9512 28 28.0146 33 33.0146 33 c 2
 59.0146 33 l 2
 91.0146 33 100.502 40 109.005 80 c 2
 212.52 567 l 2
 220.81 606 216.297 613 182.297 613 c 2
 152.297 613 l 2
 149.297 613 147.51 614 148.36 618 c 2
 154.099 645 l 1
 156.312 646 l 1
 296.099 645 l 1
 423.312 646 l 1
 425.099 645 l 1
 419.36 618 l 2
 418.723 615 416.297 613 413.297 613 c 2
 383.297 613 l 2
 351.297 613 343.021 607 334.52 567 c 2
 232.705 88 l 2
 223.99 47 230.928 42 261.928 42 c 2
 473.928 42 l 2
 509.928 42 516.115 57 522.918 89 c 2
 624.52 567 l 2
 631.321 599 633.297 613 595.297 613 c 2
 566.297 613 l 2
 562.297 613 560.51 614 561.36 618 c 2
 567.099 645 l 1
 570.312 646 l 1
 689.099 645 l 1
 834.312 646 l 1
 837.099 645 l 1
 832.423 623 l 2
 831.785 620 828.297 613 824.297 613 c 2
 795.297 613 l 1
 758.085 612 753.746 601 746.52 567 c 2
 643.43 82 l 2
 638.115 57 650.015 33 674.015 33 c 0
 699.015 33 700.464 21 699.764 13 c 2
 674.092 -136 l 1
 633.092 -136 l 1
 633.184 -65 603 0 525 0 c 2
EndSplineSet
EndChar

StartChar: afii10041
Encoding: 1063 1063 86
Width: 687
VWidth: 999
Flags: HW
HStem: -1 34<386 466.5 595.051 666> 248 63<243.549 386.648> 613 33<29 94.6501 221.253 287 396 467.719 594.197 666>
VStem: 97 122<333.393 611.375> 470 122<34.8668 314 344.538 611.828>
LayerCount: 2
Fore
SplineSet
437.015 33 m 2
 473.015 33 479.777 46 487.005 80 c 2
 536.743 314 l 1
 452.902 263 381.714 248 323.714 248 c 0
 209.714 248 166.506 327 187.549 426 c 2
 218.582 572 l 2
 225.81 606 222.297 613 183.297 613 c 2
 166.297 613 l 2
 161.297 613 159.723 615 160.572 619 c 2
 166.312 646 l 1
 315.099 645 l 1
 424.312 646 l 1
 418.36 618 l 2
 417.723 615 415.297 613 411.297 613 c 2
 393.297 613 l 2
 351.297 613 347.172 603 340.582 572 c 2
 308.273 420 l 2
 290.844 338 307.105 311 379.105 311 c 0
 408.105 311 472.955 315 545.883 357 c 1
 591.37 571 l 2
 598.597 605 596.297 613 560.297 613 c 2
 530.297 613 l 2
 527.297 613 526.51 614 527.36 618 c 2
 533.312 646 l 1
 688.887 644 l 1
 803.312 646 l 1
 797.572 619 l 2
 796.723 615 794.297 613 791.297 613 c 2
 761.297 613 l 2
 727.297 613 721.234 608 713.37 571 c 2
 609.005 80 l 2
 601.14 43 604.015 33 638.015 33 c 2
 668.015 33 l 2
 671.015 33 672.377 30 671.739 27 c 2
 665.787 -1 l 1
 552.213 1 l 1
 385.787 -1 l 1
 391.739 27 l 2
 392.589 31 394.015 33 398.015 33 c 2
 437.015 33 l 2
EndSplineSet
EndChar

StartChar: afii10042
Encoding: 1064 1064 87
Width: 1087
VWidth: 487
Flags: HW
HStem: -1 34<34 103.253 984.033 1054> 2 40<230.584 479.921 606.71 856.864> 613 32<19 98.5971 237.067 313 397 474.538 612.451 690 774 851.597 989.451 1068>
VStem: 106 123<43.9395 607.491> 482 122<43.6743 607.252> 859 122<43.3821 607.252>
LayerCount: 2
Fore
SplineSet
1101.94 569 m 2
 996.941 75 l 2
 989.502 40 997.015 33 1028.01 33 c 2
 1058.01 33 l 2
 1061.01 33 1062.59 31 1061.95 28 c 2
 1056.21 1 l 1
 1053.79 -1 l 1
 939.425 2 l 1
 221.425 2 l 1
 33.7871 -1 l 1
 32.2129 1 l 1
 37.9512 28 l 2
 38.5889 31 41.0146 33 44.0146 33 c 2
 74.0146 33 l 2
 108.015 33 114.715 41 123.005 80 c 2
 226.944 569 l 2
 233.534 600 221.297 613 182.297 613 c 2
 155.297 613 l 2
 151.297 613 147.935 616 148.998 621 c 2
 154.099 645 l 1
 156.312 646 l 1
 156.312 646 264.099 645 304.099 645 c 0
 339.099 645 450.312 646 450.312 646 c 1
 452.099 645 l 1
 446.998 621 l 2
 445.935 616 442.297 613 437.297 613 c 2
 413.297 613 l 2
 372.297 613 355.896 597 349.944 569 c 2
 247.705 88 l 2
 240.903 56 237.928 42 276.928 42 c 2
 456.928 42 l 2
 487.928 42 494.115 57 500.705 88 c 2
 602.944 569 l 2
 609.534 600 597.297 613 557.297 613 c 2
 533.297 613 l 2
 529.297 613 525.935 616 526.998 621 c 2
 532.099 645 l 1
 534.312 646 l 1
 534.312 646 640.099 645 679.099 645 c 0
 715.099 645 805.312 646 805.312 646 c 1
 827.099 645 l 1
 821.998 621 l 2
 820.935 616 818.297 613 813.297 613 c 2
 789.297 613 l 2
 748.297 613 730.896 597 724.944 569 c 2
 622.705 88 l 2
 616.328 58 616.928 42 649.928 42 c 2
 828.928 42 l 2
 861.928 42 869.415 49 877.705 88 c 2
 979.944 569 l 2
 986.534 600 974.297 613 935.297 613 c 2
 911.297 613 l 2
 906.297 613 902.935 616 903.998 621 c 2
 909.099 645 l 1
 911.312 646 l 1
 911.312 646 1017.1 645 1056.1 645 c 0
 1092.1 645 1205.31 646 1205.31 646 c 1
 1207.1 645 l 1
 1202 621 l 2
 1200.93 616 1197.3 613 1192.3 613 c 2
 1166.3 613 l 2
 1125.3 613 1107.9 597 1101.94 569 c 2
EndSplineSet
EndChar

StartChar: afii10043
Encoding: 1065 1065 88
Width: 1089
VWidth: 487
Flags: HW
HStem: 0 31<34 103.32> 1 40<231.307 479.648 606.781 856.754> 613 32<19 98.5971 237.067 313 397 474.538 612.451 688 774 851.597 989.451 1068>
VStem: 106 123<43.2559 607.491> 482 122<43.5908 607.252> 859 122<42.9083 607.252> 1014 44<-141 -88.5684>
LayerCount: 2
Fore
SplineSet
349.944 569 m 2
 247.705 88 l 2
 241.328 58 239.715 41 276.715 41 c 2
 448.715 41 l 2
 486.715 41 493.053 52 500.705 88 c 2
 602.944 569 l 2
 609.534 600 597.297 613 557.297 613 c 2
 533.297 613 l 2
 529.297 613 525.935 616 526.998 621 c 2
 532.099 645 l 1
 534.312 646 l 1
 534.312 646 646.099 645 685.099 645 c 0
 721.099 645 825.312 646 825.312 646 c 1
 827.099 645 l 1
 821.998 621 l 2
 820.935 616 818.297 613 813.297 613 c 2
 789.297 613 l 2
 748.297 613 730.896 597 724.944 569 c 2
 622.705 88 l 2
 615.053 52 617.715 41 660.715 41 c 2
 828.715 41 l 2
 863.715 41 870.053 52 877.705 88 c 2
 979.944 569 l 2
 986.534 600 974.297 613 935.297 613 c 2
 911.297 613 l 2
 906.297 613 902.935 616 903.998 621 c 2
 909.099 645 l 1
 911.312 646 l 1
 911.312 646 1021.1 645 1060.1 645 c 0
 1095.1 645 1205.31 646 1205.31 646 c 1
 1207.1 645 l 1
 1202 621 l 2
 1200.93 616 1197.3 613 1192.3 613 c 2
 1166.3 613 l 2
 1125.3 613 1107.9 597 1101.94 569 c 2
 999.067 85 l 2
 990.777 46 1013.01 33 1028.01 33 c 0
 1046.01 33 1055.89 23 1053.28 6 c 2
 1028.03 -141 l 1
 984.029 -141 l 1
 986.382 -97 944.213 1 858.213 1 c 2
 188.213 1 l 1
 33.7871 -1 l 1
 32 0 l 1
 37.5264 26 l 2
 38.377 30 40.5889 31 43.5889 31 c 2
 73.5889 31 l 2
 106.589 31 113.439 35 121.729 74 c 2
 226.944 569 l 2
 233.534 600 221.297 613 182.297 613 c 2
 155.297 613 l 2
 151.297 613 147.935 616 148.998 621 c 2
 154.099 645 l 1
 156.312 646 l 1
 156.312 646 271.099 645 310.099 645 c 0
 345.099 645 450.312 646 450.312 646 c 1
 452.099 645 l 1
 446.998 621 l 2
 445.935 616 442.297 613 437.297 613 c 2
 413.297 613 l 2
 372.297 613 355.896 597 349.944 569 c 2
EndSplineSet
EndChar

StartChar: afii10044
Encoding: 1066 1066 89
Width: 780
VWidth: 999
Flags: HW
HStem: -1 35<178 258.408 393.048 541.239> 331 44<387 557.861> 602 44<130.709 261.935> 613 33<394.803 474>
VStem: 26 47<473.255 529.979> 265 122<39.0136 331 375 599.078> 613 131<97.6675 271.008>
LayerCount: 2
Fore
SplineSet
457.356 331 m 1
 404.854 84 l 2
 397.841 51 399.227 34 454.227 34 c 0
 606.227 34 638.72 121 651.897 183 c 0
 664.651 243 673.356 331 545.356 331 c 2
 457.356 331 l 1
461.099 645 m 2
 497.099 645 611.312 646 611.312 646 c 1
 613.099 645 l 1
 607.998 621 l 2
 606.935 616 603.297 613 598.297 613 c 2
 572.297 613 l 2
 531.297 613 513.896 597 507.944 569 c 2
 466.709 375 l 1
 527.709 375 l 2
 772.709 375 801.815 272 782.897 183 c 0
 747.4 16 565.787 -1 444.787 -1 c 0
 408.787 -1 357.213 1 328.213 1 c 0
 292.213 1 177.787 -1 177.787 -1 c 1
 176.213 1 l 1
 181.102 24 l 2
 182.377 30 186.015 33 191.015 33 c 2
 217.015 33 l 2
 258.015 33 275.415 49 281.367 77 c 2
 383.819 559 l 2
 389.559 586 381.959 602 353.959 602 c 2
 308.959 602 l 2
 242.959 602 190.829 512 172.689 469 c 1
 126.752 474 l 1
 147.655 530 164.133 584 179.312 646 c 1
 402.312 646 l 1
 461.099 645 l 2
EndSplineSet
EndChar

StartChar: afii10045
Encoding: 1067 1067 90
Width: 908
VWidth: 999
Flags: HW
HStem: -1 34<612 680.724 816.184 884> -1 35<19 99.4082 234.048 379.573> 331 45<228 397.119> 613 32<19 97.5488 235.462 315> 614 34<612 680.724 816.184 884>
VStem: 106 122<39.0136 331 376 607.252> 454 127<93.6435 279.371> 687 122<38.5094 608.491>
LayerCount: 2
Fore
SplineSet
825.367 77 m 2
 819.415 49 830.015 33 871.015 33 c 2
 885.015 33 l 2
 890.015 33 892.377 30 891.102 24 c 2
 886.213 1 l 1
 883.787 -1 l 1
 883.787 -1 784.213 1 748.213 1 c 0
 709.213 1 611.787 -1 611.787 -1 c 1
 610.213 1 l 1
 615.102 24 l 2
 616.377 30 621.015 33 625.015 33 c 2
 639.015 33 l 2
 679.015 33 696.565 45 703.367 77 c 2
 808.157 570 l 2
 814.959 602 802.51 614 762.51 614 c 2
 748.51 614 l 2
 744.51 614 741.147 617 742.21 622 c 2
 747.312 646 l 1
 749.736 648 l 1
 749.736 648 846.312 646 885.312 646 c 0
 921.312 646 1021.74 648 1021.74 648 c 1
 1023.31 646 l 1
 1018.21 622 l 2
 1017.15 617 1013.51 614 1008.51 614 c 2
 994.51 614 l 2
 953.51 614 936.108 598 930.157 570 c 2
 825.367 77 l 2
226.944 569 m 2
 232.896 597 222.297 613 181.297 613 c 2
 155.297 613 l 2
 150.297 613 147.935 616 148.998 621 c 2
 154.099 645 l 1
 156.312 646 l 1
 156.312 646 267.099 645 303.099 645 c 0
 342.099 645 452.312 646 452.312 646 c 1
 454.099 645 l 1
 448.998 621 l 2
 447.935 616 443.297 613 439.297 613 c 2
 413.297 613 l 2
 373.297 613 355.534 600 348.944 569 c 2
 307.921 376 l 1
 385.921 376 l 2
 630.921 376 638.815 272 619.897 183 c 0
 584.4 16 423.787 -1 302.787 -1 c 0
 266.787 -1 195.213 1 166.213 1 c 0
 137.213 1 18.7871 -1 18.7871 -1 c 1
 17.2129 1 l 1
 22.1016 24 l 2
 23.377 30 27.0146 33 32.0146 33 c 2
 58.0146 33 l 2
 99.0146 33 116.415 49 122.367 77 c 2
 226.944 569 l 2
298.356 331 m 1
 245.854 84 l 2
 238.841 51 240.227 34 295.227 34 c 0
 446.227 34 479.72 121 492.897 183 c 0
 505.651 243 514.356 331 385.356 331 c 2
 298.356 331 l 1
EndSplineSet
EndChar

StartChar: afii10046
Encoding: 1068 1068 91
Width: 617
VWidth: 999
Flags: HW
HStem: -1 35<19 99.4082 234.048 379.573> 331 45<228 397.119> 613 32<19 97.5488 235.462 315>
VStem: 106 122<39.0136 331 376 607.252> 454 127<93.6435 279.371>
LayerCount: 2
Fore
SplineSet
226.944 569 m 2
 232.896 597 222.297 613 181.297 613 c 2
 155.297 613 l 2
 150.297 613 147.935 616 148.998 621 c 2
 154.099 645 l 1
 156.312 646 l 1
 156.312 646 267.099 645 303.099 645 c 0
 342.099 645 452.312 646 452.312 646 c 1
 454.099 645 l 1
 448.998 621 l 2
 447.935 616 443.297 613 439.297 613 c 2
 413.297 613 l 2
 373.297 613 355.534 600 348.944 569 c 2
 307.921 376 l 1
 385.921 376 l 2
 630.921 376 638.815 272 619.897 183 c 0
 584.4 16 423.787 -1 302.787 -1 c 0
 266.787 -1 195.213 1 166.213 1 c 0
 137.213 1 18.7871 -1 18.7871 -1 c 1
 17.2129 1 l 1
 22.1016 24 l 2
 23.377 30 27.0146 33 32.0146 33 c 2
 58.0146 33 l 2
 99.0146 33 116.415 49 122.367 77 c 2
 226.944 569 l 2
298.356 331 m 1
 245.854 84 l 2
 238.841 51 240.227 34 295.227 34 c 0
 446.227 34 479.72 121 492.897 183 c 0
 505.651 243 514.356 331 385.356 331 c 2
 298.356 331 l 1
EndSplineSet
EndChar

StartChar: afii10047
Encoding: 1069 1069 92
Width: 625
VWidth: 999
Flags: HW
HStem: -12 38<199.301 353.574> 273 66<307.887 449.597> 311 59<161.217 283.679> 616 42<190.147 341.059>
VStem: 42 39<457.282 500.885> 54 89<77.2543 155.168> 451 131<196.438 295 341.365 467.623>
LayerCount: 2
Fore
SplineSet
513.704 295 m 1
 464.028 273 429.028 273 418.028 273 c 0
 356.028 273 321.105 311 262.105 311 c 0
 224.105 311 204.704 295 196.704 295 c 0
 192.704 295 189.404 303 191.317 312 c 0
 196.419 336 266.646 370 325.646 370 c 0
 391.646 370 414.057 339 472.057 339 c 0
 491.057 339 508.694 342 524.545 346 c 1
 558.906 550 481.935 616 401.935 616 c 0
 306.935 616 220.78 540 177.501 454 c 1
 139.351 458 l 1
 161.616 511 179.606 558 193.297 613 c 1
 251.935 616 313.862 658 418.862 658 c 0
 583.862 658 698.906 550 652.781 333 c 0
 606.019 113 442.449 -12 272.449 -12 c 0
 186.449 -12 137.039 19 111.14 43 c 0
 88.6035 64 74.1934 95 79.9316 122 c 0
 85.458 148 105.072 165 123.072 165 c 0
 152.072 165 164.309 152 168.507 120 c 0
 177.945 48.2002 219.526 26 291.526 26 c 0
 414.526 26 483.222 161 513.704 295 c 1
EndSplineSet
EndChar

StartChar: afii10048
Encoding: 1070 1070 93
Width: 937
VWidth: 999
Flags: HW
HStem: -12 39<554.854 687.491> -1 34<24 92.7241 228.184 296> 300 49<221 317> 613 32<24 91.5375 229.451 296> 619 39<533.072 673.166>
VStem: 99 122<38.5094 300 349 607.491> 317 126<178.838 300 349 443.243> 771 127<190.805 458.298>
LayerCount: 2
Fore
SplineSet
724.572 619 m 0
 640.572 619 557.143 537 512.506 327 c 0
 471.695 135 521.739 27 629.739 27 c 0
 732.739 27 798.845 131 836.893 310 c 0
 881.104 518 849.572 619 724.572 619 c 0
237.367 77 m 2
 231.415 49 242.015 33 283.015 33 c 2
 297.015 33 l 2
 302.015 33 304.377 30 303.102 24 c 2
 298.213 1 l 1
 295.787 -1 l 1
 295.787 -1 196.213 1 160.213 1 c 0
 121.213 1 23.7871 -1 23.7871 -1 c 1
 22.2129 1 l 1
 27.1016 24 l 2
 28.377 30 33.0146 33 37.0146 33 c 2
 51.0146 33 l 2
 91.0146 33 108.565 45 115.367 77 c 2
 219.944 569 l 2
 226.746 601 214.297 613 174.297 613 c 2
 160.297 613 l 2
 156.297 613 152.935 616 153.998 621 c 2
 159.099 645 l 1
 161.312 646 l 1
 161.312 646 258.099 645 297.099 645 c 0
 333.099 645 433.312 646 433.312 646 c 1
 435.099 645 l 1
 429.998 621 l 2
 428.935 616 425.297 613 420.297 613 c 2
 406.297 613 l 2
 365.297 613 347.896 597 341.944 569 c 2
 295.183 349 l 1
 392.183 349 l 1
 444.805 526 589.862 658 744.862 658 c 0
 911.862 658 1010.02 527 967.931 329 c 0
 925.42 129 781.449 -12 603.449 -12 c 0
 445.449 -12 344.169 109 380.767 300 c 1
 284.767 300 l 1
 237.367 77 l 2
EndSplineSet
EndChar

StartChar: afii10049
Encoding: 1071 1071 94
Width: 612
VWidth: 999
Flags: HW
HStem: -1 34<11 57.5665 296 376.155 511.524 593> 320 48<298.94 383> 606 40<215.181 381.843> 613 33<510.485 596>
VStem: 69 108<410.473 564.69> 383 122<38.2361 320 368 602.434>
LayerCount: 2
Fore
SplineSet
451.019 320 m 1
 345.019 320 343.02 281.9 285.26 180 c 0
 222.879 70 179.213 1 107 0 c 2
 10.7871 -1 l 1
 10.2129 1 l 1
 15.1016 24 l 2
 16.377 30 20.0146 33 24.0146 33 c 2
 33.0146 33 l 2
 66.0146 33 130.894 103 212.163 236 c 0
 237.157 276.9 258.105 311 287.931 329 c 1
 222.057 339 150.834 385 172.515 487 c 0
 187.182 556 250.312 646 436.312 646 c 0
 471.312 646 552.099 645 584.099 645 c 0
 616.099 645 733.312 646 733.312 646 c 1
 727.785 620 l 2
 726.935 616 724.297 613 718.297 613 c 2
 689.297 613 l 2
 647.297 613 633.172 603 625.944 569 c 2
 521.154 76 l 2
 514.565 45 528.015 33 567.015 33 c 2
 593.015 33 l 2
 598.015 33 601.377 30 600.102 24 c 2
 595.213 1 l 1
 592.787 -1 l 1
 592.787 -1 486.213 1 447.213 1 c 0
 411.213 1 295.787 -1 295.787 -1 c 1
 294.213 1 l 1
 299.102 24 l 2
 300.377 30 304.015 33 309.015 33 c 2
 336.015 33 l 2
 377.015 33 393.203 48 399.154 76 c 2
 451.019 320 l 1
504.157 570 m 2
 511.172 603 507.81 606 420.81 606 c 0
 364.81 606 303.471 595 283.703 502 c 0
 261.173 396 301.221 368 384.221 368 c 2
 461.221 368 l 1
 504.157 570 l 2
EndSplineSet
EndChar

StartChar: afii10089
Encoding: 1095 1095 95
Width: 581
VWidth: 999
Flags: HW
HStem: -1 34<310 367.151 483.217 540> 146 40<195.202 332.641> 402 34<18 67.6078 184.253 241 310 366.902 483.294 550>
VStem: 71 110<211.872 400.259> 370 110<34.624 189 212.403 400.488>
LayerCount: 2
Fore
SplineSet
445.245 354 m 2
 453.535 393 450.447 402 415.447 402 c 2
 399.447 402 l 2
 396.447 402 394.66 403 395.511 407 c 2
 401.25 434 l 1
 402.675 436 l 1
 512.25 434 l 1
 642.675 436 l 1
 644.25 434 l 1
 638.511 407 l 2
 637.873 404 635.447 402 631.447 402 c 2
 606.447 402 l 2
 572.447 402 563.96 395 555.245 354 c 2
 497.217 81 l 2
 489.14 43 491.015 33 528.015 33 c 2
 544.015 33 l 2
 548.015 33 548.589 31 547.951 28 c 2
 542.213 1 l 1
 539.787 -1 l 1
 539.787 -1 449.213 1 412.213 1 c 0
 372.213 1 309.787 -1 309.787 -1 c 1
 308.213 1 l 1
 313.739 27 l 2
 314.589 31 317.015 33 320.015 33 c 2
 337.015 33 l 2
 373.015 33 378.928 42 387.217 81 c 2
 410.173 189 l 1
 365.009 160 330.033 146 270.033 146 c 0
 172.033 146 111.599 191 134.129 297 c 2
 146.458 355 l 2
 154.535 393 150.447 402 115.447 402 c 2
 107.447 402 l 2
 104.447 402 102.66 403 103.511 407 c 2
 109.25 434 l 1
 110.675 436 l 1
 213.037 433 l 1
 333.675 436 l 1
 334.25 434 l 1
 328.723 408 l 2
 327.873 404 325.447 402 321.447 402 c 2
 306.447 402 l 2
 273.447 402 264.322 392 257.521 360 c 2
 243.279 293 l 2
 226.699 215 227.535 186 289.535 186 c 0
 338.535 186 380.086 198 418.676 229 c 1
 445.245 354 l 2
EndSplineSet
EndChar

StartChar: afii10090
Encoding: 1096 1096 96
Width: 923
VWidth: 999
Flags: HW
HStem: -1 34<43 102.064 816.857 890> 0 41<215.46 401.772 517.304 702.1> 402 34<33 100.608 215.968 277 340 400.902 517.294 583 636 701.902 817.932 880>
VStem: 104 109<43.0804 400.422> 404 110<43.0065 400.488> 705 110<43.4492 400.499>
LayerCount: 2
Fore
SplineSet
890.458 355 m 2
 830.729 74 l 2
 822.227 34 829.015 33 863.015 33 c 2
 893.015 33 l 2
 897.015 33 898.377 30 897.739 27 c 2
 892.213 1 l 1
 889.787 -1 l 1
 758 0 l 1
 154 0 l 1
 42.7871 -1 l 1
 42.2129 1 l 1
 47.9512 28 l 2
 48.5889 31 50.0146 33 54.0146 33 c 2
 70.0146 33 l 2
 105.015 33 111.652 36 119.941 75 c 2
 179.458 355 l 2
 187.535 393 183.447 402 148.447 402 c 2
 122.447 402 l 2
 119.447 402 117.66 403 118.511 407 c 2
 124.25 434 l 1
 125.675 436 l 1
 246.037 433 l 1
 369.675 436 l 1
 371.25 434 l 1
 365.723 408 l 2
 364.873 404 362.447 402 358.447 402 c 2
 339.447 402 l 2
 305.447 402 297.173 396 288.458 355 c 2
 232.13 90 l 2
 223.628 50 227.715 41 262.715 41 c 2
 372.715 41 l 2
 407.715 41 415.053 52 422.918 89 c 2
 479.245 354 l 2
 487.535 393 484.447 402 449.447 402 c 2
 429.447 402 l 2
 426.447 402 424.66 403 425.511 407 c 2
 431.25 434 l 1
 432.675 436 l 1
 546.25 434 l 1
 675.675 436 l 1
 676.25 434 l 1
 670.511 407 l 2
 669.873 404 668.447 402 664.447 402 c 2
 640.447 402 l 2
 606.447 402 597.96 395 589.245 354 c 2
 533.13 90 l 2
 524.203 48 534.715 41 563.715 41 c 2
 673.715 41 l 2
 710.715 41 717.541 59 724.13 90 c 2
 780.458 355 l 2
 788.535 393 785.447 402 750.447 402 c 2
 725.447 402 l 2
 722.447 402 720.66 403 721.511 407 c 2
 727.25 434 l 1
 728.675 436 l 1
 847.037 433 l 1
 972.675 436 l 1
 974.25 434 l 1
 968.723 408 l 2
 967.873 404 965.447 402 961.447 402 c 2
 940.447 402 l 2
 907.447 402 899.173 396 890.458 355 c 2
EndSplineSet
EndChar

StartChar: afii10091
Encoding: 1097 1097 97
Width: 917
VWidth: 999
Flags: HW
HStem: -1 34<43 101.812> 0 40<215.46 401.502 517.304 702.1> 402 34<33 100.608 215.968 277 340 400.902 517.294 583 636 701.902 817.932 880>
VStem: 104 109<42.1362 400.422> 404 110<41.8323 400.488> 705 110<42.9362 400.499> 843 43<-128 -68.6074>
LayerCount: 2
Fore
SplineSet
890.458 355 m 2
 831.792 79 l 2
 826.479 54 835.015 33 858.015 33 c 0
 872.015 33 884.526 26 881.7 8 c 2
 858.793 -128 l 1
 815.793 -128 l 1
 814.208 -79 804 0 724 0 c 2
 155 0 l 1
 42.7871 -1 l 1
 42.2129 1 l 1
 47.7393 27 l 2
 48.5889 31 50.0146 33 54.0146 33 c 2
 70.0146 33 l 2
 105.015 33 111.864 37 119.941 75 c 2
 179.458 355 l 2
 187.535 393 183.447 402 148.447 402 c 2
 122.447 402 l 2
 119.447 402 117.66 403 118.511 407 c 2
 124.25 434 l 1
 125.675 436 l 1
 246.037 433 l 1
 369.675 436 l 1
 371.25 434 l 1
 365.723 408 l 2
 364.873 404 362.447 402 358.447 402 c 2
 339.447 402 l 2
 305.447 402 297.173 396 288.458 355 c 2
 231.705 88 l 2
 223.415 49 227.502 40 262.502 40 c 2
 372.502 40 l 2
 407.502 40 414.841 51 422.705 88 c 2
 479.245 354 l 2
 487.535 393 484.447 402 449.447 402 c 2
 429.447 402 l 2
 426.447 402 424.66 403 425.511 407 c 2
 431.25 434 l 1
 432.675 436 l 1
 546.25 434 l 1
 675.675 436 l 1
 676.25 434 l 1
 670.511 407 l 2
 669.873 404 668.447 402 664.447 402 c 2
 640.447 402 l 2
 606.447 402 597.96 395 589.245 354 c 2
 532.705 88 l 2
 523.777 46 534.502 40 563.502 40 c 2
 673.715 41 l 2
 710.778 41.2998 716.903 56 723.918 89 c 2
 780.458 355 l 2
 788.535 393 785.447 402 750.447 402 c 2
 725.447 402 l 2
 722.447 402 720.66 403 721.511 407 c 2
 727.25 434 l 1
 728.675 436 l 1
 847.037 433 l 1
 972.675 436 l 1
 974.25 434 l 1
 968.723 408 l 2
 967.873 404 965.447 402 961.447 402 c 2
 940.447 402 l 2
 907.447 402 899.173 396 890.458 355 c 2
EndSplineSet
EndChar

StartChar: afii10092
Encoding: 1098 1098 98
Width: 590
VWidth: 999
Flags: HW
HStem: -1 34<128 190.926 315.978 425.383> 224 37<306 429.16> 393 41<96.8817 193.94> 402 34<308.281 380>
VStem: 26 35<279 343.414> 196 110<42.1465 224 261 392.378> 449 110<64.672 203.325>
LayerCount: 2
Fore
SplineSet
212.367 77 m 2
 269.757 347 l 2
 277.622 384 272.535 393 250.535 393 c 0
 168.535 393 153.883 357 119.453 275 c 1
 85.5156 280 l 1
 102.293 326 117.134 377 130.462 435 c 1
 343.25 434 l 1
 472.675 436 l 1
 474.25 434 l 1
 468.298 406 l 2
 467.447 402 465.447 402 462.447 402 c 2
 431.447 402 l 2
 395.447 402 389.747 394 382.308 359 c 2
 361.478 261 l 1
 427.478 261 l 2
 523.478 261 607.888 230 587.908 136 c 0
 570.053 52 488 0 376 0 c 2
 249.213 1 l 2
 213.213 1 127.787 -1 127.787 -1 c 1
 126.213 1 l 1
 131.102 24 l 2
 132.377 30 136.015 33 141.015 33 c 2
 160.015 33 l 2
 194.015 33 206.203 48 212.367 77 c 2
475.782 126 m 0
 487.048 179 491.612 224 420.612 224 c 2
 353.612 224 l 1
 323.643 83 l 2
 315.99 47 330.652 36 376.652 36 c 0
 426.652 36 458.353 44 475.782 126 c 0
EndSplineSet
EndChar

StartChar: afii10093
Encoding: 1099 1099 99
Width: 749
VWidth: 999
Flags: HW
HStem: -1 34<38 100.926 223.805 335.983 475 537.648 658.352 721> 224 37<216 339.16> 401 34<38 100.926 221.352 284> 402 34<475 537.648 658.352 721>
VStem: 106 110<40.9339 224 261 397.844> 359 110<64.672 203.325> 543 110<36.1563 398.688>
LayerCount: 2
Fore
SplineSet
619.096 358 m 2
 625.047 386 618.447 402 585.447 402 c 2
 566.447 402 l 2
 561.447 402 559.085 405 560.148 410 c 2
 565.25 434 l 1
 567.675 436 l 1
 567.675 436 652.25 434 688.25 434 c 0
 727.25 434 813.675 436 813.675 436 c 1
 815.25 434 l 1
 810.148 410 l 2
 809.085 405 804.447 402 800.447 402 c 2
 781.447 402 l 2
 748.447 402 735.047 386 729.096 358 c 2
 669.367 77 l 2
 663.203 48 670.015 33 703.015 33 c 2
 722.015 33 l 2
 726.015 33 729.377 30 728.102 24 c 2
 723.213 1 l 1
 720.787 -1 l 1
 720.787 -1 635.213 1 596.213 1 c 0
 560.213 1 474.787 -1 474.787 -1 c 1
 473.213 1 l 1
 478.102 24 l 2
 479.377 30 483.015 33 488.015 33 c 2
 507.015 33 l 2
 540.015 33 553.203 48 559.367 77 c 2
 619.096 358 l 2
385.782 126 m 0
 397.048 179 401.612 224 330.612 224 c 2
 263.612 224 l 1
 232.792 79 l 2
 225.14 43 240.652 36 286.652 36 c 0
 336.652 36 368.353 44 385.782 126 c 0
122.367 77 m 2
 181.883 357 l 2
 188.047 386 182.235 401 148.235 401 c 2
 129.235 401 l 2
 124.235 401 121.873 404 123.148 410 c 2
 128.037 433 l 1
 130.462 435 l 1
 130.462 435 216.037 433 251.037 433 c 0
 290.037 433 376.462 435 376.462 435 c 1
 378.037 433 l 1
 373.148 410 l 2
 371.873 404 367.235 401 363.235 401 c 2
 344.235 401 l 2
 311.235 401 298.047 386 291.883 357 c 2
 271.478 261 l 1
 337.478 261 l 2
 433.478 261 517.888 230 497.907 136 c 0
 480.053 52 398 0 287 0 c 2
 159.213 1 l 2
 124.213 1 37.7871 -1 37.7871 -1 c 1
 36.2129 1 l 1
 41.1016 24 l 2
 42.377 30 46.0146 33 51.0146 33 c 2
 70.0146 33 l 2
 104.015 33 116.203 48 122.367 77 c 2
EndSplineSet
EndChar

StartChar: afii10094
Encoding: 1100 1100 100
Width: 500
VWidth: 999
Flags: HW
HStem: -1 34<38 100.926 223.805 335.983> 224 37<216 339.16> 401 34<38 100.926 221.352 284>
VStem: 106 110<40.9339 224 261 397.844> 359 110<64.672 203.325>
LayerCount: 2
Fore
SplineSet
385.782 126 m 0
 397.048 179 401.612 224 330.612 224 c 2
 263.612 224 l 1
 232.792 79 l 2
 225.14 43 240.652 36 286.652 36 c 0
 336.652 36 368.353 44 385.782 126 c 0
122.367 77 m 2
 181.883 357 l 2
 188.047 386 182.235 401 148.235 401 c 2
 129.235 401 l 2
 124.235 401 121.873 404 123.148 410 c 2
 128.037 433 l 1
 130.462 435 l 1
 130.462 435 216.037 433 251.037 433 c 0
 290.037 433 376.462 435 376.462 435 c 1
 378.037 433 l 1
 373.148 410 l 2
 371.873 404 367.235 401 363.235 401 c 2
 344.235 401 l 2
 311.235 401 298.047 386 291.883 357 c 2
 271.478 261 l 1
 337.478 261 l 2
 433.478 261 517.888 230 497.907 136 c 0
 480.053 52 398 0 287 0 c 2
 159.213 1 l 2
 124.213 1 37.7871 -1 37.7871 -1 c 1
 36.2129 1 l 1
 41.1016 24 l 2
 42.377 30 46.0146 33 51.0146 33 c 2
 70.0146 33 l 2
 104.015 33 116.203 48 122.367 77 c 2
EndSplineSet
EndChar

StartChar: afii10095
Encoding: 1101 1101 101
Width: 452
VWidth: 999
Flags: HW
HStem: -12 35<135.21 247.128> 180 49<160.832 296.342> 207 41<92.6331 188.46> 406 36<125.918 245.651>
VStem: 37 77<40.7447 108.21> 40 35<296.2 346.239> 297 111<121.734 199 229.057 318.451>
LayerCount: 2
Fore
SplineSet
346.101 231 m 1
 359.617 304 369.298 406 277.298 406 c 0
 196.298 406 164.245 354 137.279 293 c 1
 103.129 297 l 1
 118.481 341 128.709 375 142.399 430 c 1
 212.399 430 222.95 442 294.95 442 c 0
 417.95 442 479.206 335 455.825 225 c 0
 422.454 68 290.449 -12 184.449 -12 c 0
 101.449 -12 43.8018 32 54.8545 84 c 0
 57.8301 98 77.0186 113 95.0186 113 c 0
 106.019 113 132.169 109 130.154 76 c 0
 128.928 42 155.889 23 197.889 23 c 0
 288.889 23 321.932 122 339.299 199 c 1
 317.173 189 290.26 180 266.26 180 c 0
 222.26 180 198.999 207 163.999 207 c 0
 151.999 207 140.937 202 132.937 202 c 0
 126.937 202 127.85 211 128.699 215 c 0
 131.888 230 180.714 248 223.714 248 c 0
 268.714 248 281.676 229 319.676 229 c 0
 329.676 229 337.888 230 346.101 231 c 1
EndSplineSet
EndChar

StartChar: afii10096
Encoding: 1102 1102 102
Width: 774
VWidth: 999
Flags: HW
HStem: -10 43<491.623 588.559> -1 34<29 91.6475 212.352 275> 402 34<29 91.6475 212.352 275> 403 41<472.16 567.482>
VStem: 97 110<36.1563 398.688> 200 119<196 240> 311.3 115.9<119.406 317.729> 624.8 115<118.762 320.282>
LayerCount: 2
Fore
SplineSet
173.096 358 m 2
 179.047 386 172.447 402 139.447 402 c 2
 120.447 402 l 2
 115.447 402 113.085 405 114.148 410 c 2
 119.25 434 l 1
 121.675 436 l 1
 121.675 436 206.25 434 242.25 434 c 0
 281.25 434 367.675 436 367.675 436 c 1
 369.25 434 l 1
 364.148 410 l 2
 363.085 405 358.447 402 354.447 402 c 2
 335.447 402 l 2
 302.447 402 289.047 386 283.096 358 c 2
 258.014 240 l 1
 363.914 240 l 1
 400.878 359.8 493.976 444 620.375 444 c 0
 775.175 444 808.03 321 785.712 216 c 0
 764.244 115 670.074 -10 522.874 -10 c 0
 388.175 -10 337.127 96.0996 353.261 196 c 1
 248.661 196 l 1
 223.367 77 l 2
 217.203 48 224.015 33 257.015 33 c 2
 276.015 33 l 2
 280.015 33 283.377 30 282.102 24 c 2
 277.213 1 l 1
 274.787 -1 l 1
 274.787 -1 189.213 1 150.213 1 c 0
 114.213 1 28.7871 -1 28.7871 -1 c 1
 27.2129 1 l 1
 32.1016 24 l 2
 33.377 30 37.0146 33 42.0146 33 c 2
 61.0146 33 l 2
 94.0146 33 107.203 48 113.367 77 c 2
 173.096 358 l 2
602.16 403 m 0
 541.36 403 493.942 314 475.875 229 c 0
 460.146 155 469.314 33 547.215 33 c 0
 581.414 33 636.916 57 663.91 184 c 0
 694.306 327 666.76 403 602.16 403 c 0
EndSplineSet
EndChar

StartChar: afii10097
Encoding: 1103 1103 103
Width: 479
VWidth: 999
Flags: HW
HStem: -1 34<19 64.1167 231 284.833 389.366 450> 195 40<220.82 287> 204 31<163 174> 402 33<171.489 285.05 382.047 448>
VStem: 42 110<251.526 368.984> 287 92<38.896 195 235 399.272>
LayerCount: 2
Fore
SplineSet
336.951 235 m 1
 364.796 366 l 2
 371.598 398 365.447 402 326.447 402 c 0
 239.447 402 230.221 368 220.23 321 c 0
 209.603 271 212.951 235 268.951 235 c 2
 336.951 235 l 1
137.907 136 m 0
 162.622 177 188.086 198 217.361 204 c 1
 162.361 204 92.8008 239 107.893 310 c 0
 123.622 384 224.462 435 298.462 435 c 2
 375.462 435 l 1
 435.25 434 l 1
 540.675 436 l 1
 542.25 434 l 1
 536.085 405 l 2
 535.66 403 534.447 402 531.447 402 c 2
 506.447 402 l 2
 481.447 402 462.535 393 458.071 372 c 2
 396.217 81 l 2
 390.69 55 406.015 33 425.015 33 c 2
 446.015 33 l 2
 454.015 33 455.313 25 455.102 24 c 2
 449.787 -1 l 1
 449.787 -1 384.213 1 341.213 1 c 0
 298.213 1 230.787 -1 230.787 -1 c 1
 236.526 26 l 2
 237.377 30 240.015 33 244.015 33 c 2
 258.015 33 l 2
 292.015 33 295.928 42 304.217 81 c 2
 328.448 195 l 1
 300.448 195 l 2
 261.448 195 226.82 145 192.854 84 c 1
 171.14 43 132 0 100 0 c 2
 18.7871 -1 l 1
 16.2129 1 l 1
 20.251 20 l 2
 21.7393 27 27.9512 28 31.9512 28 c 2
 39.9512 28 l 2
 68.9512 28 115.83 98 137.907 136 c 0
EndSplineSet
EndChar

StartChar: uni04AE
Encoding: 1198 1198 104
Width: 541
Flags: HW
HStem: -1 36<154 228.839 358.336 435> 611 36<-9 41.811 186.001 236 379 429.999 514.645 584>
VStem: 232 123<36.304 280>
DStem2: 313 377 235 280 0.502568 -0.864537<-258.021 0> 313 377 353 292 0.468767 0.883322<0 253.301>
LayerCount: 2
Fore
SplineSet
247.941 75 m 2
 291.941 282 l 1
 294.516 280 l 1
 258.921 376 223.539 473 187.944 569 c 0
 179.833 592 175.384 604 171.021 607 c 0
 167.447 609 161.872 611 154.872 611 c 2
 139.872 611 l 1
 131.085 612 111.723 615 113.21 622 c 2
 116.611 638 l 1
 128.524 647 l 1
 128.524 647 233.099 645 246.099 645 c 0
 252.099 645 373.524 647 373.524 647 c 1
 381.611 638 l 1
 378.423 623 l 2
 377.147 617 366.872 611 347.872 611 c 2
 318.872 611 l 2
 316.872 611 315.234 608 313.959 602 c 0
 312.259 594 313.346 585 317.22 575 c 0
 346.278 500 364.501 454 393.134 377 c 1
 444.162 443 494.191 509 543.22 575 c 0
 551.559 586 556.471 595 557.959 602 c 0
 559.447 609 558.872 611 555.872 611 c 2
 525.872 611 l 1
 504.297 613 501.36 618 502.21 622 c 2
 505.611 638 l 1
 516.524 647 l 1
 516.524 647 608.099 645 621.099 645 c 0
 629.099 645 721.524 647 721.524 647 c 1
 728.611 638 l 1
 725.423 623 l 2
 723.51 614 711.872 611 691.872 611 c 2
 670.872 611 l 2
 655.872 611 644.534 600 620.944 569 c 2
 415.066 292 l 1
 417.279 293 l 1
 370.941 75 l 2
 364.99 47 372.439 35 395.439 35 c 2
 421.439 35 l 2
 437.439 35 450.589 31 448.889 23 c 2
 445.7 8 l 1
 434.787 -1 l 1
 434.787 -1 334.213 1 296.213 1 c 0
 261.213 1 153.787 -1 153.787 -1 c 1
 146.7 8 l 1
 149.889 23 l 2
 151.589 31 163.439 35 181.439 35 c 2
 207.439 35 l 2
 231.439 35 242.628 50 247.941 75 c 2
EndSplineSet
EndChar

StartChar: uni04C0
Encoding: 1216 1216 105
Width: 317
VWidth: 999
Flags: HW
HStem: -2 34<36 104.724 240.184 308> 613 34<36 104.724 240.184 308>
VStem: 111 122<37.5094 607.491>
LayerCount: 2
Fore
SplineSet
249.154 76 m 2
 243.203 48 253.802 32 294.802 32 c 2
 308.802 32 l 2
 313.802 32 316.164 29 314.889 23 c 2
 310 0 l 1
 307.575 -2 l 1
 307.575 -2 208 0 172 0 c 0
 133 0 35.5752 -2 35.5752 -2 c 1
 34 0 l 1
 38.8887 23 l 2
 40.1641 29 44.8018 32 48.8018 32 c 2
 62.8018 32 l 2
 102.802 32 120.353 44 127.154 76 c 2
 231.944 569 l 2
 238.746 601 226.297 613 186.297 613 c 2
 172.297 613 l 2
 168.297 613 164.935 616 165.998 621 c 2
 171.099 645 l 1
 173.524 647 l 1
 173.524 647 270.099 645 309.099 645 c 0
 345.099 645 445.524 647 445.524 647 c 1
 447.099 645 l 1
 441.998 621 l 2
 440.935 616 437.297 613 432.297 613 c 2
 418.297 613 l 2
 377.297 613 359.896 597 353.944 569 c 2
 249.154 76 l 2
EndSplineSet
EndChar

StartChar: uni04D0
Encoding: 1232 1232 106
Width: 699
VWidth: 999
Flags: HW
HStem: -1 34<10 60.0229 142.897 211 414 482.841 622.594 692> 241 47<234.168 403> 638 20<348.5 364.5> 698 31<313.536 404.309>
VStem: 234 70<736.681 803.162> 413 70<735.774 803.125>
DStem2: 89 91 148 79 0.384126 0.923281<-23.1403 196.063 246.684 479.281> 399 627 320 514 0.352654 -0.935754<77.8806 318.631 368.607 561.264>
LayerCount: 2
Fore
SplineSet
647.731 775 m 0
 636.679 723 569.364 698 506.364 698 c 0
 440.364 698 387.466 722 398.519 774 c 0
 403.195 796 417.108 805 444.108 805 c 0
 465.108 805 471.707 789 468.519 774 c 0
 468.094 772 466.031 767 465.818 766 c 0
 461.567 746 480.954 729 513.954 729 c 0
 543.954 729 571.93 743 576.605 765 c 0
 576.818 766 577.307 773 577.519 774 c 0
 580.707 789 593.108 805 616.108 805 c 0
 642.108 805 651.982 795 647.731 775 c 0
314.216 288 m 2
 464.216 288 l 1
 429.254 514 l 1
 297.767 300 l 1
 295.854 291 296.216 288 314.216 288 c 2
164.792 79 m 2
 147.628 50 143.015 33 202.015 33 c 0
 218.015 33 222.589 31 220.889 23 c 2
 216.638 3 l 1
 210.787 -1 l 1
 210.787 -1 119.213 1 95.2129 1 c 0
 70.2129 1 9.78711 -1 9.78711 -1 c 1
 2.4248 2 l 1
 6.88867 23 l 2
 9.01465 33 17.0146 33 29.0146 33 c 0
 49.0146 33 82.6279 50 108.343 91 c 2
 445.273 627 l 2
 460.374 651 482.862 658 493.862 658 c 0
 514.862 658 528.736 648 532.273 627 c 2
 620.343 91 l 2
 626.479 54 636.015 33 661.015 33 c 2
 689.015 33 l 2
 704.015 33 703.589 31 701.889 23 c 2
 697.638 3 l 1
 691.787 -1 l 1
 691.787 -1 596.213 1 558.213 1 c 0
 522.213 1 413.787 -1 413.787 -1 c 1
 406.851 4 l 1
 410.889 23 l 2
 412.589 31 421.015 33 439.015 33 c 2
 466.015 33 l 2
 483.015 33 493.353 44 496.541 59 c 0
 497.604 64 498.879 70 497.517 73 c 2
 471.227 241 l 1
 287.227 241 l 2
 267.227 241 262.014 240 253.25 227 c 2
 164.792 79 l 2
EndSplineSet
LCarets2: 1 0 
EndChar

StartChar: uni04D1
Encoding: 1233 1233 107
Width: 476
VWidth: 999
Flags: HW
HStem: -10 55<110.871 229.853 351 447.215> 406 38<148.426 256.61> 489 31<188.971 263.548>
VStem: 36 105<56.7004 159.155> 48 93<295.994 379.736> 105 73<526.632 605.612> 274 73<526.548 606.547> 282 108<69.6589 219 257 374.929>
DStem2: 210 236 225 202 0.96 0.28<-70.2096 64.36>
LayerCount: 2
Fore
SplineSet
469.646 577 m 0
 457.954 522 392.94 489 328.94 489 c 0
 263.94 489 215.954 522 227.433 576 c 0
 231.259 594 250.447 609 273.447 609 c 0
 295.447 609 304.471 595 301.07 579 c 0
 300.646 577 299.008 574 298.37 571 c 0
 296.732 568 296.095 565 295.669 563 c 0
 290.993 541 306.529 520 336.529 520 c 0
 365.529 520 390.78 540 395.457 562 c 0
 396.095 565 396.732 568 396.37 571 c 0
 395.795 573 396.433 576 396.857 578 c 0
 400.471 595 419.447 609 438.447 609 c 0
 462.447 609 473.684 596 469.646 577 c 0
291.203 48 m 1
 245.582 14.5 195.874 -10 153.874 -10 c 0
 66.874 -10 41.5264 26 56.1934 95 c 0
 72.9844 174 150.665 205.9 260.163 236 c 2
 336.627 257 l 1
 363.622 384 340.298 406 298.298 406 c 0
 260.298 406 224.535 393 219.858 371 c 0
 215.607 351 219.27 340 216.719 328 c 0
 213.743 314 184.642 290 156.642 290 c 0
 120.642 290 113.042 306 118.568 332 c 0
 131.322 392 247.375 444 320.375 444 c 0
 402.375 444 478.211 415 447.603 271 c 2
 416.782 126 l 2
 407.005 80 399.928 42 438.928 42 c 0
 463.127 42 467.528 58 473.328 58 c 0
 477.328 58 483.565 45 482.077 38 c 0
 481.015 33 433.874 -10 378.874 -10 c 0
 318.874 -10 297.02 9.5 293.203 48 c 1
 291.203 48 l 1
300.067 85 m 1
 328.55 219 l 1
 267.937 202 l 2
 193.173 181 173.096 151 164.381 110 c 0
 156.941 75 165.565 45 213.565 45 c 0
 231.565 45 270.816 65 300.067 85 c 1
EndSplineSet
LCarets2: 1 0 
EndChar

StartChar: uni04D2
Encoding: 1234 1234 108
Width: 699
VWidth: 999
Flags: HW
HStem: -1 34<10 60.0229 142.897 211 414 482.841 622.594 692> 241 47<234.168 403> 638 20<348.5 364.5> 703 107<235.97 322.324 416.676 503.03>
VStem: 225 108<714.388 798.537> 406 108<714.388 798.537>
DStem2: 89 91 148 79 0.384126 0.923281<-23.1403 196.063 246.684 479.281> 399 627 320 514 0.352654 -0.935754<77.8806 318.631 368.607 561.264>
LayerCount: 2
Fore
SplineSet
566.692 756 m 0
 573.069 786 602.171 810 632.171 810 c 0
 661.171 810 681.069 786 674.692 756 c 0
 668.528 727 638.428 703 609.428 703 c 0
 579.428 703 560.528 727 566.692 756 c 0
385.692 756 m 0
 392.069 786 422.171 810 451.171 810 c 0
 481.171 810 500.069 786 493.692 756 c 0
 487.528 727 458.428 703 428.428 703 c 0
 399.428 703 379.528 727 385.692 756 c 0
314.216 288 m 2
 464.216 288 l 1
 429.254 514 l 1
 297.767 300 l 1
 295.854 291 296.216 288 314.216 288 c 2
164.792 79 m 2
 147.628 50 143.015 33 202.015 33 c 0
 218.015 33 222.589 31 220.889 23 c 2
 216.638 3 l 1
 210.787 -1 l 1
 210.787 -1 119.213 1 95.2129 1 c 0
 70.2129 1 9.78711 -1 9.78711 -1 c 1
 2.4248 2 l 1
 6.88867 23 l 2
 9.01465 33 17.0146 33 29.0146 33 c 0
 49.0146 33 82.6279 50 108.343 91 c 2
 445.273 627 l 2
 460.374 651 482.862 658 493.862 658 c 0
 514.862 658 528.736 648 532.273 627 c 2
 620.343 91 l 2
 626.479 54 636.015 33 661.015 33 c 2
 689.015 33 l 2
 704.015 33 703.589 31 701.889 23 c 2
 697.638 3 l 1
 691.787 -1 l 1
 691.787 -1 596.213 1 558.213 1 c 0
 522.213 1 413.787 -1 413.787 -1 c 1
 406.851 4 l 1
 410.889 23 l 2
 412.589 31 421.015 33 439.015 33 c 2
 466.015 33 l 2
 483.015 33 493.353 44 496.541 59 c 0
 497.604 64 498.879 70 497.517 73 c 2
 471.227 241 l 1
 287.227 241 l 2
 267.227 241 262.014 240 253.25 227 c 2
 164.792 79 l 2
EndSplineSet
LCarets2: 1 0 
EndChar

StartChar: uni04D3
Encoding: 1235 1235 109
Width: 476
VWidth: 999
Flags: HW
HStem: -10 55<110.871 229.853 351 447.215> 406 38<148.426 256.61> 518 107<91.9699 178.324 272.676 359.03>
VStem: 36 105<56.7004 159.155> 48 93<295.994 379.736> 81 108<529.388 613.537> 262 108<529.388 613.537> 282 108<69.6589 219 257 374.929>
DStem2: 210 236 225 202 0.96 0.28<-70.2096 64.36>
LayerCount: 2
Fore
SplineSet
383.37 571 m 0
 389.746 601 418.848 625 448.848 625 c 0
 477.848 625 497.746 601 491.37 571 c 0
 485.206 542 455.104 518 426.104 518 c 0
 396.104 518 377.206 542 383.37 571 c 0
202.37 571 m 0
 208.746 601 238.848 625 267.848 625 c 0
 297.848 625 316.746 601 310.37 571 c 0
 304.206 542 275.104 518 245.104 518 c 0
 216.104 518 196.206 542 202.37 571 c 0
291.203 48 m 1
 245.582 14.5 195.874 -10 153.874 -10 c 0
 66.874 -10 41.5264 26 56.1934 95 c 0
 72.9844 174 150.665 205.9 260.163 236 c 2
 336.627 257 l 1
 363.622 384 340.298 406 298.298 406 c 0
 260.298 406 224.535 393 219.858 371 c 0
 215.607 351 219.27 340 216.719 328 c 0
 213.743 314 184.642 290 156.642 290 c 0
 120.642 290 113.042 306 118.568 332 c 0
 131.322 392 247.375 444 320.375 444 c 0
 402.375 444 478.211 415 447.603 271 c 2
 416.782 126 l 2
 407.005 80 399.928 42 438.928 42 c 0
 463.127 42 467.528 58 473.328 58 c 0
 477.328 58 483.565 45 482.077 38 c 0
 481.015 33 433.874 -10 378.874 -10 c 0
 318.874 -10 297.02 9.5 293.203 48 c 1
 291.203 48 l 1
300.067 85 m 1
 328.55 219 l 1
 267.937 202 l 2
 193.173 181 173.096 151 164.381 110 c 0
 156.941 75 165.565 45 213.565 45 c 0
 231.565 45 270.816 65 300.067 85 c 1
EndSplineSet
LCarets2: 1 0 
EndChar

StartChar: uni04D4
Encoding: 1236 1236 110
Width: 910
VWidth: 999
Flags: HW
HStem: -1 34<4 81.5469 161.374 218 362 442.155> 1 46<571.232 790.184> 266 39<291 449> 324 42<571 708.75> 428 20<730 762> 601 45<571.232 768.482> 613 33<296 356.281>
VStem: 449 122<47.4756 266 305 324 366 558.22> 719 36<252.814 316.565 373.435 437.232> 821 40<483.425 532.807> 846 44<116.362 171.591>
DStem2: 95 70 165 68 0.465821 0.884879<8.60003 255.421 299.247 590.236>
LayerCount: 2
Fore
SplineSet
355.83 305 m 1
 513.83 305 l 1
 564.844 545 l 2
 570.37 571 559.937 577.9 536.056 546 c 2
 355.83 305 l 1
516.213 1 m 1
 361.787 -1 l 1
 360.213 1 l 1
 364.889 23 l 2
 366.164 29 370.015 33 375.015 33 c 2
 402.015 33 l 2
 443.015 33 459.415 49 465.367 77 c 2
 505.54 266 l 1
 327.54 266 l 1
 179.454 68 l 2
 157.29 39 187.015 33 221.015 33 c 0
 225.015 33 226.164 29 225.739 27 c 2
 220.213 1 l 1
 217.787 -1 l 1
 217.787 -1 143.213 1 104.213 1 c 0
 69.2129 1 3.78711 -1 3.78711 -1 c 1
 2.21289 1 l 1
 7.31348 25 l 2
 8.37695 30 13.0146 33 19.0146 33 c 2
 42.0146 33 l 2
 70.0146 33 83.4395 35 109.879 70 c 2
 473.457 562 l 2
 500.321 599 478.297 613 432.297 613 c 0
 426.297 613 424.935 616 425.785 620 c 2
 431.099 645 l 1
 433.312 646 l 1
 654.312 646 l 1
 977.312 646 l 1
 969.195 589 965.931 536 964.09 485 c 1
 922.177 476 l 1
 919.018 527 909.746 601 842.746 601 c 2
 712.746 601 l 2
 703.746 601 697.046 593 692.582 572 c 2
 648.796 366 l 1
 762.796 366 l 2
 786.796 366 797.173 396 811.887 437 c 0
 812.737 441 820.226 448 830.226 448 c 2
 851.226 448 l 1
 855.1 438 l 1
 849.699 422 835.984 381 828.332 345 c 0
 820.68 309 817.178 269 815.564 252 c 1
 807.651 243 l 1
 786.651 243 l 2
 776.651 243 771.927 249 772.776 253 c 0
 775.491 294 777.868 324 753.868 324 c 2
 639.868 324 l 1
 587.154 76 l 2
 582.266 53 585.99 47 594.99 47 c 2
 747.99 47 l 2
 802.99 47 852.531 106 884.26 180 c 1
 926.135 170 l 1
 903.869 117 881.69 55 862.213 1 c 1
 516.213 1 l 1
EndSplineSet
EndChar

StartChar: uni04D5
Encoding: 1237 1237 111
Width: 715
VWidth: 999
Flags: HW
HStem: -12 50<170.4 265.865 476.5 578.383> 209 44<222.016 301> 399 45<457.148 555.404> 407 37<161.99 261.109>
VStem: 47 104<57.8405 157.134> 58 97<311.521 385.652> 301 105<117.991 209 260 335.245> 574 104<295.592 383.979>
LayerCount: 2
Fore
SplineSet
590.811 399 m 0
 538.811 399 489.057 339 463.265 260 c 1
 571.753 267 634.578 285 646.057 339 c 0
 654.347 378 625.811 399 590.811 399 c 0
309.894 103 m 0
 318.082 118 334.435 162 345.424 209 c 1
 247.874 197 184.159 156 174.594 111 c 0
 165.879 70 189.077 38 225.077 38 c 0
 256.077 38 280.841 51 309.894 103 c 0
324.375 444 m 0
 374.375 444 425.675 436 449.622 384 c 1
 487.911 423 549.588 445 607.375 444 c 1
 730.375 444 761.747 394 750.694 342 c 0
 732.627 257 637.975 221 452.125 217 c 1
 431.656 116 472.353 44 533.353 44 c 0
 575.353 44 612.241 67 656.169 109 c 1
 691.067 85 l 1
 650.589 31 586.449 -12 508.449 -12 c 0
 426.449 -12 395.464 21 366.879 70 c 1
 324.401 16 261.449 -12 199.449 -12 c 0
 124.449 -12 49.126 10 65.918 89 c 0
 85.0479 179 184.801 239 354.776 253 c 1
 377.096 358 351.511 407 304.511 407 c 0
 267.511 407 238.535 393 233.858 371 c 0
 229.607 351 234.27 340 231.719 328 c 0
 228.743 314 214.004 287 169.004 287 c 0
 134.004 287 124.53 313 130.057 339 c 0
 142.811 399 252.375 444 324.375 444 c 0
EndSplineSet
EndChar

StartChar: uni04D6
Encoding: 1238 1238 112
Width: 562
VWidth: 999
Flags: HW
HStem: 0 33<27 94.1445> 0 46<224.232 442.935> 323 42<224 361.625> 427 20<383 415> 600 46<224.232 421.482> 613 33<27 94.1445> 698 31<228.536 319.309>
VStem: 101 123<46.578 323 365 599.422> 149 70<736.681 803.162> 328 70<735.774 803.125> 372 36<251.814 315.565 372.621 436.233> 474 40<482.425 531.807> 499 43<118.211 170.628>
LayerCount: 2
Fore
SplineSet
562.731 775 m 0
 551.679 723 484.364 698 421.364 698 c 0
 355.364 698 302.466 722 313.519 774 c 0
 318.195 796 332.108 805 359.108 805 c 0
 380.108 805 386.707 789 383.519 774 c 0
 383.094 772 381.031 767 380.818 766 c 0
 376.567 746 395.954 729 428.954 729 c 0
 458.954 729 486.93 743 491.605 765 c 0
 491.818 766 492.307 773 492.519 774 c 0
 495.707 789 508.108 805 531.108 805 c 0
 557.108 805 566.982 795 562.731 775 c 0
27 0 m 1
 24.4248 2 l 1
 29.1016 24 l 2
 30.377 30 35.0146 33 39.0146 33 c 2
 53.0146 33 l 2
 93.0146 33 110.565 45 117.367 77 c 2
 221.944 569 l 2
 228.746 601 216.297 613 176.297 613 c 2
 162.297 613 l 2
 158.297 613 154.935 616 155.998 621 c 2
 160.887 644 l 1
 164.312 646 l 1
 630.312 646 l 1
 621.983 588 617.718 535 616.877 484 c 1
 574.965 475 l 1
 571.805 526 562.534 600 495.534 600 c 2
 365.534 600 l 2
 356.534 600 349.834 592 345.37 571 c 2
 301.583 365 l 1
 414.583 365 l 2
 439.583 365 450.173 396 464.675 436 c 0
 465.524 440 473.013 447 483.013 447 c 2
 504.013 447 l 1
 507.887 437 l 1
 502.486 421 488.984 381 481.119 344 c 0
 473.468 308 469.965 268 468.352 251 c 1
 460.438 242 l 1
 439.438 242 l 2
 429.438 242 424.714 248 425.564 252 c 0
 428.279 293 430.656 323 405.656 323 c 2
 292.656 323 l 1
 239.941 75 l 2
 235.053 52 238.777 46 247.777 46 c 2
 400.777 46 l 2
 455.777 46 504.318 105 537.048 179 c 1
 577.922 169 l 1
 556.656 116 533.479 54 515 0 c 1
 27 0 l 1
EndSplineSet
LCarets2: 1 0 
EndChar

StartChar: uni04D7
Encoding: 1239 1239 113
Width: 461
VWidth: 999
Flags: HW
HStem: -10 56<218.732 346.305> 245 40<154 316> 402 42<199.114 288.493> 489 31<201.971 276.548>
VStem: 34 115<124.669 245 285 306.603> 118 73<526.632 605.612> 287 73<526.548 606.547> 316 115<259 363.973>
LayerCount: 2
Fore
SplineSet
482.646 577 m 0
 470.954 522 405.94 489 341.94 489 c 0
 276.94 489 228.954 522 240.433 576 c 0
 244.259 594 263.447 609 286.447 609 c 0
 308.447 609 317.471 595 314.07 579 c 0
 313.646 577 312.008 574 311.37 571 c 0
 309.732 568 309.095 565 308.669 563 c 0
 303.993 541 319.529 520 349.529 520 c 0
 378.529 520 403.78 540 408.457 562 c 0
 409.095 565 409.732 568 409.37 571 c 0
 408.795 573 409.433 576 409.857 578 c 0
 413.471 595 432.447 609 451.447 609 c 0
 475.447 609 486.684 596 482.646 577 c 0
214.578 285 m 1
 374.578 285 l 1
 377.004 287 377.642 290 378.917 296 c 0
 395.921 376 360.447 402 333.447 402 c 0
 312.447 402 250.26 387 214.578 285 c 1
420.169 109 m 1
 440.705 88 l 1
 387.764 13 312.874 -10 243.874 -10 c 0
 91.874 -10 52.7051 88 76.0859 198 c 0
 108.607 351 238.375 444 343.375 444 c 0
 490.375 444 505.607 351 487.54 266 c 0
 484.564 252 468.076 245 444.076 245 c 2
 201.076 245 l 1
 200.014 240 197.038 226 195.55 219 c 0
 174.72 121 216.777 46 294.777 46 c 0
 332.777 46 373.604 64 420.169 109 c 1
EndSplineSet
LCarets2: 1 0 
EndChar

StartChar: uni04D8
Encoding: 1240 1240 114
Width: 692
VWidth: 999
Flags: HW
HStem: -12 41<271.879 417.179> 213 52<163 523> 617 41<239.681 396.442>
VStem: 534 132<228.384 438.088>
LayerCount: 2
Fore
SplineSet
568.274 213 m 1
 208.274 213 l 1
 214.13 90 272.164 29 356.164 29 c 0
 445.164 29 529.082 118 568.274 213 c 1
221.916 503 m 1
 190.844 545 l 1
 287.785 620 355.862 658 475.862 658 c 0
 703.862 658 769.09 485 735.506 327 c 0
 693.845 131 544.449 -12 340.449 -12 c 0
 134.449 -12 77.5068 120 96.3271 265 c 1
 589.327 265 l 1
 592.24 274 595.004 287 597.129 297 c 0
 635.814 479 573.147 617 453.147 617 c 0
 373.147 617 295.244 561 221.916 503 c 1
EndSplineSet
EndChar

StartChar: afii10846
Encoding: 1241 1241 115
Width: 461
VWidth: 999
Flags: HW
HStem: -11 42<172.507 261.886> 148 40<145 307> 387 56<114.695 242.268>
VStem: 30 115<69.027 174> 312 115<126.397 148 188 308.331>
LayerCount: 2
Fore
SplineSet
338.458 148 m 1
 178.458 148 l 1
 176.033 146 175.396 143 174.12 137 c 0
 157.115 57 192.589 31 219.589 31 c 0
 240.589 31 302.777 46 338.458 148 c 1
132.868 324 m 1
 112.332 345 l 1
 165.273 420 240.162 443 309.162 443 c 0
 461.162 443 500.332 345 476.951 235 c 0
 444.43 82 314.662 -11 209.662 -11 c 0
 62.6621 -11 47.4297 82 65.4971 167 c 0
 68.4727 181 84.9609 188 108.961 188 c 2
 351.961 188 l 1
 353.023 193 355.999 207 357.487 214 c 0
 378.317 312 336.26 387 258.26 387 c 0
 220.26 387 179.434 369 132.868 324 c 1
EndSplineSet
EndChar

StartChar: uni04DA
Encoding: 1242 1242 116
Width: 692
VWidth: 999
Flags: HW
HStem: -12 41<271.879 417.179> 213 52<163 523> 617 41<239.681 396.442> 695 107<188.676 274.685 376.676 463.03>
VStem: 178 107<705.609 791.324> 366 108<706.388 790.537> 534 132<228.384 438.088>
LayerCount: 2
Fore
SplineSet
336.992 748 m 0
 343.369 778 372.471 802 402.471 802 c 0
 432.471 802 450.369 778 443.992 748 c 0
 437.615 718 409.727 695 379.727 695 c 0
 349.727 695 330.615 718 336.992 748 c 0
524.992 748 m 0
 531.369 778 560.471 802 590.471 802 c 0
 620.471 802 638.369 778 631.992 748 c 0
 625.615 718 597.727 695 567.727 695 c 0
 537.727 695 518.615 718 524.992 748 c 0
568.274 213 m 1
 208.274 213 l 1
 214.13 90 272.164 29 356.164 29 c 0
 445.164 29 529.082 118 568.274 213 c 1
221.916 503 m 1
 190.844 545 l 1
 287.785 620 355.862 658 475.862 658 c 0
 703.862 658 769.09 485 735.506 327 c 0
 693.845 131 544.449 -12 340.449 -12 c 0
 134.449 -12 77.5068 120 96.3271 265 c 1
 589.327 265 l 1
 592.24 274 595.004 287 597.129 297 c 0
 635.814 479 573.147 617 453.147 617 c 0
 373.147 617 295.244 561 221.916 503 c 1
EndSplineSet
LCarets2: 1 0 
EndChar

StartChar: uni04DB
Encoding: 1243 1243 117
Width: 461
VWidth: 999
Flags: HW
HStem: -11 42<172.507 261.886> 148 40<145 307> 387 56<114.695 242.268> 518 107<79.9699 166.324 260.676 347.03>
VStem: 30 115<69.027 174> 69 108<529.388 613.537> 250 108<529.388 613.537> 312 115<126.397 148 188 308.331>
LayerCount: 2
Fore
SplineSet
371.37 571 m 0
 377.746 601 406.848 625 436.848 625 c 0
 465.848 625 485.746 601 479.37 571 c 0
 473.206 542 443.104 518 414.104 518 c 0
 384.104 518 365.206 542 371.37 571 c 0
190.37 571 m 0
 196.746 601 226.848 625 255.848 625 c 0
 285.848 625 304.746 601 298.37 571 c 0
 292.206 542 263.104 518 233.104 518 c 0
 204.104 518 184.206 542 190.37 571 c 0
338.458 148 m 1
 178.458 148 l 1
 176.033 146 175.396 143 174.12 137 c 0
 157.115 57 192.589 31 219.589 31 c 0
 240.589 31 302.777 46 338.458 148 c 1
132.868 324 m 1
 112.332 345 l 1
 165.273 420 240.162 443 309.162 443 c 0
 461.162 443 500.332 345 476.951 235 c 0
 444.43 82 314.662 -11 209.662 -11 c 0
 62.6621 -11 47.4297 82 65.4971 167 c 0
 68.4727 181 84.9609 188 108.961 188 c 2
 351.961 188 l 1
 353.023 193 355.999 207 357.487 214 c 0
 378.317 312 336.26 387 258.26 387 c 0
 220.26 387 179.434 369 132.868 324 c 1
EndSplineSet
LCarets2: 1 0 
EndChar

StartChar: uni04E0
Encoding: 1248 1248 118
Width: 632
VWidth: 999
Flags: HW
HStem: -208 48<239.267 370.096> 600 46<156.06 435>
VStem: 57 56<468.375 534.227> 464 132<-45.3333 153.188>
DStem2: 238 243 398 289 0.483142 0.875542<117.578 407.747>
LayerCount: 2
Fore
SplineSet
669.312 646 m 2
 705.312 646 717.823 639 715.698 629 c 0
 714.21 622 699.172 603 686.559 586 c 2
 459.429 289 l 1
 588.627 257 630.222 161 607.479 54 c 0
 577.933 -85 431.788 -208 240.788 -208 c 0
 153.788 -208 -1.55957 -172 12.6816 -105 c 0
 17.9951 -80 39.9473 -52 89.9473 -52 c 0
 125.947 -52 157.759 -67 168.295 -88 c 0
 188.802 -128.9 228.991 -160 268.991 -160 c 0
 345.991 -160 448.908 -71 473.565 45 c 0
 506.512 200 418.564 252 357.564 252 c 0
 345.564 252 335.564 252 289.651 243 c 1
 562.534 600 l 1
 325.534 600 l 1
 269.321 599 225.191 509 211.626 464 c 1
 156.689 469 l 1
 222.263 674 l 1
 257.562 666 255.713 662 264.075 659 c 0
 280.587 652 297.312 646 305.312 646 c 2
 669.312 646 l 2
EndSplineSet
EndChar

StartChar: uni04E1
Encoding: 1249 1249 119
Width: 450
VWidth: 999
Flags: HW
HStem: -227 37<160.355 250.096> 386 47<121 269>
VStem: 316 117<-114.702 49.9858>
DStem2: 110 98 254 156 0.483318 0.875445<120.374 328.976>
LayerCount: 2
Fore
SplineSet
216.524 440 m 0
 215.462 435 214.037 433 213.037 433 c 2
 440.037 433 l 2
 474.037 433 484.975 428 482.424 416 c 0
 481.786 413 474.447 402 463.047 386 c 2
 287.159 156 l 1
 397.333 138 447.666 69 426.623 -30 c 0
 406.005 -127 301.75 -227 144.75 -227 c 0
 41.75 -227 -18.5352 -186 -11.0957 -151 c 0
 -7.48242 -134 9.13086 -117 46.1309 -117 c 0
 80.1309 -117 100.643 -124 109.754 -147 c 0
 117.29 -168 134.614 -190 161.614 -190 c 0
 203.614 -190 285.18 -145 309.411 -31 c 0
 326.841 51 283.807 112 217.807 112 c 0
 202.807 112 173.743 107 130.83 98 c 1
 351.047 386 l 1
 233.047 386 l 2
 214.047 386 192.283 373 154.004 287 c 1
 102.279 293 l 1
 169.501 454 l 1
 218.8 446 l 1
 217.375 444 216.737 441 216.524 440 c 0
EndSplineSet
EndChar

StartChar: uni04E6
Encoding: 1254 1254 120
Width: 730
VWidth: 999
Flags: HW
HStem: -10 41<303.11 453.742> 617 41<284.435 429.841> 695 107<209.676 295.685 397.676 484.03>
VStem: 37 131<190.561 438.95> 199 107<705.609 791.324> 387 108<706.388 790.537> 562 132<199.461 449.883>
LayerCount: 2
Fore
SplineSet
357.992 748 m 0
 364.369 778 393.471 802 423.471 802 c 0
 453.471 802 471.369 778 464.992 748 c 0
 458.615 718 430.727 695 400.727 695 c 0
 370.727 695 351.615 718 357.992 748 c 0
545.992 748 m 0
 552.369 778 581.471 802 611.471 802 c 0
 641.471 802 659.369 778 652.992 748 c 0
 646.615 718 618.727 695 588.727 695 c 0
 558.727 695 539.615 718 545.992 748 c 0
482.147 617 m 0
 397.147 617 281.08 532 237.719 328 c 0
 197.758 140 272.589 31 390.589 31 c 0
 491.589 31 590.908 136 627.893 310 c 0
 671.041 513 595.147 617 482.147 617 c 0
763.931 329 m 0
 721.42 129 563.874 -10 361.874 -10 c 0
 179.874 -10 61.0186 113 103.105 311 c 0
 144.767 507 312.862 658 502.862 658 c 0
 679.862 658 806.229 528 763.931 329 c 0
EndSplineSet
LCarets2: 1 0 
EndChar

StartChar: uni04E7
Encoding: 1255 1255 121
Width: 519
VWidth: 999
Flags: HW
HStem: -10 43<223.814 325.852> 403 41<203.326 303.665> 519 107<122.97 209.324 303.676 390.03>
VStem: 34 122<119.406 317.729> 112 108<530.388 614.537> 293 108<530.388 614.537> 364 121<118.762 320.282>
LayerCount: 2
Fore
SplineSet
335.66 403 m 0
 271.66 403 222.743 314 204.676 229 c 0
 188.946 155 200.015 33 282.015 33 c 0
 318.015 33 376.115 57 403.11 184 c 0
 433.506 327 403.66 403 335.66 403 c 0
77.999 207 m 0
 107.119 344 209.375 444 354.375 444 c 0
 517.375 444 553.23 321 530.912 216 c 0
 509.444 115 411.874 -10 256.874 -10 c 0
 109.874 -10 56.1055 104 77.999 207 c 0
414.582 572 m 0
 420.959 602 450.061 626 480.061 626 c 0
 509.061 626 528.959 602 522.582 572 c 0
 516.418 543 486.316 519 457.316 519 c 0
 427.316 519 408.418 543 414.582 572 c 0
233.582 572 m 0
 239.959 602 270.061 626 299.061 626 c 0
 329.061 626 347.959 602 341.582 572 c 0
 335.418 543 306.316 519 276.316 519 c 0
 247.316 519 227.418 543 233.582 572 c 0
EndSplineSet
LCarets2: 1 0 
EndChar

StartChar: uni04E8
Encoding: 1256 1256 122
Width: 730
VWidth: 999
Flags: HW
HStem: -10 41<303.11 453.742> 265 58<379.47 528.369> 311 58<169.37 336.519> 617 41<284.435 429.841>
VStem: 37 131<190.561 438.95> 95 15<267.333 271.216> 562 132<199.461 449.883>
LayerCount: 2
Fore
SplineSet
763.931 329 m 0
 721.42 129 563.874 -10 361.874 -10 c 0
 179.874 -10 61.0186 113 103.105 311 c 0
 144.767 507 312.862 658 502.862 658 c 0
 679.862 658 806.229 528 763.931 329 c 0
635.447 352.6 m 1
 659.823 527.5 586.947 617 482.147 617 c 0
 399.848 617 288.507 537.3 242.1 347.2 c 1
 279.488 362.2 319.434 369 345.434 369 c 0
 444.434 369 464.656 323 527.656 323 c 0
 556.355 323 599.345 333.3 635.447 352.6 c 1
627.531 308.3 m 1
 580.56 275.5 532.628 265 497.327 265 c 0
 405.327 265 391.105 311 316.105 311 c 0
 295.805 311 263.559 308.9 232.467 300 c 1
 205.362 129.2 278.589 31 390.589 31 c 0
 491.289 31 590.259 135.3 627.531 308.3 c 1
EndSplineSet
EndChar

StartChar: uni04E9
Encoding: 1257 1257 123
Width: 519
VWidth: 999
Flags: HW
HStem: -10 43<223.814 325.852> 176 54<224.827 349.161> 207 45<148.343 245.732> 403 41<203.326 303.665>
VStem: 34 122<119.406 317.729> 364 121<118.762 320.282>
AnchorPoint: "unten_punkt" 223.257 -107 basechar 0
AnchorPoint: "top_punkt" 360.906 550 basechar 0
AnchorPoint: "top_akzent" 373.099 645 basechar 0
LayerCount: 2
Fore
SplineSet
77.999 207 m 0
 107.119 344 209.375 444 354.375 444 c 0
 517.375 444 553.23 321 530.912 216 c 0
 509.444 115 411.874 -10 256.874 -10 c 0
 109.874 -10 56.1055 104 77.999 207 c 0
412.301 239 m 1
 424.63 346.4 394.36 403 335.66 403 c 0
 272.96 403 224.729 317.7 205.802 234.3 c 1
 228.885 244.1 260.664 252 283.564 252 c 0
 323.564 252 338.888 230 372.888 230 c 0
 386.188 230 399.938 234 412.301 239 c 1
407.535 206.7 m 1
 383.838 192.6 349.61 176 322.41 176 c 0
 283.41 176 258.999 207 227.999 207 c 0
 222.1 207 210.646 204.4 200.437 202 c 1
 192.456 128.7 209.414 33 282.015 33 c 0
 318.015 33 376.115 57 403.11 184 c 0
 404.769 191.8 406.263 199.3 407.535 206.7 c 1
EndSplineSet
EndChar

StartChar: uni04EA
Encoding: 1258 1258 124
Width: 730
VWidth: 999
Flags: HW
HStem: -10 41<303.11 453.742> 265 58<379.47 528.369> 311 58<169.37 336.519> 617 41<284.435 429.841> 697 107<226.676 312.685 414.676 501.03>
VStem: 37 131<190.561 438.95> 95 15<267.333 271.216> 216 107<707.609 793.324> 404 108<708.388 792.537> 562 132<199.461 449.883>
LayerCount: 2
Fore
SplineSet
375.417 750 m 0
 381.794 780 410.896 804 440.896 804 c 0
 470.896 804 488.794 780 482.417 750 c 0
 476.041 720 448.152 697 418.152 697 c 0
 388.152 697 369.041 720 375.417 750 c 0
563.417 750 m 0
 569.794 780 598.896 804 628.896 804 c 0
 658.896 804 676.794 780 670.417 750 c 0
 664.041 720 636.152 697 606.152 697 c 0
 576.152 697 557.041 720 563.417 750 c 0
763.931 329 m 0
 721.42 129 563.874 -10 361.874 -10 c 0
 179.874 -10 61.0186 113 103.105 311 c 0
 144.767 507 312.862 658 502.862 658 c 0
 679.862 658 806.229 528 763.931 329 c 0
635.447 352.6 m 1
 659.823 527.5 586.947 617 482.147 617 c 0
 399.848 617 288.507 537.3 242.1 347.2 c 1
 279.488 362.2 319.434 369 345.434 369 c 0
 444.434 369 464.656 323 527.656 323 c 0
 556.355 323 599.345 333.3 635.447 352.6 c 1
627.531 308.3 m 1
 580.56 275.5 532.628 265 497.327 265 c 0
 405.327 265 391.105 311 316.105 311 c 0
 295.805 311 263.559 308.9 232.467 300 c 1
 205.362 129.2 278.589 31 390.589 31 c 0
 491.289 31 590.259 135.3 627.531 308.3 c 1
EndSplineSet
LCarets2: 1 0 
EndChar

StartChar: uni04EB
Encoding: 1259 1259 125
Width: 519
VWidth: 999
Flags: HW
HStem: -10 43<223.814 325.852> 176 54<224.827 349.161> 207 45<148.343 245.732> 403 41<203.326 303.665> 518 107<124.97 211.324 305.676 392.03>
VStem: 34 122<119.406 317.729> 114 108<529.388 613.537> 295 108<529.388 613.537> 364 121<118.762 320.282>
LayerCount: 2
Fore
SplineSet
77.999 207 m 0
 107.119 344 209.375 444 354.375 444 c 0
 517.375 444 553.23 321 530.912 216 c 0
 509.444 115 411.874 -10 256.874 -10 c 0
 109.874 -10 56.1055 104 77.999 207 c 0
416.37 571 m 0
 422.746 601 451.848 625 481.848 625 c 0
 510.848 625 530.746 601 524.37 571 c 0
 518.206 542 488.104 518 459.104 518 c 0
 429.104 518 410.206 542 416.37 571 c 0
235.37 571 m 0
 241.746 601 271.848 625 300.848 625 c 0
 330.848 625 349.746 601 343.37 571 c 0
 337.206 542 308.104 518 278.104 518 c 0
 249.104 518 229.206 542 235.37 571 c 0
412.301 239 m 1
 424.63 346.4 394.36 403 335.66 403 c 0
 272.96 403 224.729 317.7 205.802 234.3 c 1
 228.885 244.1 260.664 252 283.564 252 c 0
 323.564 252 338.888 230 372.888 230 c 0
 386.188 230 399.938 234 412.301 239 c 1
407.535 206.7 m 1
 383.838 192.6 349.61 176 322.41 176 c 0
 283.41 176 258.999 207 227.999 207 c 0
 222.1 207 210.646 204.4 200.437 202 c 1
 192.456 128.7 209.414 33 282.015 33 c 0
 318.015 33 376.115 57 403.11 184 c 0
 404.769 191.8 406.263 199.3 407.535 206.7 c 1
EndSplineSet
LCarets2: 1 0 
EndChar

StartChar: uni04EF
Encoding: 1263 1263 126
Width: 533
VWidth: 999
Flags: HW
HStem: -232.2 65.3<98.4399 174.076> 402 34<13 65.4406 195.582 240 340 384.791 462.58 516> 536 48<130.823 429.922>
VStem: 129 303<536.402 583.772>
DStem2: 199 357 92 336 0.37552 -0.926814<-34.5285 268.481> 215 -61 266 -71 0.373718 0.927542<-120.484 52.1765 182.748 398.364>
LayerCount: 2
Fore
SplineSet
504.481 341 m 2
 250.908 -71 l 2
 199.054 -155 139.944 -232.2 59.7441 -232.2 c 0
 38.3447 -232.2 -13.4346 -219.4 -4.57129 -177.7 c 0
 2.69824 -143.5 36.2539 -126.3 65.1543 -126.3 c 0
 81.2539 -126.3 97.5996 -140.2 101.959 -149.8 c 0
 106.318 -159.4 110.024 -166.9 117.524 -166.9 c 0
 125.024 -166.9 156.667 -138 202.034 -61 c 2
 230.449 -12 l 1
 163.419 336 l 2
 153.825 385.9 145.447 402 105.447 402 c 0
 99.4473 402 95.873 404 96.9355 409 c 2
 102.25 434 l 1
 105.675 436 l 1
 105.675 436 169.949 434 211.25 434 c 0
 258.449 434 332.675 436 332.675 436 c 1
 336.25 434 l 1
 331.148 410 l 2
 329.66 403 323.447 402 321.447 402 c 0
 281.447 402 270.472 388 274.883 357 c 2
 314.318 105 l 1
 365.961 188 429.129 297 459.458 355 c 0
 479.109 391 460.447 402 429.447 402 c 0
 424.447 402 422.298 406 422.936 409 c 2
 428.037 433 l 1
 432.675 436 l 1
 432.675 436 500.55 434 544.25 434 c 0
 569.25 434 608.675 436 608.675 436 c 1
 610.25 434 l 1
 605.36 411 l 2
 604.298 406 598.447 402 592.447 402 c 0
 563.447 402 530.409 383 504.481 341 c 2
525.718 535 m 2
 251.718 535 l 2
 240.718 535 238.631 544 240.544 553 c 0
 243.095 565 259.346 585 272.346 585 c 2
 548.346 585 l 2
 558.346 585 560.433 576 558.732 568 c 0
 555.969 555 539.718 535 525.718 535 c 2
EndSplineSet
LCarets2: 1 0 
EndChar

StartChar: uni04F1
Encoding: 1265 1265 127
Width: 533
VWidth: 999
Flags: HW
HStem: -232.2 65.3<98.4399 174.076> 402 34<13 65.4406 195.582 240 340 384.791 462.58 516> 518 107<157.97 244.324 338.676 425.03>
VStem: 147 108<529.388 613.537> 328 108<529.388 613.537>
DStem2: 199 357 92 336 0.37552 -0.926814<-34.5285 268.481> 215 -61 266 -71 0.373718 0.927542<-120.484 52.1765 182.748 398.364>
LayerCount: 2
Fore
SplineSet
504.481 341 m 2
 250.908 -71 l 2
 199.054 -155 139.944 -232.2 59.7441 -232.2 c 0
 38.3447 -232.2 -13.4346 -219.4 -4.57129 -177.7 c 0
 2.69824 -143.5 36.2539 -126.3 65.1543 -126.3 c 0
 81.2539 -126.3 97.5996 -140.2 101.959 -149.8 c 0
 106.318 -159.4 110.024 -166.9 117.524 -166.9 c 0
 125.024 -166.9 156.667 -138 202.034 -61 c 2
 230.449 -12 l 1
 163.419 336 l 2
 153.825 385.9 145.447 402 105.447 402 c 0
 99.4473 402 95.873 404 96.9355 409 c 2
 102.25 434 l 1
 105.675 436 l 1
 105.675 436 169.949 434 211.25 434 c 0
 258.449 434 332.675 436 332.675 436 c 1
 336.25 434 l 1
 331.148 410 l 2
 329.66 403 323.447 402 321.447 402 c 0
 281.447 402 270.472 388 274.883 357 c 2
 314.318 105 l 1
 365.961 188 429.129 297 459.458 355 c 0
 479.109 391 460.447 402 429.447 402 c 0
 424.447 402 422.298 406 422.936 409 c 2
 428.037 433 l 1
 432.675 436 l 1
 432.675 436 500.55 434 544.25 434 c 0
 569.25 434 608.675 436 608.675 436 c 1
 610.25 434 l 1
 605.36 411 l 2
 604.298 406 598.447 402 592.447 402 c 0
 563.447 402 530.409 383 504.481 341 c 2
449.37 571 m 0
 455.746 601 484.848 625 514.848 625 c 0
 543.848 625 563.746 601 557.37 571 c 0
 551.206 542 521.104 518 492.104 518 c 0
 462.104 518 443.206 542 449.37 571 c 0
268.37 571 m 0
 274.746 601 304.848 625 333.848 625 c 0
 363.848 625 382.746 601 376.37 571 c 0
 370.206 542 341.104 518 311.104 518 c 0
 282.104 518 262.206 542 268.37 571 c 0
EndSplineSet
LCarets2: 1 0 
EndChar

StartChar: uni04F3
Encoding: 1267 1267 128
Width: 533
VWidth: 999
Flags: HW
HStem: -232.2 65.3<98.4399 174.076> 402 34<13 65.4406 195.582 240 340 384.791 462.58 516>
DStem2: 199 357 92 336 0.37552 -0.926814<-34.5285 268.481> 215 -61 266 -71 0.373718 0.927542<-120.484 52.1765 182.748 398.364>
LayerCount: 2
Fore
SplineSet
504.481 341 m 2
 250.908 -71 l 2
 199.054 -155 139.944 -232.2 59.7441 -232.2 c 0
 38.3447 -232.2 -13.4346 -219.4 -4.57129 -177.7 c 0
 2.69824 -143.5 36.2539 -126.3 65.1543 -126.3 c 0
 81.2539 -126.3 97.5996 -140.2 101.959 -149.8 c 0
 106.318 -159.4 110.024 -166.9 117.524 -166.9 c 0
 125.024 -166.9 156.667 -138 202.034 -61 c 2
 230.449 -12 l 1
 163.419 336 l 2
 153.825 385.9 145.447 402 105.447 402 c 0
 99.4473 402 95.873 404 96.9355 409 c 2
 102.25 434 l 1
 105.675 436 l 1
 105.675 436 169.949 434 211.25 434 c 0
 258.449 434 332.675 436 332.675 436 c 1
 336.25 434 l 1
 331.148 410 l 2
 329.66 403 323.447 402 321.447 402 c 0
 281.447 402 270.472 388 274.883 357 c 2
 314.318 105 l 1
 365.961 188 429.129 297 459.458 355 c 0
 479.109 391 460.447 402 429.447 402 c 0
 424.447 402 422.298 406 422.936 409 c 2
 428.037 433 l 1
 432.675 436 l 1
 432.675 436 500.55 434 544.25 434 c 0
 569.25 434 608.675 436 608.675 436 c 1
 610.25 434 l 1
 605.36 411 l 2
 604.298 406 598.447 402 592.447 402 c 0
 563.447 402 530.409 383 504.481 341 c 2
604.184 608.7 m 0
 601.696 597 595.612 591.9 586.239 584.5 c 2
 468.493 491.6 l 2
 462.23 486.6 456.741 484.3 452.041 484.3 c 0
 444.441 484.3 437.874 490.1 439.766 499 c 0
 440.616 503 443.115 507.7 447.241 513 c 2
 540.861 634 l 2
 542.935 636.7 553.629 652.2 572.629 652.2 c 0
 597.129 652.2 609.306 632.8 604.184 608.7 c 0
477.998 621 m 0
 476.935 616 474.659 610 469.597 605 c 2
 354.528 496 l 2
 343.275 485.4 333.939 481 327.34 481 c 0
 319.54 481 315.679 487.3 317.635 496.5 c 0
 318.484 500.5 320.562 505.1 323.704 510 c 2
 410.887 644 l 2
 418.146 655.1 432.649 657 443.649 657 c 0
 465.949 657 482.079 640.2 477.998 621 c 0
EndSplineSet
LCarets2: 1 0 
EndChar

StartChar: uni1E00
Encoding: 7680 7680 129
Width: 699
VWidth: 999
Flags: HW
HStem: -215 32<313.025 383.277> -80 31<313.945 382.472> -1 34<10 60.0229 142.897 211 414 482.841 622.594 692> 241 47<234.168 403> 638 20<348.5 364.5>
VStem: 263 36<-170.655 -92.2363> 397 37<-171.322 -91.8533>
DStem2: 89 91 148 79 0.384126 0.923281<-23.1403 196.063 246.684 479.281> 399 627 320 514 0.352654 -0.935754<77.8806 318.631 368.607 561.264>
LayerCount: 2
Fore
SplineSet
330.995 -80 m 0
 302.995 -80 276.895 -104 270.942 -132 c 0
 265.416 -158 280.103 -183 309.103 -183 c 0
 338.103 -183 363.416 -158 368.942 -132 c 0
 375.106 -103 357.995 -80 330.995 -80 c 0
234.942 -132 m 0
 244.72 -86 290.585 -49 337.585 -49 c 0
 382.585 -49 415.933 -85 405.942 -132 c 0
 396.378 -177 349.301 -215 302.301 -215 c 0
 256.301 -215 225.165 -178 234.942 -132 c 0
314.216 288 m 2
 464.216 288 l 1
 429.254 514 l 1
 297.767 300 l 1
 295.854 291 296.216 288 314.216 288 c 2
164.792 79 m 2
 147.628 50 143.015 33 202.015 33 c 0
 218.015 33 222.589 31 220.889 23 c 2
 216.638 3 l 1
 210.787 -1 l 1
 210.787 -1 119.213 1 95.2129 1 c 0
 70.2129 1 9.78711 -1 9.78711 -1 c 1
 2.4248 2 l 1
 6.88867 23 l 2
 9.01465 33 17.0146 33 29.0146 33 c 0
 49.0146 33 82.6279 50 108.343 91 c 2
 445.273 627 l 2
 460.374 651 482.862 658 493.862 658 c 0
 514.862 658 528.736 648 532.273 627 c 2
 620.343 91 l 2
 626.479 54 636.015 33 661.015 33 c 2
 689.015 33 l 2
 704.015 33 703.589 31 701.889 23 c 2
 697.638 3 l 1
 691.787 -1 l 1
 691.787 -1 596.213 1 558.213 1 c 0
 522.213 1 413.787 -1 413.787 -1 c 1
 406.851 4 l 1
 410.889 23 l 2
 412.589 31 421.015 33 439.015 33 c 2
 466.015 33 l 2
 483.015 33 493.353 44 496.541 59 c 0
 497.604 64 498.879 70 497.517 73 c 2
 471.227 241 l 1
 287.227 241 l 2
 267.227 241 262.014 240 253.25 227 c 2
 164.792 79 l 2
EndSplineSet
LCarets2: 1 0 
EndChar

StartChar: uni1E01
Encoding: 7681 7681 130
Width: 476
VWidth: 999
Flags: HW
HStem: -216 32<201.025 271.277> -81 31<201.945 270.472> -10 55<110.871 229.853 351 447.215> 406 38<148.426 256.61>
VStem: 36 105<56.7004 159.155> 48 93<295.994 379.736> 151 36<-171.655 -93.2363> 282 108<69.6589 219 257 374.929> 285 37<-172.322 -92.8533>
DStem2: 210 236 225 202 0.96 0.28<-70.2096 64.36>
LayerCount: 2
Fore
SplineSet
218.783 -81 m 0
 190.783 -81 164.682 -105 158.73 -133 c 0
 153.203 -159 167.89 -184 196.89 -184 c 0
 225.89 -184 251.203 -159 256.73 -133 c 0
 262.895 -104 245.783 -81 218.783 -81 c 0
122.73 -133 m 0
 132.508 -87 178.372 -50 225.372 -50 c 0
 270.372 -50 303.72 -86 293.73 -133 c 0
 284.165 -178 237.088 -216 190.088 -216 c 0
 144.088 -216 112.952 -179 122.73 -133 c 0
291.203 48 m 1
 245.582 14.5 195.874 -10 153.874 -10 c 0
 66.874 -10 41.5264 26 56.1934 95 c 0
 72.9844 174 150.665 205.9 260.163 236 c 2
 336.627 257 l 1
 363.622 384 340.298 406 298.298 406 c 0
 260.298 406 224.535 393 219.858 371 c 0
 215.607 351 219.27 340 216.719 328 c 0
 213.743 314 184.642 290 156.642 290 c 0
 120.642 290 113.042 306 118.568 332 c 0
 131.322 392 247.375 444 320.375 444 c 0
 402.375 444 478.211 415 447.603 271 c 2
 416.782 126 l 2
 407.005 80 399.928 42 438.928 42 c 0
 463.127 42 467.528 58 473.328 58 c 0
 477.328 58 483.565 45 482.077 38 c 0
 481.015 33 433.874 -10 378.874 -10 c 0
 318.874 -10 297.02 9.5 293.203 48 c 1
 291.203 48 l 1
300.067 85 m 1
 328.55 219 l 1
 267.937 202 l 2
 193.173 181 173.096 151 164.381 110 c 0
 156.941 75 165.565 45 213.565 45 c 0
 231.565 45 270.816 65 300.067 85 c 1
EndSplineSet
LCarets2: 1 0 
EndChar

StartChar: uni1E02
Encoding: 7682 7682 131
Width: 620
VWidth: 999
Flags: HW
HStem: 0 33<23 96.4211> 0 40<225.077 375.965> 334 42<221 356.422> 605 42<224.143 359.733> 613 34<24 96.3856> 682 120<248.745 341.255>
VStem: 99 122<45.449 334 376 599.529> 235 120<695.745 788.255> 403 120<424.816 565.405> 450 127<106.58 268.4>
LayerCount: 2
Fore
SplineSet
390.717 742 m 0
 397.944 776 431.896 804 465.896 804 c 0
 499.896 804 521.944 776 514.717 742 c 0
 507.49 708 473.538 680 439.538 680 c 0
 405.538 680 383.49 708 390.717 742 c 0
340.457 562 m 2
 300.921 376 l 1
 356.921 376 l 2
 427.921 376 489.936 409 506.94 489 c 0
 527.771 587 465.597 605 419.597 605 c 0
 354.597 605 346.621 591 340.457 562 c 2
291.994 334 m 1
 238.854 84 l 2
 232.69 55 235.502 40 295.502 40 c 0
 427.502 40 476.995 127 489.748 187 c 0
 508.028 273 465.994 334 362.994 334 c 2
 291.994 334 l 1
26.4639 21 m 2
 27.9512 28 32.0146 33 47.0146 33 c 2
 76.0146 33 l 2
 99.0146 33 107.928 42 114.729 74 c 2
 220.582 572 l 2
 226.959 602 223.297 613 199.297 613 c 2
 166.297 613 l 2
 155.297 613 152.935 616 154.423 623 c 2
 159.099 645 l 1
 161.524 647 l 1
 161.524 647 261.799 645 291.799 645 c 0
 321.799 645 371.524 647 421.524 647 c 0
 623.324 647 642.031 560 627.365 491 c 0
 616.525 440 562.834 385 503.732 361 c 1
 503.308 359 l 1
 603.356 331 633.115 264 614.41 176 c 0
 595.918 89 511 0 306 0 c 2
 23 0 l 1
 22.2129 1 l 1
 26.4639 21 l 2
EndSplineSet
LCarets2: 1 0 
EndChar

StartChar: uni1E03
Encoding: 7683 7683 132
Width: 505
VWidth: 999
Flags: HW
HStem: -10 41<188.988 292.544> 393 51<215.683 304.122> 512 120<230.745 323.255> 638 34<6.01603 44> 678 20<158.465 175.5>
VStem: 74 110<40.573 375.172 402 635.227> 217 120<525.745 618.255> 353 115<135.572 330.968>
LayerCount: 2
Fore
SplineSet
336.582 572 m 0
 343.81 606 377.761 634 411.761 634 c 0
 445.761 634 467.81 606 460.582 572 c 0
 453.355 538 419.404 510 385.404 510 c 0
 351.404 510 329.355 538 336.582 572 c 0
195.903 56 m 1
 208.864 37 222.589 31 240.589 31 c 0
 319.589 31 376.169 109 399.763 220 c 0
 420.593 318 393.535 393 344.535 393 c 0
 321.035 393 298.516 383.5 260.945 362 c 1
 195.903 56 l 1
193.669 563 m 2
 207.485 628 199.186 636 179.186 636 c 1
 147.611 638 l 2
 144.453 638.2 142.336 640 142.674 643 c 2
 145.838 672 l 1
 186.976 675 292.139 688 319.364 698 c 1
 328.364 698 334.727 695 333.239 688 c 2
 333.239 688 321.736 648 307.921 583 c 2
 269.447 402 l 1
 302.911 423 342.375 444 380.375 444 c 0
 478.375 444 545.796 366 519.651 243 c 0
 485.643 83 347.874 -10 236.874 -10 c 0
 192.874 -10 160.551 12 142.502 40 c 1
 101.236 -13 l 1
 68.5117 -7 l 1
 76.6133 17 81.6523 36 89.7295 74 c 2
 193.669 563 l 2
EndSplineSet
LCarets2: 1 0 
EndChar

StartChar: uni1E04
Encoding: 7684 7684 133
Width: 620
VWidth: 999
Flags: HW
HStem: -174 120<235.745 328.255> 0 33<23 96.4211> 0 40<225.077 375.965> 334 42<221 356.422> 605 42<224.143 359.733> 613 34<24 96.3856>
VStem: 99 122<45.449 334 376 599.529> 222 120<-160.255 -67.745> 403 120<424.816 565.405> 450 127<106.58 268.4>
LayerCount: 2
Fore
SplineSet
195.769 -114 m 0
 202.995 -80 236.947 -52 270.947 -52 c 0
 304.947 -52 326.995 -80 319.769 -114 c 0
 312.542 -148 278.59 -176 244.59 -176 c 0
 210.59 -176 188.542 -148 195.769 -114 c 0
340.457 562 m 2
 300.921 376 l 1
 356.921 376 l 2
 427.921 376 489.936 409 506.94 489 c 0
 527.771 587 465.597 605 419.597 605 c 0
 354.597 605 346.621 591 340.457 562 c 2
291.994 334 m 1
 238.854 84 l 2
 232.69 55 235.502 40 295.502 40 c 0
 427.502 40 476.995 127 489.748 187 c 0
 508.028 273 465.994 334 362.994 334 c 2
 291.994 334 l 1
26.4639 21 m 2
 27.9512 28 32.0146 33 47.0146 33 c 2
 76.0146 33 l 2
 99.0146 33 107.928 42 114.729 74 c 2
 220.582 572 l 2
 226.959 602 223.297 613 199.297 613 c 2
 166.297 613 l 2
 155.297 613 152.935 616 154.423 623 c 2
 159.099 645 l 1
 161.524 647 l 1
 161.524 647 261.799 645 291.799 645 c 0
 321.799 645 371.524 647 421.524 647 c 0
 623.324 647 642.031 560 627.365 491 c 0
 616.525 440 562.834 385 503.732 361 c 1
 503.308 359 l 1
 603.356 331 633.115 264 614.41 176 c 0
 595.918 89 511 0 306 0 c 2
 23 0 l 1
 22.2129 1 l 1
 26.4639 21 l 2
EndSplineSet
LCarets2: 1 0 
EndChar

StartChar: uni1E05
Encoding: 7685 7685 134
Width: 505
VWidth: 999
Flags: HW
HStem: -174 120<190.745 283.255> -10 41<188.988 292.544> 393 51<215.683 304.122> 638 34<6.01603 44> 678 20<158.465 175.5>
VStem: 74 110<40.573 375.172 402 635.227> 177 120<-160.255 -67.745> 353 115<135.572 330.968>
LayerCount: 2
Fore
SplineSet
150.769 -114 m 0
 157.995 -80 191.947 -52 225.947 -52 c 0
 259.947 -52 281.995 -80 274.769 -114 c 0
 267.542 -148 233.59 -176 199.59 -176 c 0
 165.59 -176 143.542 -148 150.769 -114 c 0
195.903 56 m 1
 208.864 37 222.589 31 240.589 31 c 0
 319.589 31 376.169 109 399.763 220 c 0
 420.593 318 393.535 393 344.535 393 c 0
 321.035 393 298.516 383.5 260.945 362 c 1
 195.903 56 l 1
193.669 563 m 2
 207.485 628 199.186 636 179.186 636 c 1
 147.611 638 l 2
 144.453 638.2 142.336 640 142.674 643 c 2
 145.838 672 l 1
 186.976 675 292.139 688 319.364 698 c 1
 328.364 698 334.727 695 333.239 688 c 2
 333.239 688 321.736 648 307.921 583 c 2
 269.447 402 l 1
 302.911 423 342.375 444 380.375 444 c 0
 478.375 444 545.796 366 519.651 243 c 0
 485.643 83 347.874 -10 236.874 -10 c 0
 192.874 -10 160.551 12 142.502 40 c 1
 101.236 -13 l 1
 68.5117 -7 l 1
 76.6133 17 81.6523 36 89.7295 74 c 2
 193.669 563 l 2
EndSplineSet
LCarets2: 1 0 
EndChar

StartChar: uni1E06
Encoding: 7686 7686 135
Width: 620
VWidth: 999
Flags: HW
HStem: -106 44<137.058 414.638> 0 33<23 96.4211> 0 40<225.077 375.965> 334 42<221 356.422> 605 42<224.143 359.733> 613 34<24 96.3856>
VStem: 99 122<45.449 334 376 599.529> 136 280<-105.948 -62> 403 120<424.816 565.405> 450 127<106.58 268.4>
LayerCount: 2
Fore
SplineSet
370.469 -106 m 2
 125.469 -106 l 2
 117.469 -106 115.17 -98 116.657 -91 c 0
 119.208 -79 132.821 -62 144.821 -62 c 2
 389.821 -62 l 2
 398.821 -62 401.334 -69 399.846 -76 c 0
 397.295 -88 383.469 -106 370.469 -106 c 2
340.457 562 m 2
 300.921 376 l 1
 356.921 376 l 2
 427.921 376 489.936 409 506.94 489 c 0
 527.771 587 465.597 605 419.597 605 c 0
 354.597 605 346.621 591 340.457 562 c 2
291.994 334 m 1
 238.854 84 l 2
 232.69 55 235.502 40 295.502 40 c 0
 427.502 40 476.995 127 489.748 187 c 0
 508.028 273 465.994 334 362.994 334 c 2
 291.994 334 l 1
26.4639 21 m 2
 27.9512 28 32.0146 33 47.0146 33 c 2
 76.0146 33 l 2
 99.0146 33 107.928 42 114.729 74 c 2
 220.582 572 l 2
 226.959 602 223.297 613 199.297 613 c 2
 166.297 613 l 2
 155.297 613 152.935 616 154.423 623 c 2
 159.099 645 l 1
 161.524 647 l 1
 161.524 647 261.799 645 291.799 645 c 0
 321.799 645 371.524 647 421.524 647 c 0
 623.324 647 642.031 560 627.365 491 c 0
 616.525 440 562.834 385 503.732 361 c 1
 503.308 359 l 1
 603.356 331 633.115 264 614.41 176 c 0
 595.918 89 511 0 306 0 c 2
 23 0 l 1
 22.2129 1 l 1
 26.4639 21 l 2
EndSplineSet
LCarets2: 1 0 
EndChar

StartChar: uni1E07
Encoding: 7687 7687 136
Width: 505
VWidth: 999
Flags: HW
HStem: -110 44<107.058 384.638> -10 41<188.988 292.544> 393 51<215.683 304.122> 638 34<6.01603 44> 678 20<158.465 175.5>
VStem: 74 110<40.573 375.172 402 635.227> 106 280<-109.948 -66> 353 115<135.572 330.968>
LayerCount: 2
Fore
SplineSet
339.619 -110 m 2
 94.6191 -110 l 2
 86.6191 -110 84.3193 -102 85.8066 -95 c 0
 88.3574 -83 101.972 -66 113.972 -66 c 2
 358.972 -66 l 2
 367.972 -66 370.483 -73 368.995 -80 c 0
 366.444 -92 352.619 -110 339.619 -110 c 2
195.903 56 m 1
 208.864 37 222.589 31 240.589 31 c 0
 319.589 31 376.169 109 399.763 220 c 0
 420.593 318 393.535 393 344.535 393 c 0
 321.035 393 298.516 383.5 260.945 362 c 1
 195.903 56 l 1
193.669 563 m 2
 207.485 628 199.186 636 179.186 636 c 1
 147.611 638 l 2
 144.453 638.2 142.336 640 142.674 643 c 2
 145.838 672 l 1
 186.976 675 292.139 688 319.364 698 c 1
 328.364 698 334.727 695 333.239 688 c 2
 333.239 688 321.736 648 307.921 583 c 2
 269.447 402 l 1
 302.911 423 342.375 444 380.375 444 c 0
 478.375 444 545.796 366 519.651 243 c 0
 485.643 83 347.874 -10 236.874 -10 c 0
 192.874 -10 160.551 12 142.502 40 c 1
 101.236 -13 l 1
 68.5117 -7 l 1
 76.6133 17 81.6523 36 89.7295 74 c 2
 193.669 563 l 2
EndSplineSet
LCarets2: 1 0 
EndChar

StartChar: uni1E08
Encoding: 7688 7688 137
Width: 666
VWidth: 999
Flags: HW
HStem: -185 25<286.659 383.933> -84 32<356.31 393.165> -10 44<290.062 474.801> 437 21<558.5 612> 617 41<295.135 462.38>
VStem: 34 130<195.747 434.804> 400 53<-150.949 -88.278> 574 38<443.526 484.717>
DStem2: 307 -84 356 -55 0.397156 0.917751<46.0754 95.3334>
LayerCount: 2
Fore
SplineSet
582.084 819 m 1
 633.031 767 l 1
 476.702 709 l 2
 453.79 700 440.152 697 431.152 697 c 0
 422.152 697 418.215 702 420.34 712 c 0
 421.828 719 424.891 724 439.804 733 c 2
 582.084 819 l 1
340.146 -84 m 0
 321.146 -84 310.933 -85 293.87 -90 c 1
 289.146 -84 l 1
 338.688 -9 l 1
 134.342 4.90039 68.2852 161.3 100.955 315 c 0
 142.829 512 326.862 658 511.862 658 c 0
 644.862 658 669.51 614 720.51 614 c 1
 712.182 556 708.278 500 706.588 445 c 1
 666.887 437 l 1
 656.08 532 631.147 617 503.147 617 c 0
 406.147 617 277.08 532 234.994 334 c 0
 204.811 192 238.227 34 377.227 34 c 0
 458.227 34 538.028 66 633.521 153 c 1
 658.42 129 l 1
 572.303 40 477.008 -8.90039 372.475 -10 c 1
 344.31 -55 l 1
 352.734 -53 361.947 -52 370.947 -52 c 0
 410.947 -52 436.846 -76 428.769 -114 c 0
 419.629 -157 367.677 -185 306.677 -185 c 0
 274.677 -185 258.952 -179 236.29 -168 c 1
 250.967 -146 l 1
 275.841 -156 285.991 -160 305.991 -160 c 0
 335.991 -160 368.967 -146 374.706 -119 c 0
 379.17 -98 363.146 -84 340.146 -84 c 0
EndSplineSet
LCarets2: 1 0 
EndChar

StartChar: uni1E09
Encoding: 7689 7689 138
Width: 435
VWidth: 999
Flags: HW
HStem: -179 25<138.659 235.933> -78 32<208.31 245.165> -10 51<217.015 335.943> 402 42<202.671 287.291>
VStem: 37 114<121.53 309.251> 252 53<-144.949 -82.278> 304 107<294.396 387.973>
DStem2: 159 -78 208 -49 0.397156 0.917751<46.0754 95.3334>
LayerCount: 2
Fore
SplineSet
441.263 674 m 1
 444.476 675 452.688 676 457.688 676 c 0
 487.688 676 503.713 662 509.587 652 c 1
 514.698 629 l 1
 371.742 521 l 2
 355.191 509 340.341 505 330.341 505 c 0
 322.341 505 316.041 513 317.316 519 c 0
 318.592 525 322.505 534 330.418 543 c 2
 441.263 674 l 1
193.421 -78 m 0
 174.421 -78 164.208 -79 147.146 -84 c 1
 142.421 -78 l 1
 190.637 -5 l 1
 91.1816 14.5 56.1084 89.9004 79.7236 201 c 0
 110.119 344 229.375 444 347.375 444 c 0
 456.375 444 494.747 394 483.27 340 c 0
 476.68 309 453.366 284 421.366 284 c 0
 389.366 284 371.617 304 374.356 331 c 0
 378.158 363 372.447 402 334.447 402 c 0
 281.447 402 222.632 337 199.038 226 c 0
 176.082 118 217.715 41 283.715 41 c 0
 320.715 41 355.328 58 408.531 106 c 1
 424.492 87 l 1
 381.526 26 317.874 -10 246.874 -10 c 0
 238.475 -10 230.317 -9.7998 222.545 -9.2002 c 1
 197.585 -49 l 1
 206.01 -47 215.223 -46 224.223 -46 c 0
 264.223 -46 290.121 -70 282.044 -108 c 0
 272.904 -151 220.952 -179 159.952 -179 c 0
 127.952 -179 112.228 -173 89.5654 -162 c 1
 104.242 -140 l 1
 129.116 -150 139.267 -154 159.267 -154 c 0
 189.267 -154 222.242 -140 227.981 -113 c 0
 232.444 -92 216.421 -78 193.421 -78 c 0
EndSplineSet
LCarets2: 1 0 
EndChar

StartChar: uni1E0A
Encoding: 7690 7690 139
Width: 718
VWidth: 999
Flags: HW
HStem: 0 33<24 92.1445> 0 40<222.92 424.983> 606 40<223.637 384.847> 613 33<24 92.1445> 686 120<261.745 354.255>
VStem: 99 122<44.4801 601.64> 248 120<699.745 792.255> 549 132<185.589 421.599>
LayerCount: 2
Fore
SplineSet
404.567 746 m 0
 411.794 780 445.746 808 479.746 808 c 0
 513.746 808 535.794 780 528.567 746 c 0
 521.34 712 487.389 684 453.389 684 c 0
 419.389 684 397.34 712 404.567 746 c 0
236.941 75 m 2
 230.777 46 238.502 40 316.502 40 c 0
 444.502 40 567.705 88 609.366 284 c 0
 641.462 435 608.81 606 411.81 606 c 0
 375.81 606 349.172 603 342.37 571 c 2
 236.941 75 l 2
24 0 m 1
 22.4248 2 l 1
 27.1016 24 l 2
 28.377 30 33.0146 33 37.0146 33 c 2
 51.0146 33 l 2
 91.0146 33 108.565 45 115.367 77 c 2
 219.944 569 l 2
 226.746 601 214.297 613 174.297 613 c 2
 160.297 613 l 2
 156.297 613 152.935 616 153.998 621 c 2
 158.887 644 l 1
 161.312 646 l 1
 457.312 646 l 2
 660.312 646 786.003 494 746.68 309 c 0
 694.391 63 487 0 338 0 c 2
 24 0 l 1
EndSplineSet
LCarets2: 1 0 
EndChar

StartChar: uni1E0B
Encoding: 7691 7691 140
Width: 527
VWidth: 999
Flags: HW
HStem: -10 50<201.993 305.84> 28 31<462.031 508> 402 42<202.292 301.893> 512 120<146.745 239.255> 638 34<266.016 304> 678 20<418.466 435.5>
VStem: 37 115<105.179 315.346> 133 120<525.745 618.255> 334 110<71.0411 371.307 419 635.227>
LayerCount: 2
Fore
SplineSet
252.582 572 m 0
 259.81 606 293.761 634 327.761 634 c 0
 361.761 634 383.81 606 376.582 572 c 0
 369.355 538 335.404 510 301.404 510 c 0
 267.404 510 245.355 538 252.582 572 c 0
406.907 343 m 1
 391.921 376 371.447 402 340.447 402 c 0
 299.447 402 230.008 367 199.188 222 c 0
 172.405 96 207.502 40 264.502 40 c 0
 284.502 40 308.628 50 351.854 84 c 1
 406.907 343 l 1
567.921 583 m 2
 468.444 115 l 2
 462.067 85 468.604 64 520.541 59 c 1
 515.951 28 l 1
 448.464 21 402.062 5 365.449 -12 c 1
 331.449 -12 l 1
 343.439 35 l 1
 298.425 2 270.874 -10 228.874 -10 c 0
 122.874 -10 54.2168 81 80.5742 205 c 0
 95.666 276 130.844 338 186.622 384 c 1
 235.699 422 286.375 444 363.375 444 c 0
 379.375 444 412.037 433 423.062 419 c 1
 453.669 563 l 2
 467.485 628 459.186 636 439.186 636 c 1
 407.611 638 l 2
 404.453 638.2 402.336 640 402.674 643 c 2
 405.838 672 l 1
 446.976 675 552.139 688 579.364 698 c 1
 588.364 698 594.727 695 593.239 688 c 2
 593.239 688 581.736 648 567.921 583 c 2
EndSplineSet
LCarets2: 1 0 
EndChar

StartChar: uni1E0C
Encoding: 7692 7692 141
Width: 718
VWidth: 999
Flags: HW
HStem: -174 120<255.745 348.255> 0 33<24 92.1445> 0 40<222.92 424.983> 606 40<223.637 384.847> 613 33<24 92.1445>
VStem: 99 122<44.4801 601.64> 242 120<-160.255 -67.745> 549 132<185.589 421.599>
LayerCount: 2
Fore
SplineSet
215.769 -114 m 0
 222.995 -80 256.947 -52 290.947 -52 c 0
 324.947 -52 346.995 -80 339.769 -114 c 0
 332.542 -148 298.59 -176 264.59 -176 c 0
 230.59 -176 208.542 -148 215.769 -114 c 0
236.941 75 m 2
 230.777 46 238.502 40 316.502 40 c 0
 444.502 40 567.705 88 609.366 284 c 0
 641.462 435 608.81 606 411.81 606 c 0
 375.81 606 349.172 603 342.37 571 c 2
 236.941 75 l 2
24 0 m 1
 22.4248 2 l 1
 27.1016 24 l 2
 28.377 30 33.0146 33 37.0146 33 c 2
 51.0146 33 l 2
 91.0146 33 108.565 45 115.367 77 c 2
 219.944 569 l 2
 226.746 601 214.297 613 174.297 613 c 2
 160.297 613 l 2
 156.297 613 152.935 616 153.998 621 c 2
 158.887 644 l 1
 161.312 646 l 1
 457.312 646 l 2
 660.312 646 786.003 494 746.68 309 c 0
 694.391 63 487 0 338 0 c 2
 24 0 l 1
EndSplineSet
LCarets2: 1 0 
EndChar

StartChar: uni1E0D
Encoding: 7693 7693 142
Width: 527
VWidth: 999
Flags: HW
HStem: -174 120<200.745 293.255> -10 50<201.993 305.84> 28 31<462.031 508> 402 42<202.292 301.893> 638 34<266.016 304> 678 20<418.466 435.5>
VStem: 37 115<105.179 315.346> 187 120<-160.255 -67.745> 334 110<71.0411 371.307 419 635.227>
LayerCount: 2
Fore
SplineSet
160.769 -114 m 0
 167.995 -80 201.947 -52 235.947 -52 c 0
 269.947 -52 291.995 -80 284.769 -114 c 0
 277.542 -148 243.59 -176 209.59 -176 c 0
 175.59 -176 153.542 -148 160.769 -114 c 0
406.907 343 m 1
 391.921 376 371.447 402 340.447 402 c 0
 299.447 402 230.008 367 199.188 222 c 0
 172.405 96 207.502 40 264.502 40 c 0
 284.502 40 308.628 50 351.854 84 c 1
 406.907 343 l 1
567.921 583 m 2
 468.444 115 l 2
 462.067 85 468.604 64 520.541 59 c 1
 515.951 28 l 1
 448.464 21 402.062 5 365.449 -12 c 1
 331.449 -12 l 1
 343.439 35 l 1
 298.425 2 270.874 -10 228.874 -10 c 0
 122.874 -10 54.2168 81 80.5742 205 c 0
 95.666 276 130.844 338 186.622 384 c 1
 235.699 422 286.375 444 363.375 444 c 0
 379.375 444 412.037 433 423.062 419 c 1
 453.669 563 l 2
 467.485 628 459.186 636 439.186 636 c 1
 407.611 638 l 2
 404.453 638.2 402.336 640 402.674 643 c 2
 405.838 672 l 1
 446.976 675 552.139 688 579.364 698 c 1
 588.364 698 594.727 695 593.239 688 c 2
 593.239 688 581.736 648 567.921 583 c 2
EndSplineSet
LCarets2: 1 0 
EndChar

StartChar: uni1E0E
Encoding: 7694 7694 143
Width: 718
VWidth: 999
Flags: HW
HStem: -105 44<144.058 421.638> 0 33<24 92.1445> 0 40<222.92 424.983> 606 40<223.637 384.847> 613 33<24 92.1445>
VStem: 99 122<44.4801 601.64> 143 280<-104.948 -61> 549 132<185.589 421.599>
LayerCount: 2
Fore
SplineSet
377.682 -105 m 2
 132.682 -105 l 2
 124.682 -105 122.382 -97 123.87 -90 c 0
 126.421 -78 140.034 -61 152.034 -61 c 2
 397.034 -61 l 2
 406.034 -61 408.546 -68 407.059 -75 c 0
 404.508 -87 390.682 -105 377.682 -105 c 2
236.941 75 m 2
 230.777 46 238.502 40 316.502 40 c 0
 444.502 40 567.705 88 609.366 284 c 0
 641.462 435 608.81 606 411.81 606 c 0
 375.81 606 349.172 603 342.37 571 c 2
 236.941 75 l 2
24 0 m 1
 22.4248 2 l 1
 27.1016 24 l 2
 28.377 30 33.0146 33 37.0146 33 c 2
 51.0146 33 l 2
 91.0146 33 108.565 45 115.367 77 c 2
 219.944 569 l 2
 226.746 601 214.297 613 174.297 613 c 2
 160.297 613 l 2
 156.297 613 152.935 616 153.998 621 c 2
 158.887 644 l 1
 161.312 646 l 1
 457.312 646 l 2
 660.312 646 786.003 494 746.68 309 c 0
 694.391 63 487 0 338 0 c 2
 24 0 l 1
EndSplineSet
LCarets2: 1 0 
EndChar

StartChar: uni1E0F
Encoding: 7695 7695 144
Width: 527
VWidth: 999
Flags: HW
HStem: -109 44<95.0576 372.638> -10 50<201.993 305.84> 28 31<462.031 508> 402 42<202.292 301.893> 638 34<266.016 304> 678 20<418.466 435.5>
VStem: 37 115<105.179 315.346> 94 280<-108.948 -65> 334 110<71.0411 371.307 419 635.227>
LayerCount: 2
Fore
SplineSet
327.831 -109 m 2
 82.8311 -109 l 2
 74.8311 -109 72.5322 -101 74.0195 -94 c 0
 76.5703 -82 90.1836 -65 102.184 -65 c 2
 347.184 -65 l 2
 356.184 -65 358.696 -72 357.208 -79 c 0
 354.657 -91 340.831 -109 327.831 -109 c 2
406.907 343 m 1
 391.921 376 371.447 402 340.447 402 c 0
 299.447 402 230.008 367 199.188 222 c 0
 172.405 96 207.502 40 264.502 40 c 0
 284.502 40 308.628 50 351.854 84 c 1
 406.907 343 l 1
567.921 583 m 2
 468.444 115 l 2
 462.067 85 468.604 64 520.541 59 c 1
 515.951 28 l 1
 448.464 21 402.062 5 365.449 -12 c 1
 331.449 -12 l 1
 343.439 35 l 1
 298.425 2 270.874 -10 228.874 -10 c 0
 122.874 -10 54.2168 81 80.5742 205 c 0
 95.666 276 130.844 338 186.622 384 c 1
 235.699 422 286.375 444 363.375 444 c 0
 379.375 444 412.037 433 423.062 419 c 1
 453.669 563 l 2
 467.485 628 459.186 636 439.186 636 c 1
 407.611 638 l 2
 404.453 638.2 402.336 640 402.674 643 c 2
 405.838 672 l 1
 446.976 675 552.139 688 579.364 698 c 1
 588.364 698 594.727 695 593.239 688 c 2
 593.239 688 581.736 648 567.921 583 c 2
EndSplineSet
LCarets2: 1 0 
EndChar

StartChar: uni1E10
Encoding: 7696 7696 145
Width: 718
VWidth: 999
Flags: HW
HStem: -181 25<103.659 200.933> -80 32<173.31 210.165> 0 33<24 92.1445> 0 40<222.92 424.983> 606 40<223.637 384.847> 613 33<24 92.1445>
VStem: 99 122<44.4801 601.64> 217 53<-146.949 -84.278> 549 132<185.589 421.599>
DStem2: 124 -80 173 -51 0.397156 0.917751<46.0754 95.3334>
LayerCount: 2
Fore
SplineSet
157.995 -80 m 0
 138.995 -80 128.783 -81 111.72 -86 c 1
 106.995 -80 l 1
 159.9 0 l 1
 24 0 l 1
 22.4248 2 l 1
 27.1016 24 l 2
 28.377 30 33.0146 33 37.0146 33 c 2
 51.0146 33 l 2
 91.0146 33 108.565 45 115.367 77 c 2
 219.944 569 l 2
 226.746 601 214.297 613 174.297 613 c 2
 160.297 613 l 2
 156.297 613 152.935 616 153.998 621 c 2
 158.887 644 l 1
 161.312 646 l 1
 457.312 646 l 2
 660.312 646 786.003 494 746.68 309 c 0
 694.391 63 487 0 338 0 c 2
 194.1 0 l 1
 162.159 -51 l 1
 170.585 -49 179.797 -48 188.797 -48 c 0
 228.797 -48 254.696 -72 246.619 -110 c 0
 237.479 -153 185.527 -181 124.527 -181 c 0
 92.5273 -181 76.8027 -175 54.1406 -164 c 1
 68.8174 -142 l 1
 93.6914 -152 103.841 -156 123.841 -156 c 0
 153.841 -156 186.817 -142 192.556 -115 c 0
 197.02 -94 180.995 -80 157.995 -80 c 0
236.941 75 m 2
 230.777 46 238.502 40 316.502 40 c 0
 444.502 40 567.705 88 609.366 284 c 0
 641.462 435 608.81 606 411.81 606 c 0
 375.81 606 349.172 603 342.37 571 c 2
 236.941 75 l 2
EndSplineSet
LCarets2: 1 0 
EndChar

StartChar: uni1E11
Encoding: 7697 7697 146
Width: 527
VWidth: 999
Flags: HW
HStem: -177 25<149.659 246.933> -76 32<219.31 256.165> -10 50<201.993 305.84> 28 31<462.031 508> 402 42<202.292 301.893> 638 34<266.016 304> 678 20<418.466 435.5>
VStem: 37 115<105.179 315.346> 263 53<-142.949 -80.278> 334 110<71.0411 371.307 419 635.227>
DStem2: 170 -76 219 -47 0.397156 0.917751<46.0754 95.3334>
LayerCount: 2
Fore
SplineSet
204.846 -76 m 0
 185.846 -76 175.633 -77 158.57 -82 c 1
 153.846 -76 l 1
 199.105 -7.5 l 1
 110.4 8 56.7676 93 80.5742 205 c 0
 95.666 276 130.844 338 186.622 384 c 1
 235.699 422 286.375 444 363.375 444 c 0
 379.375 444 412.037 433 423.062 419 c 1
 453.669 563 l 2
 467.485 628 459.186 636 439.186 636 c 1
 407.611 638 l 2
 404.453 638.2 402.336 640 402.674 643 c 2
 405.838 672 l 1
 446.976 675 552.139 688 579.364 698 c 1
 588.364 698 594.727 695 593.239 688 c 2
 593.239 688 581.736 648 567.921 583 c 2
 468.444 115 l 2
 462.067 85 468.604 64 520.541 59 c 1
 515.951 28 l 1
 448.464 21 402.062 5 365.449 -12 c 1
 331.449 -12 l 1
 343.439 35 l 1
 299.616 2.90039 272.302 -9.40039 232.175 -10 c 1
 209.01 -47 l 1
 217.435 -45 226.647 -44 235.647 -44 c 0
 275.647 -44 301.546 -68 293.469 -106 c 0
 284.329 -149 232.378 -177 171.378 -177 c 0
 139.378 -177 123.652 -171 100.991 -160 c 1
 115.667 -138 l 1
 140.542 -148 150.691 -152 170.691 -152 c 0
 200.691 -152 233.667 -138 239.406 -111 c 0
 243.87 -90 227.846 -76 204.846 -76 c 0
406.907 343 m 1
 391.921 376 371.447 402 340.447 402 c 0
 299.447 402 230.008 367 199.188 222 c 0
 172.405 96 207.502 40 264.502 40 c 0
 284.502 40 308.628 50 351.854 84 c 1
 406.907 343 l 1
EndSplineSet
LCarets2: 1 0 
EndChar

StartChar: uni1E12
Encoding: 7698 7698 147
Width: 718
VWidth: 999
Flags: HW
HStem: 0 33<24 92.1445> 0 40<222.92 424.983> 606 40<223.637 384.847> 613 33<24 92.1445>
VStem: 99 122<44.4801 601.64> 549 132<185.589 421.599>
LayerCount: 2
Fore
SplineSet
293.521 -54 m 1
 313.106 -103 341.754 -147 370.039 -188 c 1
 341.001 -207 l 1
 303.527 -181 278.778 -161 251.643 -124 c 1
 205.354 -163 173.527 -181 128.001 -207 c 1
 107.039 -188 l 1
 151.754 -147 201.319 -102 241.521 -54 c 1
 293.521 -54 l 1
236.941 75 m 2
 230.777 46 238.502 40 316.502 40 c 0
 444.502 40 567.705 88 609.366 284 c 0
 641.462 435 608.81 606 411.81 606 c 0
 375.81 606 349.172 603 342.37 571 c 2
 236.941 75 l 2
24 0 m 1
 22.4248 2 l 1
 27.1016 24 l 2
 28.377 30 33.0146 33 37.0146 33 c 2
 51.0146 33 l 2
 91.0146 33 108.565 45 115.367 77 c 2
 219.944 569 l 2
 226.746 601 214.297 613 174.297 613 c 2
 160.297 613 l 2
 156.297 613 152.935 616 153.998 621 c 2
 158.887 644 l 1
 161.312 646 l 1
 457.312 646 l 2
 660.312 646 786.003 494 746.68 309 c 0
 694.391 63 487 0 338 0 c 2
 24 0 l 1
EndSplineSet
LCarets2: 1 0 
EndChar

